<svg xmlns="http://www.w3.org/2000/svg" xmlns:xlink="http://www.w3.org/1999/xlink" id="Layer_1" x="0px" y="0px" viewBox="0 0 456.3 197.6" style="enable-background:new 0 0 456.3 197.6;" xml:space="preserve">
<style type="text/css">
	.st0{fill:#EE255C;}
</style>
<g>
	<rect x="159.3" y="63.3" class="st0" width="2.8" height="29.3"></rect>
	<path class="st0" d="M171.8,72l0.2,3.4c3.4-2.6,6.6-3.9,9.5-3.9c3.7,0,5.5,1.9,5.5,5.6v15.4h-2.7V77.8c0-1.4-0.3-2.5-0.8-3.1   c-0.6-0.6-1.5-0.9-2.7-0.9c-1.2,0-2.5,0.3-3.8,0.8c-1.3,0.6-2.8,1.5-4.8,2.7v15.2h-2.7V72H171.8z"></path>
	<path class="st0" d="M194.9,63.4h1.2c0.6,0,0.9,0.3,0.9,0.9v2.5c0,0.6-0.3,0.9-0.9,0.9h-1.2c-0.6,0-0.9-0.3-0.9-0.9v-2.5   C194,63.7,194.3,63.4,194.9,63.4 M196.8,92.6h-2.7V72h2.7V92.6z"></path>
	<path class="st0" d="M219.1,90.3l0.3,1.9c-2.1,0.6-4.3,0.9-6.7,0.9c-3.5,0-6-0.8-7.5-2.4c-1.4-1.6-2.2-4.4-2.2-8.4   c0-4,0.7-6.8,2.2-8.4c1.4-1.6,3.9-2.4,7.5-2.4c2.5,0,4.6,0.3,6.3,0.9l-0.4,1.7c-1.5-0.2-3.3-0.3-5.5-0.3c-2.7,0-4.6,0.6-5.7,1.8   c-1.1,1.2-1.6,3.4-1.6,6.7c0,3.3,0.5,5.5,1.6,6.7c1.1,1.2,2.9,1.8,5.7,1.8C215.5,90.7,217.5,90.6,219.1,90.3"></path>
	<path class="st0" d="M225.6,63.4h1.2c0.6,0,0.9,0.3,0.9,0.9v2.5c0,0.6-0.3,0.9-0.9,0.9h-1.2c-0.6,0-0.9-0.3-0.9-0.9v-2.5   C224.7,63.7,225,63.4,225.6,63.4 M227.5,92.6h-2.7V72h2.7V92.6z"></path>
	<path class="st0" d="M237.6,72v21.5c0,3.1-1.2,5.7-3.6,7.7l-1.5-1.2c1.6-2,2.3-4.2,2.3-6.5V72H237.6z M235.7,63.4h1.3   c0.6,0,0.9,0.3,0.9,0.9v2.5c0,0.6-0.3,0.9-0.9,0.9h-1.3c-0.6,0-0.8-0.3-0.8-0.9v-2.5C234.8,63.7,235.1,63.4,235.7,63.4"></path>
	<path class="st0" d="M244.9,74.4l-0.3-2c4.1-0.6,7.4-0.9,9.9-0.9c2.2,0,3.9,0.5,4.9,1.5c1.1,1,1.6,2.6,1.6,4.9v14.8h-2.1l-0.3-3.6   c-1,1-2.3,1.9-4,2.7c-1.6,0.8-3.3,1.2-5,1.2c-1.8,0-3.2-0.5-4.3-1.4c-1-1-1.6-2.3-1.6-4.1V85c0-1.6,0.5-2.8,1.4-3.7   c0.9-0.9,2.3-1.3,4-1.3h9.2v-2.2c0-1.4-0.3-2.4-1-3c-0.6-0.6-1.8-1-3.4-1C251.5,73.8,248.5,74,244.9,74.4 M246.5,85.3v1.8   c0,2.3,1.2,3.4,3.6,3.4c1.2,0,2.6-0.3,4.2-0.9c1.5-0.6,2.9-1.5,4.1-2.6v-4.9h-8.8C247.5,82.2,246.5,83.3,246.5,85.3"></path>
	<path class="st0" d="M278.5,90.4l0.3,2c-1.4,0.3-2.8,0.4-4.3,0.4c-3.4,0-5.1-1.7-5.1-5.1V74.1h-3.7v-1.9l3.7-0.2v-6.2h2.7V72h7v2.1   h-7v13.3c0,2,1,3,3,3H278.5z"></path>
	<path class="st0" d="M284.6,63.4h1.2c0.6,0,0.9,0.3,0.9,0.9v2.5c0,0.6-0.3,0.9-0.9,0.9h-1.2c-0.6,0-0.9-0.3-0.9-0.9v-2.5   C283.7,63.7,284,63.4,284.6,63.4 M286.5,92.6h-2.7V72h2.7V92.6z"></path>
	<path class="st0" d="M311.4,72l-7.8,19.9c-0.2,0.5-0.5,0.7-1,0.7H300c-0.5,0-0.8-0.2-1-0.7L291.1,72h2.9l5.6,14.8   c0.2,0.4,0.4,1.1,0.7,1.9c0.3,0.8,0.5,1.4,0.7,1.8h0.5l1.4-3.7l5.6-14.8H311.4z"></path>
	<path class="st0" d="M315.7,74.4l-0.3-2c4.1-0.6,7.4-0.9,9.9-0.9c2.2,0,3.9,0.5,4.9,1.5c1.1,1,1.6,2.6,1.6,4.9v14.8h-2.1l-0.3-3.6   c-1,1-2.3,1.9-4,2.7c-1.6,0.8-3.3,1.2-5,1.2c-1.8,0-3.2-0.5-4.3-1.4c-1-1-1.6-2.3-1.6-4.1V85c0-1.6,0.5-2.8,1.4-3.7   c0.9-0.9,2.3-1.3,4-1.3h9.2v-2.2c0-1.4-0.3-2.4-1-3c-0.6-0.6-1.8-1-3.4-1C322.3,73.8,319.3,74,315.7,74.4 M317.3,85.3v1.8   c0,2.3,1.2,3.4,3.6,3.4c1.2,0,2.6-0.3,4.2-0.9c1.5-0.6,2.9-1.5,4.1-2.6v-4.9h-8.8C318.3,82.2,317.3,83.3,317.3,85.3"></path>
	<path class="st0" d="M158.6,135.3V106c3.9-0.3,7.5-0.4,11-0.4c4.4,0,7.5,1.1,9.3,3.3c1.8,2.2,2.7,6.1,2.7,11.8   c0,5.7-0.9,9.6-2.7,11.8c-1.8,2.2-4.9,3.3-9.3,3.3C166.1,135.7,162.4,135.6,158.6,135.3 M163.9,110.1v21.1c2.2,0.1,4.1,0.1,5.6,0.1   c2.4,0,4.1-0.8,5-2.3c0.9-1.5,1.4-4.3,1.4-8.3c0-4-0.5-6.8-1.4-8.3c-0.9-1.5-2.6-2.3-5-2.3c-0.8,0-1.8,0-3,0   C165.3,110.1,164.4,110.1,163.9,110.1"></path>
	<path class="st0" d="M188.2,105.5h2.4c1,0,1.5,0.5,1.5,1.5v2.3c0,1-0.5,1.5-1.5,1.5h-2.4c-1,0-1.5-0.5-1.5-1.5V107   C186.7,106,187.2,105.5,188.2,105.5 M192,135.3h-5.1v-20.8h5.1V135.3z"></path>
	<path class="st0" d="M218.2,117l-2.7,0.3c0.4,0.9,0.6,2,0.6,3.3c0,2.4-0.7,4.1-2.1,5.2c-1.4,1-3.8,1.5-7.3,1.5   c-1.5,0-2.8-0.1-3.8-0.3c-0.3,0.5-0.4,1.1-0.2,1.7c0.2,0.6,0.7,1,1.4,1.1l7.6,1.1c2,0.3,3.5,0.9,4.4,1.9c0.9,1,1.3,2.4,1.3,4.2   c0,2.5-0.8,4.3-2.3,5.2c-1.5,0.9-4.3,1.4-8.2,1.4c-4,0-6.8-0.5-8.3-1.4c-1.5-0.9-2.2-2.6-2.2-5c0-1.1,0.3-2,0.8-2.6   c0.5-0.7,1.3-1.3,2.5-2c-0.9-0.9-1.3-2-1.2-3.4c0.2-1.4,0.7-2.4,1.7-3c-2-0.9-2.9-2.8-2.9-5.6c0-2.5,0.7-4.2,2.1-5.2   c1.4-1,3.8-1.5,7.3-1.5c2.1,0,3.8,0.2,5.2,0.6h6.6L218.2,117z M208.9,134.5l-5.9-0.7c-1.1,1-1.6,2-1.6,2.9c0,1.2,0.3,2,1,2.3   c0.7,0.3,2.2,0.5,4.5,0.5c2.3,0,3.8-0.2,4.5-0.5c0.7-0.3,1.1-1.1,1.1-2.2c0-0.8-0.2-1.4-0.6-1.6   C211.3,134.9,210.4,134.7,208.9,134.5 M203,123c0.7,0.5,1.9,0.7,3.7,0.7s3-0.2,3.6-0.7c0.7-0.5,1-1.3,1-2.4c0-1.2-0.3-2-1-2.4   c-0.7-0.4-1.9-0.7-3.6-0.7s-3,0.2-3.7,0.7c-0.7,0.4-1,1.2-1,2.4C201.9,121.8,202.3,122.6,203,123"></path>
	<path class="st0" d="M223.6,105.5h2.4c1,0,1.5,0.5,1.5,1.5v2.3c0,1-0.5,1.5-1.5,1.5h-2.4c-1,0-1.5-0.5-1.5-1.5V107   C222.1,106,222.6,105.5,223.6,105.5 M227.3,135.3h-5.1v-20.8h5.1V135.3z"></path>
	<path class="st0" d="M240.2,118.2v10.6c0,0.9,0.2,1.5,0.6,1.9c0.4,0.4,1,0.5,2,0.5h2.8l0.6,3.8c-1.5,0.5-3.3,0.7-5.3,0.7   c-1.8,0-3.2-0.5-4.2-1.6c-1-1-1.5-2.5-1.5-4.5v-11.5h-3.8v-3.5l3.7-0.2v-6h5.1v6h6.1v3.7H240.2z"></path>
	<path class="st0" d="M250.6,118.6l-0.5-3.7c3.7-0.7,7.1-1,10.4-1c2.7,0,4.7,0.5,5.9,1.6c1.3,1.1,1.9,3,1.9,5.6v14.1h-4.1l-0.6-3.2   c-2.2,2.4-4.8,3.7-7.9,3.7c-2,0-3.5-0.5-4.8-1.6c-1.2-1.1-1.8-2.5-1.8-4.4v-2.1c0-1.7,0.5-3,1.6-3.9c1.1-0.9,2.6-1.4,4.5-1.4h7.8   v-1.3c0-1.2-0.3-2-0.8-2.4c-0.5-0.4-1.5-0.6-3-0.6C257.2,118.2,254.3,118.3,250.6,118.6 M254.3,128.3v0.8c0,1.7,0.9,2.5,2.7,2.5   c2.1,0,4.1-0.8,6.1-2.5v-3.2h-6.6c-0.8,0-1.4,0.2-1.7,0.6C254.5,127,254.3,127.5,254.3,128.3"></path>
	<path class="st0" d="M279.2,105.6v23.2c0,0.8,0.2,1.4,0.6,1.8c0.4,0.4,1,0.6,1.9,0.6h1.8l0.6,3.8c-1,0.5-2.4,0.7-4.4,0.7   c-1.7,0-3.1-0.5-4.1-1.5c-1-1-1.5-2.4-1.5-4.2v-24.5H279.2z"></path>
	<path class="st0" d="M291.6,114.5l0.3,3.1c3.2-2.4,6.2-3.7,9-3.7c1.8,0,3.3,0.5,4.2,1.5c1,1,1.5,2.4,1.5,4.3v15.6h-5.2v-14   c0-1.2-0.2-1.9-0.5-2.4c-0.3-0.4-0.9-0.6-1.7-0.6c-1,0-1.9,0.2-3,0.6c-1,0.4-2.3,1-3.9,2v14.5h-5.2v-20.8H291.6z"></path>
	<path class="st0" d="M312.7,118.6l-0.5-3.7c3.7-0.7,7.1-1,10.4-1c2.7,0,4.7,0.5,5.9,1.6c1.3,1.1,1.9,3,1.9,5.6v14.1h-4.1l-0.6-3.2   c-2.2,2.4-4.8,3.7-7.9,3.7c-2,0-3.5-0.5-4.8-1.6c-1.2-1.1-1.8-2.5-1.8-4.4v-2.1c0-1.7,0.5-3,1.6-3.9c1.1-0.9,2.6-1.4,4.5-1.4h7.8   v-1.3c0-1.2-0.3-2-0.8-2.4c-0.5-0.4-1.5-0.6-3-0.6C319.2,118.2,316.3,118.3,312.7,118.6 M316.4,128.3v0.8c0,1.7,0.9,2.5,2.7,2.5   c2.1,0,4.1-0.8,6.1-2.5v-3.2h-6.6c-0.8,0-1.4,0.2-1.7,0.6C316.5,127,316.4,127.5,316.4,128.3"></path>
	<path class="st0" d="M359.8,123.7l-5.9-1.9c-2.1-0.7-3.7-1.7-4.6-3.1c-0.9-1.4-1.4-3.2-1.4-5.4c0-3.2,0.7-5.3,2.2-6.4   c1.5-1,4.1-1.5,7.9-1.5c3.6,0,6.7,0.3,9.2,1l-0.3,3.8c-3.2-0.1-6.1-0.2-8.7-0.2c-2,0-3.3,0.2-3.9,0.6c-0.7,0.4-1,1.3-1,2.8   c0,1.2,0.2,2.1,0.7,2.6c0.5,0.5,1.3,0.9,2.6,1.3l5.7,1.7c2.2,0.7,3.8,1.8,4.7,3.1c0.9,1.4,1.3,3.2,1.3,5.4c0,3.2-0.8,5.4-2.3,6.5   c-1.5,1.1-4.2,1.7-8.1,1.7c-3.2,0-6.4-0.3-9.5-0.9l0.3-3.9c5,0.1,8.1,0.2,9.3,0.2c2,0,3.3-0.2,3.9-0.7c0.7-0.5,1-1.4,1-2.9   c0-1.3-0.2-2.1-0.7-2.6C361.8,124.5,361,124.1,359.8,123.7"></path>
	<path class="st0" d="M387.2,113.9l-0.6,4.9h-1.5c-1.5,0-3.8,0.6-6.9,1.9v14.7h-5.2v-20.9h4l0.5,3.1c3-2.4,5.9-3.7,8.6-3.7H387.2z"></path>
	<path class="st0" d="M395.8,105.5v7c0,2-0.2,3.6-0.5,4.9c2.2-2.4,4.8-3.5,7.7-3.5c2.6,0,4.6,0.9,5.8,2.6c1.2,1.7,1.8,4.5,1.8,8.4   c0,3.6-0.7,6.4-2.2,8.3c-1.4,1.9-4,2.8-7.6,2.8c-1.6,0-3.4-0.1-5.4-0.4c-2-0.3-3.6-0.7-4.8-1.2v-28.8H395.8z M395.8,120.6v10.7   c1.6,0.4,3.3,0.6,4.9,0.5c1.7,0,2.9-0.5,3.5-1.5c0.7-1,1-2.8,1.1-5.4c0-2.6-0.3-4.3-0.9-5.2c-0.5-0.9-1.7-1.4-3.4-1.4   c-0.9,0-1.6,0.2-2.4,0.6C397.9,119.1,396.9,119.7,395.8,120.6"></path>
	<path class="st0" d="M417,105.4h2.4c1,0,1.5,0.5,1.5,1.5v2.3c0,1-0.5,1.5-1.5,1.5H417c-1,0-1.5-0.5-1.5-1.5v-2.3   C415.5,105.9,416,105.4,417,105.4 M420.8,135.4h-5.2v-20.9h5.2V135.4z"></path>
	<path class="st0" d="M432.1,114.5V135c0,1.8-0.4,3.5-1.3,5.1c-0.9,1.6-2,2.9-3.5,3.8l-2.9-2.3c1.6-2,2.5-4.2,2.5-6.6v-20.5H432.1z    M428.4,105.4h2.4c1,0,1.5,0.5,1.5,1.5v2.3c0,1-0.5,1.5-1.5,1.5h-2.4c-1,0-1.5-0.5-1.5-1.5v-2.3   C426.9,105.9,427.4,105.4,428.4,105.4"></path>
	<path class="st0" d="M438.5,118.6l-0.5-3.7c3.7-0.7,7.1-1,10.4-1c2.7,0,4.7,0.5,5.9,1.6c1.3,1.1,1.9,3,1.9,5.7v14.2h-4.1l-0.6-3.2   c-2.2,2.4-4.8,3.7-8,3.7c-2,0-3.6-0.5-4.8-1.6c-1.2-1.1-1.8-2.5-1.8-4.5v-2.1c0-1.7,0.5-3,1.6-3.9c1.1-0.9,2.6-1.4,4.6-1.4h7.8   v-1.3c0-1.2-0.3-2-0.8-2.4c-0.5-0.4-1.5-0.6-3-0.6C445,118.1,442.1,118.3,438.5,118.6 M442.2,128.3v0.8c0,1.7,0.9,2.6,2.7,2.6   c2.1,0,4.1-0.8,6.1-2.5v-3.2h-6.6c-0.8,0-1.4,0.2-1.7,0.6C442.4,127,442.2,127.5,442.2,128.3"></path>
	<path class="st0" d="M123.7,118.7v-40c2.8-0.5,4.9-2.9,4.9-5.8c0-3.2-2.6-5.9-5.9-5.9c-1.8,0-3.5,0.8-4.5,2.2L11.4,7.9   c0.2-0.6,0.4-1.3,0.4-2C11.7,2.6,9.1,0,5.9,0C2.6,0,0,2.6,0,5.9c0,2.9,2.1,5.3,4.9,5.8v40.1C2.1,52.2,0,54.7,0,57.6   c0,3.2,2.6,5.9,5.9,5.9c1.9,0,3.5-0.9,4.6-2.3l61.8,35.4c-0.2,0.6-0.4,1.3-0.4,2.1c0,0.8,0.2,1.6,0.4,2.2l-61.9,35.5   c-1.1-1.3-2.7-2.1-4.5-2.1c-3.2,0-5.9,2.6-5.9,5.9c0,2.9,2.1,5.3,4.9,5.8v39.9c-2.8,0.5-4.9,2.9-4.9,5.8c0,3.2,2.6,5.9,5.9,5.9   c3.2,0,5.9-2.6,5.9-5.9c0-0.7-0.1-1.4-0.4-2l106.9-61.4c1.1,1.3,2.7,2.1,4.5,2.1c3.2,0,5.9-2.6,5.9-5.9   C128.7,121.6,126.5,119.2,123.7,118.7 M118.2,120.8l-35-20.1c0.2-0.6,0.4-1.3,0.4-2c0-0.6-0.1-1.3-0.3-1.9l35-20.1   c0.9,1,2.1,1.8,3.5,2v40C120.4,118.9,119.1,119.7,118.2,120.8 M117.3,70.9c-0.2,0.6-0.4,1.3-0.4,2c0,0.8,0.1,1.5,0.4,2.1l-34.9,20   c-1.1-1.4-2.8-2.3-4.7-2.3c-1.1,0-2,0.3-2.9,0.8L37.7,45.4c1-1,1.6-2.4,1.6-4c0-3.2-2.6-5.9-5.9-5.9c-1,0-2,0.3-2.8,0.7L10.2,9.9   c0.1-0.1,0.2-0.2,0.2-0.3L117.3,70.9z M6.8,51.8V11.7c0.6-0.1,1.3-0.3,1.8-0.6l20.4,26.4c-1,1-1.6,2.4-1.6,4c0,0.7,0.1,1.4,0.4,2.1   L10.3,53.7C9.4,52.7,8.2,52,6.8,51.8 M11.4,59.5c0.2-0.6,0.3-1.2,0.3-1.9c0-0.8-0.2-1.5-0.4-2.2l17.5-10.2c1.1,1.3,2.7,2.1,4.5,2.1   c1,0,2-0.3,2.8-0.7l37.2,48.2c0,0.1-0.1,0.1-0.1,0.2L11.4,59.5z M73.3,102.5c0,0,0.1,0.1,0.1,0.1l-37.3,48.3   c-0.8-0.4-1.8-0.7-2.8-0.7c-1.8,0-3.4,0.8-4.5,2.1l-17.5-10.2c0.2-0.6,0.4-1.3,0.4-2c0-0.7-0.1-1.4-0.4-2.1L73.3,102.5z M8.6,186.5   c-0.6-0.3-1.2-0.5-1.8-0.6v-39.9c1.4-0.2,2.7-1,3.6-2.1L27.9,154c-0.2,0.6-0.4,1.3-0.4,2.1c0,1.5,0.6,2.9,1.6,4L8.6,186.5z    M10.4,188c-0.1-0.1-0.2-0.2-0.2-0.3l20.4-26.4c0.8,0.4,1.8,0.7,2.8,0.7c3.2,0,5.9-2.6,5.9-5.9c0-1.5-0.6-2.9-1.6-4L75,103.8   c0.8,0.4,1.8,0.7,2.8,0.7c1.8,0,3.5-0.8,4.5-2.2l35,20.1c-0.2,0.6-0.4,1.3-0.4,2c0,0.8,0.1,1.5,0.4,2.1L10.4,188z"></path>
</g>
</svg>