<svg height="35" viewBox="0 0 140 35" width="140" xmlns="http://www.w3.org/2000/svg"><g fill="#242629" fill-rule="evenodd"><path d="m17.2689427 18.5898906 10.6758474-18.5898906 19.961353 34.755188h-47.9061431l13.2762232-23.1166144zm24.6406845 12.7138584-13.883855-24.40104023-8.6127651 15.13834373 5.2700608 9.2626965zm-35.91283572 0h14.78288592l-7.3916137-12.7624667z"/><path d="m59.475368 17.9341859c1.2323411 0 2.0829116-.1475867 2.551737-.4427644.4688254-.2951778.7032346-.9794433.7032346-2.052817v-3.7031209c0-.5903555-.1808299-1.0733665-.5424952-1.4490473-.3616654-.37568078-.850576-.56351836-1.4667465-.56351836-.7233306 0-1.2390308.22808849-1.5471161.68427236-.3080853.4561838-.4621256.8989438-.4621256 1.3282933v2.3345762h-4.0988531v-2.3748275c0-.8318646.1607377-1.6234659.482218-2.3748275.3214803-.75136161.763509-1.39537619 1.3260995-1.93206305.5625905-.53668687 1.2189363-.96602992 1.9690569-1.28804204.7501207-.32201212 1.5538093-.48301576 2.4110901-.48301576 1.125181 0 2.0561203.22138001 2.792846.66414667.7367256.44276667 1.2926103.89223518 1.6676706 1.34841901.2679002.32201212.5023094.64401941.7032346.96603153.2009252.32201211.3683603.71110426.5023104 1.16728809.2411102.88553335.3616635 2.20039645.3616635 3.94462875 0 .9928707-.0200922 1.7978889-.0602772 2.4150788-.0401851.6171899-.1406461 1.1270348-.3013863 1.5295499-.1875302.4293495-.448729.7916077-.7836043 1.0867855-.3348752.2951778-.7969962.617185-1.3863767.9660315.6429605.4025152 1.1318711.7781903 1.4667464 1.1270368.3348753.3488464.5826793.7513556.7434194 1.2075394.1607402.4830182.2545039 1.0532394.2812939 1.7106808s.0401848 1.4960021.0401848 2.5157071c0 .939202-.0200922 1.7173863-.0602772 2.3345762-.0401851.6171899-.1004617 1.1270348-.1808318 1.5295499-.0803701.4293495-.1875285.7916077-.3214787 1.0867855-.1339501.2951778-.3080826.6037681-.5224028.9257802-.5090104.7513616-1.1586588 1.3752507-1.9489645 1.8716861-.7903057.4964353-1.8284035.7446493-3.1143246.7446493-.6429606 0-1.3260959-.1073358-2.0494266-.3220105-.7233306-.2146748-1.3796763-.563516-1.9690569-1.0465342-.5893805-.4830182-1.0782911-1.1136158-1.4667464-1.8918117-.3884553-.778196-.5826801-1.7308009-.5826801-2.8578433v-2.3345762h4.0988531v2.1333197c0 .6440242.1808299 1.1739945.5424953 1.5899268.3616653.4159324.8505759.6238954 1.4667464.6238954s1.1050811-.207963 1.4667465-.6238954c.3616653-.4159323.5424952-.9727365.5424952-1.6704295v-4.105634c0-1.1270424-.2143169-1.8649757-.6429573-2.2138222-.2411102-.2146748-.5692831-.3488445-.9845285-.4025131-.4152453-.0536687-.9577352-.0805027-1.6274858-.0805027zm10.7748527-6.158451c0-.9660363.1674351-1.82472243.5023104-2.57608404s.7836015-1.39537619 1.346192-1.93206305c.5625905-.53668687 1.2122388-.94590446 1.9489644-1.22766507.7367257-.2817606 1.5069273-.42263879 2.310628-.42263879s1.5739023.14087819 2.310628.42263879c.7367256.28176061 1.386374.6909782 1.9489644 1.22766507.5625905.53668686 1.0113167 1.18070144 1.346192 1.93206305s.5023104 1.61004774.5023104 2.57608404v16.8250491c0 .9660364-.1674351 1.8247225-.5023104 2.5760841s-.7836015 1.3953762-1.346192 1.932063c-.5625904.5366869-1.2122388.9459045-1.9489644 1.2276651-.7367257.2817606-1.5069273.4226388-2.310628.4226388s-1.5739023-.1408782-2.310628-.4226388c-.7367256-.2817606-1.3863739-.6909782-1.9489644-1.2276651-.5625905-.5366868-1.0113167-1.1807014-1.346192-1.932063s-.5023104-1.6100477-.5023104-2.5760841zm4.0988531 16.8250491c0 .5903556.1875273 1.080075.5625877 1.469173.3750603.3890979.8572735.583644 1.446654.583644s1.0715937-.1945461 1.446654-.583644c.3750604-.389098.5625877-.8788174.5625877-1.469173v-16.8250491c0-.5903555-.1875273-1.0800749-.5625877-1.4691729-.3750603-.38909799-.8572735-.58364406-1.446654-.58364406s-1.0715937.19454607-1.446654.58364406c-.3750604.389098-.5625877.8788174-.5625877 1.4691729zm12.1009522 5.9169431v-28.65893527h4.0988531v12.27665067h5.0632891v-12.27665067h4.0988531v28.65893527h-4.0988531v-12.7596664h-5.0632891v12.7596664zm17.56609 0v-20.407416h4.098853v20.407416zm0-24.55330128v-4.10563399h4.098853v4.10563399zm7.921729-4.10563399h4.098853v22.90299747c0 .7781959.140646 1.3081662.421941 1.5899268.281295.2817607.81039.4628898 1.587301.5433928v3.8641261c-.937651 0-1.781524-.0737933-2.531645-.2213822-.75012-.1475889-1.393071-.4360538-1.928872-.8654033-.5358-.4025151-.944342-.9727364-1.225637-1.7106808s-.421941-1.7106748-.421941-2.9182202zm8.162838 0h4.098854v22.90299747c0 .7781959.140645 1.3081662.42194 1.5899268.281296.2817607.810391.4628898 1.587301.5433928v3.8641261c-.937651 0-1.781524-.0737933-2.531644-.2213822-.750121-.1475889-1.393072-.4360538-1.928872-.8654033-.535801-.4025151-.944343-.9727364-1.225638-1.7106808s-.421941-1.7106748-.421941-2.9182202zm15.838142 13.96720577c-.02679-.6976929-.247804-1.2209547-.66305-1.5698012-.415245-.3488464-.890761-.5232671-1.426561-.5232671-.642961 0-1.138569.2079631-1.486839.6238954s-.522403.8922348-.522403 1.4289216c0 .3756808.093764.7446475.281294 1.1069112.18753.3622636.669743.6909794 1.446654.9861571l2.41109.9660316c1.527031.5903555 2.578524 1.3953737 3.15451 2.4150788.575985 1.019705.863973 2.1333136.863973 3.340859 0 .858699-.15404 1.6570087-.462125 2.3949532-.308085.7379444-.730022 1.3886675-1.265822 1.9521887-.535801.5635212-1.178752 1.0062812-1.928872 1.3282933-.750121.3220121-1.567205.4830158-2.451275.4830158-1.660982 0-3.054042-.5232619-4.179223-1.5698012-.562591-.5098526-1.018014-1.1471587-1.366284-1.9119374-.348271-.7647788-.535798-1.6570073-.562588-2.6767124h3.857744c.08037.5635212.274595 1.0867831.58268 1.5698012.308085.4830182.850575.7245237 1.627486.7245237.58938 0 1.118475-.1945461 1.587301-.5836441.468825-.3890979.703234-.9324852.703234-1.6301782 0-.5635212-.147343-1.0465321-.442033-1.4490473-.29469-.4025151-.830482-.7513563-1.607393-1.0465341l-1.969057-.7245237c-1.285921-.4830181-2.297229-1.200826-3.033955-2.1534452s-1.105083-2.1131871-1.105083-3.4817387c0-.8586989.160738-1.6570087.482218-2.3949531.32148-.7379445.763509-1.3752505 1.3261-1.9119374.5358-.5366869 1.165356-.9459045 1.888687-1.2276651.72333-.2817606 1.500229-.4226388 2.33072-.4226388s1.600693.1475867 2.310628.4427645c.709936.2951778 1.3194.7111038 1.82841 1.2477907.509011.5366869.910855 1.173993 1.205545 1.9119374s.442033 1.5228372.442033 2.3547018z"/></g></svg>