<?xml version="1.0" encoding="UTF-8" standalone="no"?>
<!DOCTYPE svg PUBLIC "-//W3C//DTD SVG 1.1//EN" "http://www.w3.org/Graphics/SVG/1.1/DTD/svg11.dtd">
<svg width="100%" height="100%" viewBox="0 0 134 67" version="1.1" xmlns="http://www.w3.org/2000/svg" xmlns:xlink="http://www.w3.org/1999/xlink" xml:space="preserve" xmlns:serif="http://www.serif.com/" style="fill-rule:evenodd;clip-rule:evenodd;">
    <g transform="matrix(0.712683,0,0,0.712683,19.3326,9.51713)">
        <path d="M3.028,66.202C1.98,66.202 1.128,65.353 1.158,64.305C1.389,56.264 3.084,48.327 6.167,40.885C9.492,32.859 14.365,25.566 20.508,19.423C26.651,13.28 33.944,8.407 41.97,5.082C49.997,1.758 58.599,0.046 67.287,0.046C75.974,0.046 84.577,1.758 92.603,5.082C100.63,8.407 107.923,13.28 114.066,19.423C120.209,25.566 125.082,32.859 128.407,40.885C131.489,48.327 133.185,56.264 133.415,64.305C133.445,65.353 132.593,66.202 131.546,66.202L125.416,66.202C124.368,66.202 123.522,65.353 123.487,64.305C123.26,57.568 121.822,50.921 119.239,44.683C116.413,37.861 112.271,31.661 107.049,26.44C101.827,21.218 95.628,17.076 88.806,14.25C81.984,11.424 74.671,9.97 67.287,9.97C59.902,9.97 52.59,11.424 45.768,14.25C38.945,17.076 32.746,21.218 27.525,26.44C22.303,31.661 18.161,37.86 15.335,44.683C12.751,50.921 11.314,57.568 11.086,64.305C11.051,65.353 10.205,66.202 9.158,66.202L3.028,66.202Z" style="fill:none;fill-rule:nonzero;stroke:rgb(226,231,237);stroke-width:21.34px;"/>
    </g>
    <g transform="matrix(0.712683,0,0,0.712683,19.3326,9.51713)">
        <path d="M3.028,66.202C1.98,66.202 1.128,65.352 1.158,64.305C1.547,50.75 6.094,37.623 14.206,26.718C22.696,15.304 34.639,6.931 48.262,2.841C61.886,-1.25 76.466,-0.84 89.839,4.009C102.616,8.642 113.642,17.093 121.433,28.192C122.035,29.05 121.792,30.228 120.918,30.805L115.802,34.182C114.927,34.759 113.753,34.516 113.147,33.661C106.534,24.341 97.228,17.244 86.456,13.338C75.089,9.216 62.696,8.868 51.116,12.345C39.536,15.822 29.385,22.939 22.168,32.641C15.33,41.834 11.472,52.884 11.086,64.305C11.051,65.352 10.205,66.202 9.158,66.202L3.028,66.202Z" style="fill:none;fill-rule:nonzero;stroke:rgb(30,188,239);stroke-width:24px;"/>
    </g>
</svg>
