<svg width="60" height="61" viewBox="0 0 60 61" fill="none" xmlns="http://www.w3.org/2000/svg">
<path d="M8.17325 11.567H22.4611C22.945 11.567 23.3371 11.1748 23.3371 10.691C23.3371 10.2072 22.945 9.81502 22.4611 9.81502H8.17325C7.68935 9.81502 7.29725 10.2072 7.29725 10.691C7.29725 11.1748 7.68947 11.567 8.17325 11.567Z" fill="#1EBCEF"/>
<path d="M8.17325 15.807H22.4611C22.945 15.807 23.3371 15.4147 23.3371 14.931C23.3371 14.4472 22.945 14.055 22.4611 14.055H8.17325C7.68935 14.055 7.29725 14.4472 7.29725 14.931C7.29725 15.4147 7.68947 15.807 8.17325 15.807Z" fill="#1EBCEF"/>
<path d="M8.17325 20.047H15.3172C15.8011 20.047 16.1932 19.6548 16.1932 19.1711C16.1932 18.6873 15.8011 18.2951 15.3172 18.2951H8.17325C7.68935 18.2951 7.29725 18.6873 7.29725 19.1711C7.29725 19.6548 7.68947 20.047 8.17325 20.047Z" fill="#1EBCEF"/>
<path d="M58.723 52.9197C59.2069 52.9197 59.5989 52.5275 59.5989 52.0438V50.8849C59.5989 47.5082 57.825 44.4539 55.0938 42.7169C53.6753 41.5733 50.2271 41.105 49.9079 41.009L48.3586 40.6918C47.546 40.5255 46.9292 39.8027 46.9292 38.9402V37.591C47.335 37.3345 47.7286 37.0446 48.1081 36.7177C49.4026 35.6019 50.2477 34.0036 50.5579 32.1279H50.7712C52.5494 32.1279 53.996 30.6813 53.996 28.9031C53.996 27.7746 53.4215 26.762 52.4934 26.1798V23.1392C52.4934 17.5521 47.5341 16.8658 46.3727 16.782C44.9731 16.0303 43.4287 15.6964 42.1291 15.7186V6.01068C43.2121 5.60305 43.9849 4.55677 43.9849 3.33307C43.9848 1.75593 42.7018 0.4729 41.1248 0.4729H3.79706C2.22005 0.4729 0.937012 1.75593 0.937012 3.33307C0.937012 4.55677 1.70975 5.60317 2.79283 6.01068V27.6177C2.79283 28.8179 3.76915 29.7943 4.96925 29.7943H13.6169C14.1008 29.7943 14.4929 29.4021 14.4929 28.9183C14.4929 28.4345 14.1008 28.0423 13.6169 28.0423H4.96914C4.73507 28.0423 4.54469 27.8519 4.54469 27.6177V6.19324H40.377V15.9166C39.6476 16.0718 38.944 16.3175 38.271 16.6526V11.9554C38.271 10.7751 37.3108 9.81482 36.1306 9.81482H28.5028C27.3225 9.81482 26.3623 10.775 26.3623 11.9554V17.9065C26.3623 19.0868 27.3225 20.047 28.5028 20.047H32.5627C32.1554 20.8597 31.9005 21.8735 31.9005 23.1393V26.18C31.2167 26.6088 30.7263 27.2714 30.5152 28.0424H22.2478C21.7639 28.0424 21.3718 28.4346 21.3718 28.9184C21.3718 29.4022 21.7639 29.7944 22.2478 29.7944H30.5242C30.912 31.1403 32.1538 32.128 33.6229 32.128H33.8375C34.1402 34.0169 34.972 35.5865 36.2849 36.7178C36.6583 37.0396 37.0453 37.3252 37.4442 37.5787V38.9403C37.4442 39.7889 36.8412 40.5228 36.0148 40.692C35.6751 40.7615 32.8727 41.3351 32.5069 41.4099C30.1156 41.8993 27.983 43.2923 26.5707 45.2737L25.2739 41.4106C25.1271 40.9742 24.8255 40.6327 24.4501 40.4271L24.5626 38.8986C24.6378 38.108 24.388 37.3082 23.8759 36.7008L21.5479 33.8625C21.2369 33.4833 20.7863 33.2555 20.3039 33.2276L17.232 24.0757C17.078 23.617 16.5817 23.37 16.1227 23.524C15.664 23.6779 15.417 24.1745 15.571 24.6332L18.7206 34.0166L17.6848 35.3391C17.4547 35.6329 17.3173 35.9847 17.2874 36.3562C17.2941 37.3617 16.7838 38.6502 17.7428 40.0581C18.1011 40.584 18.7898 41.3659 19.3635 41.9902C19.222 42.3034 19.1694 42.6603 19.2335 43.0233L21.701 56.9952C22.0366 58.8949 23.6805 60.2739 25.6097 60.2739H57.5568C58.6829 60.2739 59.5988 59.3578 59.5988 58.2319V56.1387C59.5988 55.6549 59.2067 55.2627 58.7228 55.2627C58.2389 55.2627 57.8468 55.6549 57.8468 56.1387V58.2319C57.8468 58.3918 57.7167 58.5219 57.5568 58.5219H53.9729V50.9842C53.9729 47.5568 54.8858 45.2491 54.9952 44.8098C56.7496 46.2796 57.8468 48.4824 57.8468 50.8849V52.0438C57.847 52.5275 58.2391 52.9197 58.723 52.9197ZM3.79706 2.22488H41.1248C41.7357 2.22488 42.2328 2.72198 42.2328 3.33307C42.2328 3.90585 41.796 4.37865 41.2379 4.43553C41.2128 4.436 41.1878 4.43682 41.1633 4.43927C41.1505 4.43974 41.1377 4.44125 41.1248 4.44125H3.79706C3.7841 4.44125 3.77137 4.43974 3.75852 4.43927C3.73399 4.43682 3.709 4.43588 3.68388 4.43553C3.12582 4.37865 2.68899 3.90597 2.68899 3.33307C2.68899 2.72198 3.18609 2.22488 3.79706 2.22488ZM45.5769 44.7562L43.8189 43.6457L46.6629 41.8241C47.0476 42.099 47.4843 42.2935 47.9546 42.397L45.5769 44.7562ZM50.7712 30.3759H50.6883V27.4303C50.7399 27.4343 50.9813 27.4072 51.3014 27.531C51.874 27.7525 52.2441 28.2912 52.2441 28.9031C52.244 29.7152 51.5833 30.3759 50.7712 30.3759ZM50.7414 23.1392V25.6782C50.0699 25.6768 49.9712 25.6809 49.8793 25.674C49.4222 25.6314 49.0628 25.2453 49.0624 24.7765L49.0603 21.8917C49.0603 21.8856 49.0602 21.8795 49.0601 21.8736C49.0387 20.8768 48.7931 19.92 48.3461 19.0509C50.0294 19.8287 50.7414 21.2854 50.7414 23.1392ZM28.1144 17.9065V11.9554C28.1144 11.7412 28.2887 11.5668 28.5029 11.5668H36.1307C36.3449 11.5668 36.5192 11.7411 36.5192 11.9554V17.04C35.7318 17.2507 34.7963 17.6264 33.9734 18.295H28.503C28.2887 18.295 28.1144 18.1207 28.1144 17.9065ZM35.3338 21.8736C35.3337 21.8797 35.3335 21.8857 35.3335 21.8917L35.3314 24.7765C35.3311 25.2737 34.927 25.6782 34.4307 25.6782H33.6525V23.1392C33.6525 21.3002 34.352 19.8359 36.0478 19.0508C35.6008 19.92 35.3551 20.8768 35.3338 21.8736ZM32.1508 28.9185C32.1508 28.9187 32.1508 28.9184 32.1508 28.9185C32.1508 28.9133 32.1501 28.9079 32.15 28.9027C32.1501 28.2907 32.5202 27.7523 33.0928 27.5307C33.2655 27.4639 33.4439 27.4302 33.6228 27.4302H33.7081L33.7102 30.3758H33.6228C32.8159 30.376 32.1592 29.7235 32.1508 28.9185ZM35.4625 30.6772L35.46 27.2223C36.4124 26.8194 37.0828 25.8755 37.0835 24.7779L37.0856 21.9026C37.1173 20.5389 37.6995 19.3199 38.7688 18.3696C40.9058 17.1882 43.4494 17.166 45.6271 18.3711C46.6953 19.3212 47.2769 20.5396 47.3086 21.9026L47.3107 24.7779C47.3115 25.8764 47.983 26.8209 48.9365 27.2232V30.6872C48.9365 30.696 48.9366 30.7046 48.9369 30.7133C48.8899 32.4968 48.3266 34.2168 46.9645 35.3907C44.1727 37.7966 40.3064 37.8706 37.4288 35.3907C36.0634 34.214 35.5028 32.4791 35.4625 30.6772ZM45.1772 38.4506C45.2005 38.747 45.0681 39.5194 45.5267 40.4712L42.1866 42.6105L38.8465 40.4712C39.3055 39.5184 39.1725 38.745 39.196 38.4437C41.1418 39.1498 43.2073 39.1603 45.1772 38.4506ZM37.7105 41.8241L40.5546 43.6457L38.7965 44.7562L36.4188 42.397C36.8891 42.2935 37.3258 42.099 37.7105 41.8241ZM18.9112 38.0139C19.0454 36.4572 19.0138 36.4835 19.0643 36.419L20.1921 34.975C20.1927 34.9747 20.1933 34.9742 20.1939 34.9739L22.5255 37.8166C22.5284 37.8202 22.5315 37.8239 22.5345 37.8275C22.7472 38.0785 22.8506 38.4101 22.8181 38.7373C22.8173 38.7448 22.8167 38.7523 22.8161 38.7598L22.6957 40.3973L20.7783 40.9391C20.2774 40.3974 19.522 39.5576 19.191 39.0716C18.9803 38.7625 18.8809 38.3868 18.9112 38.0139ZM23.4265 56.6905L20.959 42.7184C20.9581 42.7132 20.9613 42.708 20.9664 42.7065L23.6005 41.962C23.606 41.9603 23.6116 41.9636 23.613 41.9683C23.9994 43.1195 26.7468 51.3049 26.9929 52.0379C27.1471 52.4972 27.644 52.7434 28.1022 52.5897C28.5608 52.4357 28.8078 51.9391 28.6539 51.4804L27.3057 47.4636C27.8032 46.4264 28.5135 45.5232 29.3761 44.8037C29.4131 44.9524 30.4004 47.4678 30.4004 50.984V58.5219H25.6097C24.5321 58.5219 23.6138 57.7517 23.4265 56.6905ZM52.221 50.9842V58.5219H32.1524V50.9842C32.1524 47.0656 30.9488 44.0361 30.8906 43.8097C31.5067 43.4997 32.167 43.2676 32.8581 43.1262L34.357 42.8193L37.5686 46.0058C38.147 46.5799 39.0334 46.6785 39.7249 46.2419L42.1867 44.6868L44.6486 46.2419C45.3388 46.6778 46.2256 46.5808 46.8049 46.0058L50.0163 42.8193L51.5154 43.1262C52.2112 43.2685 52.8704 43.5017 53.4824 43.8108C53.3925 44.1604 52.221 46.9651 52.221 50.9842Z" fill="#1EBCEF"/>
</svg>
