<svg width="84" height="66" viewBox="0 0 84 66" fill="none" xmlns="http://www.w3.org/2000/svg">
<g opacity="0.8" filter="url(#filter0_i_1590_597)">
<path fill-rule="evenodd" clip-rule="evenodd" d="M69.4677 34.6856L74.8829 35.9793C79.9907 37.1994 83.5582 41.7193 83.5582 46.9708V57.8832C83.5582 58.7798 82.8312 59.5065 81.9348 59.5065H68.9208V64.3766C68.9208 65.2732 68.1938 66 67.2974 66H49.7922H48.8183H34.4785H34.2079H16.6695C15.7731 66 15.0462 65.2732 15.0462 64.3766V59.5065H2.06526C1.16884 59.5065 0.441895 58.7798 0.441895 57.8832V46.9708C0.441895 41.7193 4.0094 37.1994 9.11764 35.9793L14.5329 34.6856V32.5376C11.527 30.6379 9.52511 27.2875 9.52511 23.4763V17.4265C9.52511 11.5187 14.3316 6.71229 20.2396 6.71229C23.4403 6.71229 26.3156 8.12462 28.2805 10.3567C29.9914 4.3839 35.5017 0 42.0169 0C48.5216 0 54.0243 4.3701 55.7447 10.3283C57.7092 8.1126 60.5739 6.71229 63.7609 6.71229C69.669 6.71229 74.4754 11.5186 74.4754 17.4265V23.4763C74.4754 27.2873 72.4735 30.6378 69.4677 32.5376V34.6856ZM34.2079 62.7533H34.4785H48.8183H49.7922H56.7688V55.6085C56.7688 54.7119 57.4957 53.9852 58.3921 53.9852C59.2885 53.9852 60.0155 54.7119 60.0155 55.6085V62.7533H65.674V58.5179V57.883V57.2481V55.4366C65.674 49.9272 61.9315 45.1852 56.5727 43.9052L48.6117 42.0034L43.4796 53.674C43.2205 54.2634 42.6372 54.6439 41.9934 54.6439C41.3495 54.6439 40.7666 54.2632 40.5075 53.6738L35.3702 41.9862L27.386 43.8995C22.032 45.1825 18.2927 49.9235 18.2927 55.429V62.7533H23.9846V55.6085C23.9846 54.7119 24.7115 53.9852 25.6079 53.9852C26.5044 53.9852 27.2313 54.7119 27.2313 55.6085V62.7533H34.2079ZM71.2286 17.4265C71.2286 13.309 67.8784 9.95902 63.7607 9.95902C60.3723 9.95902 57.5038 12.2273 56.5938 15.325C59.6312 17.0707 63.0778 17.9916 66.5852 17.9916H71.2286V17.8284V17.4265ZM56.3027 18.8465C56.3027 18.8465 56.2986 23.0456 56.2929 23.2114V23.4763C56.2929 27.5938 59.6431 30.9438 63.7607 30.9438C67.8784 30.9438 71.2285 27.594 71.2287 23.4764V21.2385H66.5854C63.0124 21.2385 59.4941 20.4159 56.3027 18.8465ZM42.0168 3.24689C35.9296 3.24689 30.9774 8.1988 30.9774 14.2858V15.7104H35.5454C39.1903 15.7104 42.6234 14.1082 44.9643 11.3147C45.4735 10.7071 46.3472 10.5559 47.0308 10.9577L53.056 14.4975V14.2858C53.056 8.19897 48.1037 3.24689 42.0168 3.24689ZM12.7715 17.4265V17.8286V17.9918H17.4147C20.9223 17.9918 24.3687 17.0707 27.4061 15.3252C26.4962 12.2273 23.6278 9.95902 20.2393 9.95902C16.1216 9.95902 12.7715 13.3088 12.7715 17.4265ZM12.7715 21.2383V23.4763C12.7715 27.5938 16.1216 30.9438 20.2393 30.9438C24.357 30.9438 27.7071 27.594 27.7071 23.4763V18.8417C24.5133 20.4143 20.9914 21.2383 17.4148 21.2383H12.7715ZM15.0462 56.2598V55.429C15.0462 51.8693 16.2752 48.5618 18.3757 45.9524L15.0173 37.9078L9.87153 39.1372C6.23114 40.0068 3.68862 43.2281 3.68862 46.9708V56.2598H6.93535V49.0474C6.93535 48.1508 7.6623 47.424 8.55872 47.424C9.45514 47.424 10.1821 48.1508 10.1821 49.0474V56.2598H15.0462ZM17.7742 36.0838L20.2396 41.9895L22.6958 36.1085C22.6909 36.0577 22.686 36.0069 22.686 35.9557C22.686 35.9252 22.6869 35.8947 22.6886 35.8642V33.9048C21.9013 34.0895 21.0822 34.1905 20.2393 34.1905C19.3927 34.1905 18.5697 34.0887 17.7793 33.9024V35.9669C17.7793 36.0062 17.777 36.045 17.7742 36.0838ZM23.8851 41.6857C24.7549 41.2916 25.6709 40.9719 26.6295 40.7422L31.7774 39.5086C31.4009 39.3551 31.012 39.2286 30.6128 39.133L25.4662 37.8997L23.8851 41.6857ZM31.3694 35.9757C32.5499 36.2585 33.6681 36.7265 34.6873 37.3587V34.9699C32.3926 33.5926 30.5142 31.5904 29.2904 29.1993C28.4347 30.548 27.2868 31.6928 25.9354 32.5446V34.6736L31.3694 35.9757ZM41.9939 48.987L46.0476 39.7685V36.4178C44.7687 36.7945 43.4159 36.9978 42.0166 36.9978C40.5984 36.9978 39.2281 36.7892 37.934 36.4025V39.7505L41.9939 48.987ZM30.9774 22.7122C30.9774 28.799 35.9295 33.7511 42.0168 33.7512C47.9761 33.7512 52.8444 29.004 53.0464 23.0932V18.2573L46.517 14.4215C43.6158 17.3197 39.6887 18.9573 35.5452 18.9573H30.9774V22.7122ZM54.728 29.2279C53.4948 31.6241 51.603 33.6278 49.2943 35.0004V37.3705C50.3185 36.7325 51.443 36.2603 52.6306 35.9757L58.0647 34.6736V32.5446C56.723 31.6986 55.5819 30.5641 54.728 29.2279ZM52.193 39.521L57.3269 40.7476C58.2993 40.9799 59.228 41.3044 60.109 41.7057L58.5213 37.9028L53.3873 39.133C52.9775 39.2312 52.5787 39.3619 52.193 39.521ZM61.3121 35.9551C61.3121 36.0145 61.3074 36.0738 61.3009 36.1327L63.746 41.9895L66.2245 36.0546C66.2242 36.0492 66.2239 36.0437 66.2236 36.0382C66.2222 36.0145 66.2208 35.9908 66.2208 35.9668V33.9022C65.4304 34.0887 64.6073 34.1905 63.7607 34.1905C62.9179 34.1905 62.0987 34.0897 61.3114 33.9048V35.9096C61.3119 35.9247 61.3121 35.94 61.3121 35.9551ZM77.0647 56.2598H80.3114V46.9708C80.3114 43.2281 77.7689 40.0068 74.1285 39.1372L68.9703 37.9049L65.6013 45.9717C67.6958 48.5789 68.9208 51.8818 68.9208 55.4368V56.2598H73.818V49.0474C73.818 48.1508 74.5449 47.424 75.4413 47.424C76.3378 47.424 77.0647 48.1508 77.0647 49.0474V56.2598Z" fill="#1EBCEF"/>
</g>
<defs>
<filter id="filter0_i_1590_597" x="0.441895" y="0" width="84.9515" height="67.8353" filterUnits="userSpaceOnUse" color-interpolation-filters="sRGB">
<feFlood flood-opacity="0" result="BackgroundImageFix"/>
<feBlend mode="normal" in="SourceGraphic" in2="BackgroundImageFix" result="shape"/>
<feColorMatrix in="SourceAlpha" type="matrix" values="0 0 0 0 0 0 0 0 0 0 0 0 0 0 0 0 0 0 127 0" result="hardAlpha"/>
<feOffset dx="1.83529" dy="1.83529"/>
<feGaussianBlur stdDeviation="1.37647"/>
<feComposite in2="hardAlpha" operator="arithmetic" k2="-1" k3="1"/>
<feColorMatrix type="matrix" values="0 0 0 0 0 0 0 0 0 0 0 0 0 0 0 0 0 0 0.15 0"/>
<feBlend mode="normal" in2="shape" result="effect1_innerShadow_1590_597"/>
</filter>
</defs>
</svg>
