<?xml version="1.0" encoding="UTF-8" standalone="no"?>
<!DOCTYPE svg PUBLIC "-//W3C//DTD SVG 1.1//EN" "http://www.w3.org/Graphics/SVG/1.1/DTD/svg11.dtd">
<svg width="100%" height="100%" viewBox="0 0 66 66" version="1.1" xmlns="http://www.w3.org/2000/svg" xmlns:xlink="http://www.w3.org/1999/xlink" xml:space="preserve" xmlns:serif="http://www.serif.com/" style="fill-rule:evenodd;clip-rule:evenodd;stroke-linejoin:round;stroke-miterlimit:2;">
    <g>
        <path d="M32.936,20.014C36.203,20.014 38.862,17.356 38.862,14.088C38.862,10.82 36.203,8.162 32.936,8.162C29.668,8.162 27.01,10.82 27.01,14.088C27.01,17.356 29.668,20.014 32.936,20.014ZM32.936,12.03C34.071,12.03 34.995,12.953 34.995,14.088C34.995,15.224 34.071,16.147 32.936,16.147C31.801,16.147 30.877,15.224 30.877,14.088C30.877,12.953 31.8,12.03 32.936,12.03Z" style="fill:white;fill-rule:nonzero;"/>
        <path d="M66,26.12L66,15.208L33,0L0,15.208L0,26.12L6.515,26.12L6.515,45.642L3.094,45.642L3.094,53.022L0,53.022L0,65.88L66,65.88L66,53.022L64.324,53.022L64.324,45.642L59.356,45.642L59.356,26.12L66,26.12ZM3.867,22.252L3.867,17.684L33,4.258L62.133,17.684L62.133,22.252L3.867,22.252L3.867,22.252ZM26.654,45.642L19.078,45.642L19.078,26.12L26.654,26.12L26.654,45.642ZM30.521,26.12L35.35,26.12L35.35,45.642L30.521,45.642L30.521,26.12ZM39.217,26.12L46.793,26.12L46.793,45.642L39.217,45.642L39.217,26.12ZM10.382,26.12L15.211,26.12L15.211,45.642L10.382,45.642L10.382,26.12ZM62.133,62.013L3.867,62.013L3.867,56.889L62.133,56.889L62.133,62.013ZM60.457,49.509L60.457,53.022L6.961,53.022L6.961,49.509L60.457,49.509ZM55.489,45.642L50.66,45.642L50.66,26.12L55.489,26.12L55.489,45.642Z" style="fill:white;fill-rule:nonzero;"/>
    </g>
</svg>
