<?xml version="1.0" encoding="UTF-8" standalone="no"?>
<!DOCTYPE svg PUBLIC "-//W3C//DTD SVG 1.1//EN" "http://www.w3.org/Graphics/SVG/1.1/DTD/svg11.dtd">
<svg width="100%" height="100%" viewBox="0 0 944 568" version="1.1" xmlns="http://www.w3.org/2000/svg" xmlns:xlink="http://www.w3.org/1999/xlink" xml:space="preserve" xmlns:serif="http://www.serif.com/" style="fill-rule:evenodd;clip-rule:evenodd;stroke-miterlimit:2;">
    <g transform="matrix(1,0,0,1,-28,-216)">
        <g id="_93" serif:id="93" transform="matrix(1.85241e-16,-3.02521,3.02521,1.85241e-16,51.8799,1645.8)">
            <path d="M315,7.2C393.338,7.2 457.8,71.662 457.8,150C457.8,215.419 412.845,272.873 349.346,288.608C348.142,288.906 346.907,289.057 345.666,289.057C337.273,289.057 330.366,282.15 330.366,273.757C330.366,266.748 335.183,260.592 341.986,258.906C391.878,246.543 427.2,201.401 427.2,150C427.2,88.449 376.551,37.8 315,37.8C306.607,37.8 299.7,30.893 299.7,22.5C299.7,14.107 306.607,7.2 315,7.2" style="fill:white;fill-rule:nonzero;stroke:white;stroke-width:13.22px;"/>
        </g>
    </g>
</svg>
