<?xml version="1.0" encoding="UTF-8" standalone="no"?>
<!DOCTYPE svg PUBLIC "-//W3C//DTD SVG 1.1//EN" "http://www.w3.org/Graphics/SVG/1.1/DTD/svg11.dtd">
<svg width="100%" height="100%" viewBox="0 0 134 67" version="1.1" xmlns="http://www.w3.org/2000/svg" xmlns:xlink="http://www.w3.org/1999/xlink" xml:space="preserve" xmlns:serif="http://www.serif.com/" style="fill-rule:evenodd;clip-rule:evenodd;">
    <g transform="matrix(0.712683,0,0,0.712683,19.3326,9.51713)">
        <path d="M3.028,66.202C1.98,66.202 1.128,65.352 1.158,64.305C1.547,50.75 6.094,37.623 14.206,26.718C22.696,15.304 34.639,6.931 48.262,2.841C61.886,-1.25 76.466,-0.84 89.839,4.009C102.616,8.642 113.642,17.093 121.433,28.192C122.035,29.05 121.792,30.228 120.918,30.805L115.802,34.182C114.927,34.759 113.753,34.516 113.147,33.661C106.534,24.341 97.228,17.244 86.456,13.338C75.089,9.216 62.696,8.868 51.116,12.345C39.536,15.822 29.385,22.939 22.168,32.641C15.33,41.834 11.472,52.884 11.086,64.305C11.051,65.352 10.205,66.202 9.158,66.202L3.028,66.202Z" style="fill:rgb(242,242,242);fill-rule:nonzero;stroke:white;stroke-width:24px;"/>
    </g>
</svg>
