<?xml version="1.0" encoding="UTF-8" standalone="no"?>
<!DOCTYPE svg PUBLIC "-//W3C//DTD SVG 1.1//EN" "http://www.w3.org/Graphics/SVG/1.1/DTD/svg11.dtd">
<svg width="100%" height="100%" viewBox="0 0 944 614" version="1.1" xmlns="http://www.w3.org/2000/svg" xmlns:xlink="http://www.w3.org/1999/xlink" xml:space="preserve" xmlns:serif="http://www.serif.com/" style="fill-rule:evenodd;clip-rule:evenodd;stroke-linecap:square;stroke-miterlimit:2;">
    <g transform="matrix(1,0,0,1,-28,-193)">
        <g id="_80" serif:id="80" transform="matrix(2.02565e-16,-3.30813,3.26478,1.9991e-16,50.155,1752.95)">
            <path d="M315,7.2C393.338,7.2 457.8,71.662 457.8,150C457.8,195.624 435.935,238.59 399.051,265.444C396.435,267.348 393.281,268.375 390.046,268.375C381.652,268.375 374.746,261.468 374.746,253.075C374.746,248.186 377.088,243.583 381.04,240.706C410.02,219.606 427.2,185.847 427.2,150C427.2,88.449 376.551,37.8 315,37.8C306.607,37.8 299.7,30.893 299.7,22.5C299.7,14.107 306.607,7.2 315,7.2" style="fill:white;fill-rule:nonzero;stroke:white;stroke-width:12.17px;"/>
        </g>
    </g>
</svg>
