<?xml version="1.0" encoding="UTF-8" standalone="no"?>
<!DOCTYPE svg PUBLIC "-//W3C//DTD SVG 1.1//EN" "http://www.w3.org/Graphics/SVG/1.1/DTD/svg11.dtd">
<svg width="100%" height="100%" viewBox="0 0 954 568" version="1.1" xmlns="http://www.w3.org/2000/svg" xmlns:xlink="http://www.w3.org/1999/xlink" xml:space="preserve" xmlns:serif="http://www.serif.com/" style="fill-rule:evenodd;clip-rule:evenodd;stroke-miterlimit:2;">
    <g transform="matrix(1,0,0,1,-23,-216)">
        <g id="_100" serif:id="100" transform="matrix(1.85241e-16,-3.02521,3.02521,1.85241e-16,46.2185,1645.8)">
            <path d="M315,7.2C393.338,7.2 457.8,71.662 457.8,150C457.8,228.284 393.427,292.722 315.143,292.8C315.138,292.8 315.133,292.8 315.127,292.8C306.734,292.8 299.827,285.893 299.827,277.5C299.827,269.112 306.725,262.208 315.112,262.2C376.621,262.138 427.2,211.509 427.2,150C427.2,88.449 376.551,37.8 315,37.8C306.607,37.8 299.7,30.893 299.7,22.5C299.7,14.107 306.607,7.2 315,7.2" style="fill:white;fill-rule:nonzero;stroke:white;stroke-width:13.22px;"/>
        </g>
    </g>
</svg>
