<?xml version="1.0" encoding="UTF-8" standalone="no"?>
<!DOCTYPE svg PUBLIC "-//W3C//DTD SVG 1.1//EN" "http://www.w3.org/Graphics/SVG/1.1/DTD/svg11.dtd">
<svg width="100%" height="100%" viewBox="0 0 60 61" version="1.1" xmlns="http://www.w3.org/2000/svg" xmlns:xlink="http://www.w3.org/1999/xlink" xml:space="preserve" xmlns:serif="http://www.serif.com/" style="fill-rule:evenodd;clip-rule:evenodd;stroke-linejoin:round;stroke-miterlimit:2;">
    <path d="M8.173,11.567L22.461,11.567C22.945,11.567 23.337,11.175 23.337,10.691C23.337,10.207 22.945,9.815 22.461,9.815L8.173,9.815C7.689,9.815 7.297,10.207 7.297,10.691C7.297,11.175 7.689,11.567 8.173,11.567Z" style="fill:white;fill-rule:nonzero;"/>
    <path d="M8.173,15.807L22.461,15.807C22.945,15.807 23.337,15.415 23.337,14.931C23.337,14.447 22.945,14.055 22.461,14.055L8.173,14.055C7.689,14.055 7.297,14.447 7.297,14.931C7.297,15.415 7.689,15.807 8.173,15.807Z" style="fill:white;fill-rule:nonzero;"/>
    <path d="M8.173,20.047L15.317,20.047C15.801,20.047 16.193,19.655 16.193,19.171C16.193,18.687 15.801,18.295 15.317,18.295L8.173,18.295C7.689,18.295 7.297,18.687 7.297,19.171C7.297,19.655 7.689,20.047 8.173,20.047Z" style="fill:white;fill-rule:nonzero;"/>
    <path d="M58.723,52.92C59.207,52.92 59.599,52.528 59.599,52.044L59.599,50.885C59.599,47.508 57.825,44.454 55.094,42.717C53.675,41.573 50.227,41.105 49.908,41.009L48.359,40.692C47.546,40.526 46.929,39.803 46.929,38.94L46.929,37.591C47.335,37.335 47.729,37.045 48.108,36.718C49.403,35.602 50.248,34.004 50.558,32.128L50.771,32.128C52.549,32.128 53.996,30.681 53.996,28.903C53.996,27.775 53.422,26.762 52.493,26.18L52.493,23.139C52.493,17.552 47.534,16.866 46.373,16.782C44.973,16.03 43.429,15.696 42.129,15.719L42.129,6.011C43.212,5.603 43.985,4.557 43.985,3.333C43.985,1.756 42.702,0.473 41.125,0.473L3.797,0.473C2.22,0.473 0.937,1.756 0.937,3.333C0.937,4.557 1.71,5.603 2.793,6.011L2.793,27.618C2.793,28.818 3.769,29.794 4.969,29.794L13.617,29.794C14.101,29.794 14.493,29.402 14.493,28.918C14.493,28.435 14.101,28.042 13.617,28.042L4.969,28.042C4.735,28.042 4.545,27.852 4.545,27.618L4.545,6.193L40.377,6.193L40.377,15.917C39.648,16.072 38.944,16.317 38.271,16.653L38.271,11.955C38.271,10.775 37.311,9.815 36.131,9.815L28.503,9.815C27.323,9.815 26.362,10.775 26.362,11.955L26.362,17.907C26.362,19.087 27.323,20.047 28.503,20.047L32.563,20.047C32.155,20.86 31.901,21.874 31.901,23.139L31.901,26.18C31.217,26.609 30.726,27.271 30.515,28.042L22.248,28.042C21.764,28.042 21.372,28.435 21.372,28.918C21.372,29.402 21.764,29.794 22.248,29.794L30.524,29.794C30.912,31.14 32.154,32.128 33.623,32.128L33.838,32.128C34.14,34.017 34.972,35.587 36.285,36.718C36.658,37.04 37.045,37.325 37.444,37.579L37.444,38.94C37.444,39.789 36.841,40.523 36.015,40.692C35.675,40.762 32.873,41.335 32.507,41.41C30.116,41.899 27.983,43.292 26.571,45.274L25.274,41.411C25.127,40.974 24.826,40.633 24.45,40.427L24.563,38.899C24.638,38.108 24.388,37.308 23.876,36.701L21.548,33.863C21.237,33.483 20.786,33.256 20.304,33.228L17.232,24.076C17.078,23.617 16.582,23.37 16.123,23.524C15.664,23.678 15.417,24.174 15.571,24.633L18.721,34.017L17.685,35.339C17.455,35.633 17.317,35.985 17.287,36.356C17.294,37.362 16.784,38.65 17.743,40.058C18.101,40.584 18.79,41.366 19.363,41.99C19.222,42.303 19.169,42.66 19.234,43.023L21.701,56.995C22.037,58.895 23.68,60.274 25.61,60.274L57.557,60.274C58.683,60.274 59.599,59.358 59.599,58.232L59.599,56.139C59.599,55.655 59.207,55.263 58.723,55.263C58.239,55.263 57.847,55.655 57.847,56.139L57.847,58.232C57.847,58.392 57.717,58.522 57.557,58.522L53.973,58.522L53.973,50.984C53.973,47.557 54.886,45.249 54.995,44.81C56.75,46.28 57.847,48.482 57.847,50.885L57.847,52.044C57.847,52.528 58.239,52.92 58.723,52.92ZM3.797,2.225L41.125,2.225C41.736,2.225 42.233,2.722 42.233,3.333C42.233,3.906 41.796,4.379 41.238,4.436C41.213,4.436 41.188,4.437 41.163,4.439C41.151,4.44 41.138,4.441 41.125,4.441L3.797,4.441C3.784,4.441 3.771,4.44 3.759,4.439C3.734,4.437 3.709,4.436 3.684,4.436C3.126,4.379 2.689,3.906 2.689,3.333C2.689,2.722 3.186,2.225 3.797,2.225ZM45.577,44.756L43.819,43.646L46.663,41.824C47.048,42.099 47.484,42.294 47.955,42.397L45.577,44.756ZM50.771,30.376L50.688,30.376L50.688,27.43C50.74,27.434 50.981,27.407 51.301,27.531C51.874,27.753 52.244,28.291 52.244,28.903C52.244,29.715 51.583,30.376 50.771,30.376ZM50.741,23.139L50.741,25.678C50.07,25.677 49.971,25.681 49.879,25.674C49.422,25.631 49.063,25.245 49.062,24.776L49.06,21.892C49.06,21.886 49.06,21.88 49.06,21.874C49.039,20.877 48.793,19.92 48.346,19.051C50.029,19.829 50.741,21.285 50.741,23.139ZM28.114,17.907L28.114,11.955C28.114,11.741 28.289,11.567 28.503,11.567L36.131,11.567C36.345,11.567 36.519,11.741 36.519,11.955L36.519,17.04C35.732,17.251 34.796,17.626 33.973,18.295L28.503,18.295C28.289,18.295 28.114,18.121 28.114,17.907ZM35.334,21.874C35.334,21.88 35.334,21.886 35.334,21.892L35.331,24.776C35.331,25.274 34.927,25.678 34.431,25.678L33.653,25.678L33.653,23.139C33.653,21.3 34.352,19.836 36.048,19.051C35.601,19.92 35.355,20.877 35.334,21.874ZM32.151,28.919C32.151,28.919 32.151,28.918 32.151,28.919C32.151,28.913 32.15,28.908 32.15,28.903C32.15,28.291 32.52,27.752 33.093,27.531C33.266,27.464 33.444,27.43 33.623,27.43L33.708,27.43L33.71,30.376L33.623,30.376C32.816,30.376 32.159,29.724 32.151,28.919ZM35.463,30.677L35.46,27.222C36.412,26.819 37.083,25.876 37.084,24.778L37.086,21.903C37.117,20.539 37.7,19.32 38.769,18.37C40.906,17.188 43.449,17.166 45.627,18.371C46.695,19.321 47.277,20.54 47.309,21.903L47.311,24.778C47.312,25.876 47.983,26.821 48.937,27.223L48.937,30.687C48.937,30.696 48.937,30.705 48.937,30.713C48.89,32.497 48.327,34.217 46.965,35.391C44.173,37.797 40.306,37.871 37.429,35.391C36.063,34.214 35.503,32.479 35.463,30.677ZM45.177,38.451C45.201,38.747 45.068,39.519 45.527,40.471L42.187,42.611L38.847,40.471C39.306,39.518 39.173,38.745 39.196,38.444C41.142,39.15 43.207,39.16 45.177,38.451ZM37.711,41.824L40.555,43.646L38.797,44.756L36.419,42.397C36.889,42.294 37.326,42.099 37.711,41.824ZM18.911,38.014C19.045,36.457 19.014,36.484 19.064,36.419L20.192,34.975C20.193,34.975 20.193,34.974 20.194,34.974L22.526,37.817C22.528,37.82 22.532,37.824 22.535,37.828C22.747,38.079 22.851,38.41 22.818,38.737C22.817,38.745 22.817,38.752 22.816,38.76L22.696,40.397L20.778,40.939C20.277,40.397 19.522,39.558 19.191,39.072C18.98,38.763 18.881,38.387 18.911,38.014ZM23.427,56.691L20.959,42.718C20.958,42.713 20.961,42.708 20.966,42.707L23.601,41.962C23.606,41.96 23.612,41.964 23.613,41.968C23.999,43.12 26.747,51.305 26.993,52.038C27.147,52.497 27.644,52.743 28.102,52.59C28.561,52.436 28.808,51.939 28.654,51.48L27.306,47.464C27.803,46.426 28.514,45.523 29.376,44.804C29.413,44.952 30.4,47.468 30.4,50.984L30.4,58.522L25.61,58.522C24.532,58.522 23.614,57.752 23.427,56.691ZM52.221,50.984L52.221,58.522L32.152,58.522L32.152,50.984C32.152,47.066 30.949,44.036 30.891,43.81C31.507,43.5 32.167,43.268 32.858,43.126L34.357,42.819L37.569,46.006C38.147,46.58 39.033,46.679 39.725,46.242L42.187,44.687L44.649,46.242C45.339,46.678 46.226,46.581 46.805,46.006L50.016,42.819L51.515,43.126C52.211,43.269 52.87,43.502 53.482,43.811C53.393,44.16 52.221,46.965 52.221,50.984Z" style="fill:white;fill-rule:nonzero;"/>
</svg>
