<?xml version="1.0" encoding="UTF-8" standalone="no"?>
<!DOCTYPE svg PUBLIC "-//W3C//DTD SVG 1.1//EN" "http://www.w3.org/Graphics/SVG/1.1/DTD/svg11.dtd">
<svg width="100%" height="100%" viewBox="0 0 84 66" version="1.1" xmlns="http://www.w3.org/2000/svg" xmlns:xlink="http://www.w3.org/1999/xlink" xml:space="preserve" xmlns:serif="http://www.serif.com/" style="fill-rule:evenodd;clip-rule:evenodd;stroke-linejoin:round;stroke-miterlimit:2;">
    <g opacity="0.8">
        <path d="M69.468,34.686L74.883,35.979C79.991,37.199 83.558,41.719 83.558,46.971L83.558,57.883C83.558,58.78 82.831,59.507 81.935,59.507L68.921,59.507L68.921,64.377C68.921,65.273 68.194,66 67.297,66L16.67,66C15.773,66 15.046,65.273 15.046,64.377L15.046,59.507L2.065,59.507C1.169,59.507 0.442,58.78 0.442,57.883L0.442,46.971C0.442,41.719 4.009,37.199 9.118,35.979L14.533,34.686L14.533,32.538C11.527,30.638 9.525,27.288 9.525,23.476L9.525,17.427C9.525,11.519 14.332,6.712 20.24,6.712C23.44,6.712 26.316,8.125 28.281,10.357C29.991,4.384 35.502,0 42.017,0C48.522,0 54.024,4.37 55.745,10.328C57.709,8.113 60.574,6.712 63.761,6.712C69.669,6.712 74.475,11.519 74.475,17.427L74.475,23.476C74.475,27.287 72.474,30.638 69.468,32.538L69.468,34.686ZM27.231,62.753L56.769,62.753L56.769,55.609C56.769,54.712 57.496,53.985 58.392,53.985C59.289,53.985 60.016,54.712 60.016,55.609L60.016,62.753L65.674,62.753L65.674,55.437C65.674,49.927 61.932,45.185 56.573,43.905L48.612,42.003L43.48,53.674C43.221,54.263 42.637,54.644 41.993,54.644C41.35,54.644 40.767,54.263 40.508,53.674L35.37,41.986L27.386,43.9C22.032,45.183 18.293,49.923 18.293,55.429L18.293,62.753L23.985,62.753L23.985,55.609C23.985,54.712 24.712,53.985 25.608,53.985C26.504,53.985 27.231,54.712 27.231,55.609L27.231,62.753ZM71.229,17.427C71.229,13.309 67.878,9.959 63.761,9.959C60.372,9.959 57.504,12.227 56.594,15.325C59.631,17.071 63.078,17.992 66.585,17.992L71.229,17.992L71.229,17.427ZM56.303,18.847C56.303,18.847 56.299,23.046 56.293,23.211L56.293,23.476C56.293,27.594 59.643,30.944 63.761,30.944C67.878,30.944 71.229,27.594 71.229,23.476L71.229,21.238L66.585,21.238C63.012,21.238 59.494,20.416 56.303,18.847ZM42.017,3.247C35.93,3.247 30.977,8.199 30.977,14.286L30.977,15.71L35.545,15.71C39.19,15.71 42.623,14.108 44.964,11.315C45.474,10.707 46.347,10.556 47.031,10.958L53.056,14.498L53.056,14.286C53.056,8.199 48.104,3.247 42.017,3.247ZM12.772,17.427L12.772,17.992L17.415,17.992C20.922,17.992 24.369,17.071 27.406,15.325C26.496,12.227 23.628,9.959 20.239,9.959C16.122,9.959 12.772,13.309 12.772,17.427ZM12.772,21.238L12.772,23.476C12.772,27.594 16.122,30.944 20.239,30.944C24.357,30.944 27.707,27.594 27.707,23.476L27.707,18.842C24.513,20.414 20.991,21.238 17.415,21.238L12.772,21.238ZM15.046,56.26L15.046,55.429C15.046,51.869 16.275,48.562 18.376,45.952L15.017,37.908L9.872,39.137C6.231,40.007 3.689,43.228 3.689,46.971L3.689,56.26L6.935,56.26L6.935,49.047C6.935,48.151 7.662,47.424 8.559,47.424C9.455,47.424 10.182,48.151 10.182,49.047L10.182,56.26L15.046,56.26ZM17.774,36.084L20.24,41.99L22.696,36.109C22.691,36.058 22.686,36.007 22.686,35.956C22.686,35.925 22.687,35.895 22.689,35.864L22.689,33.905C21.901,34.09 21.082,34.191 20.239,34.191C19.393,34.191 18.57,34.089 17.779,33.902L17.779,35.967C17.779,36.006 17.777,36.045 17.774,36.084ZM23.885,41.686C24.755,41.292 25.671,40.972 26.63,40.742L31.777,39.509C31.401,39.355 31.012,39.229 30.613,39.133L25.466,37.9L23.885,41.686ZM31.369,35.976C32.55,36.259 33.668,36.727 34.687,37.359L34.687,34.97C32.393,33.593 30.514,31.59 29.29,29.199C28.435,30.548 27.287,31.693 25.935,32.545L25.935,34.674L31.369,35.976ZM41.994,48.987L46.048,39.769L46.048,36.418C44.769,36.795 43.416,36.998 42.017,36.998C40.598,36.998 39.228,36.789 37.934,36.403L37.934,39.751L41.994,48.987ZM30.977,22.712C30.977,28.799 35.93,33.751 42.017,33.751C47.976,33.751 52.844,29.004 53.046,23.093L53.046,18.257L46.517,14.422C43.616,17.32 39.689,18.957 35.545,18.957L30.977,18.957L30.977,22.712ZM54.728,29.228C53.495,31.624 51.603,33.628 49.294,35L49.294,37.371C50.319,36.733 51.443,36.26 52.631,35.976L58.065,34.674L58.065,32.545C56.723,31.699 55.582,30.564 54.728,29.228ZM52.193,39.521L57.327,40.748C58.299,40.98 59.228,41.304 60.109,41.706L58.521,37.903L53.387,39.133C52.978,39.231 52.579,39.362 52.193,39.521ZM61.312,35.955C61.312,36.015 61.307,36.074 61.301,36.133L63.746,41.99L66.225,36.055C66.224,36.049 66.224,36.044 66.224,36.038C66.222,36.015 66.221,35.991 66.221,35.967L66.221,33.902C65.43,34.089 64.607,34.191 63.761,34.191C62.918,34.191 62.099,34.09 61.311,33.905L61.311,35.91C61.312,35.925 61.312,35.94 61.312,35.955ZM77.065,56.26L80.311,56.26L80.311,46.971C80.311,43.228 77.769,40.007 74.129,39.137L68.97,37.905L65.601,45.972C67.696,48.579 68.921,51.882 68.921,55.437L68.921,56.26L73.818,56.26L73.818,49.047C73.818,48.151 74.545,47.424 75.441,47.424C76.338,47.424 77.065,48.151 77.065,49.047L77.065,56.26Z" style="fill:white;"/>
    </g>
</svg>
