<svg width="841" height="791" viewBox="0 0 841 791" fill="none" xmlns="http://www.w3.org/2000/svg">
<g opacity="0.25" filter="url(#filter0_b_1885_1028)">
<rect x="483.758" y="144.816" width="229.581" height="261.285" rx="5.93422" fill="white"/>
</g>
<g opacity="0.7" clip-path="url(#clip0_1885_1028)" filter="url(#filter1_i_1885_1028)">
<path d="M587.39 180.289H618.996C620.066 180.289 620.933 179.421 620.933 178.351C620.933 177.281 620.066 176.413 618.996 176.413H587.39C586.32 176.413 585.453 177.281 585.453 178.351C585.453 179.421 586.32 180.289 587.39 180.289Z" fill="white"/>
<path d="M587.39 189.668H618.996C620.066 189.668 620.933 188.8 620.933 187.73C620.933 186.66 620.066 185.792 618.996 185.792H587.39C586.32 185.792 585.453 186.66 585.453 187.73C585.453 188.8 586.32 189.668 587.39 189.668Z" fill="white"/>
<path d="M587.39 199.047H603.193C604.264 199.047 605.131 198.18 605.131 197.109C605.131 196.039 604.264 195.172 603.193 195.172H587.39C586.32 195.172 585.453 196.039 585.453 197.109C585.453 198.18 586.32 199.047 587.39 199.047Z" fill="white"/>
<path d="M699.209 271.763C700.279 271.763 701.146 270.895 701.146 269.825V267.262C701.146 259.792 697.222 253.036 691.181 249.194C688.043 246.664 680.416 245.628 679.709 245.416L676.282 244.714C674.485 244.346 673.12 242.747 673.12 240.84V237.855C674.018 237.288 674.889 236.646 675.728 235.923C678.592 233.455 680.461 229.92 681.147 225.771H681.619C685.553 225.771 688.752 222.57 688.752 218.637C688.752 216.141 687.482 213.901 685.429 212.613V205.887C685.429 193.528 674.458 192.01 671.889 191.825C668.793 190.162 665.377 189.423 662.502 189.472V167.998C664.898 167.096 666.608 164.782 666.608 162.075C666.607 158.586 663.769 155.748 660.281 155.748H577.71C574.222 155.748 571.384 158.586 571.384 162.075C571.384 164.782 573.093 167.097 575.489 167.998V215.794C575.489 218.448 577.649 220.608 580.303 220.608H599.432C600.503 220.608 601.37 219.741 601.37 218.671C601.37 217.601 600.503 216.733 599.432 216.733H580.303C579.785 216.733 579.364 216.312 579.364 215.794V168.402H658.627V189.91C657.013 190.254 655.457 190.797 653.968 191.538V181.148C653.968 178.537 651.844 176.413 649.233 176.413H632.36C629.75 176.413 627.626 178.537 627.626 181.148V194.312C627.626 196.923 629.75 199.047 632.36 199.047H641.341C640.44 200.845 639.876 203.087 639.876 205.887V212.613C638.364 213.562 637.279 215.028 636.812 216.733H618.524C617.454 216.733 616.586 217.601 616.586 218.671C616.586 219.741 617.454 220.609 618.524 220.609H636.832C637.69 223.586 640.437 225.771 643.686 225.771H644.161C644.831 229.949 646.671 233.421 649.575 235.923C650.401 236.635 651.257 237.267 652.139 237.828V240.84C652.139 242.717 650.805 244.34 648.977 244.715C648.226 244.868 642.027 246.137 641.218 246.303C635.928 247.385 631.211 250.466 628.087 254.85L625.218 246.304C624.893 245.339 624.226 244.584 623.396 244.129L623.645 240.748C623.811 238.999 623.258 237.229 622.126 235.886L616.976 229.607C616.288 228.769 615.291 228.265 614.224 228.203L607.429 207.959C607.088 206.944 605.991 206.398 604.975 206.738C603.961 207.079 603.414 208.177 603.755 209.192L610.722 229.948L608.431 232.874C607.922 233.524 607.618 234.302 607.552 235.124C607.566 237.348 606.438 240.198 608.559 243.312C609.351 244.476 610.875 246.205 612.144 247.586C611.831 248.279 611.715 249.068 611.856 249.871L617.315 280.778C618.057 284.98 621.693 288.03 625.961 288.03H696.629C699.12 288.03 701.146 286.004 701.146 283.513V278.883C701.146 277.813 700.279 276.946 699.208 276.946C698.138 276.946 697.271 277.813 697.271 278.883V283.513C697.271 283.867 696.983 284.155 696.629 284.155H688.701V267.481C688.701 259.9 690.721 254.795 690.963 253.823C694.844 257.075 697.271 261.947 697.271 267.262V269.825C697.271 270.895 698.138 271.763 699.209 271.763ZM577.71 159.624H660.281C661.632 159.624 662.732 160.723 662.732 162.075C662.732 163.342 661.766 164.388 660.531 164.514C660.476 164.515 660.42 164.517 660.366 164.522C660.338 164.523 660.309 164.526 660.281 164.526H577.71C577.682 164.526 577.653 164.523 577.625 164.522C577.571 164.517 577.516 164.515 577.46 164.514C576.226 164.388 575.259 163.342 575.259 162.075C575.259 160.723 576.359 159.624 577.71 159.624ZM670.129 253.705L666.24 251.248L672.531 247.219C673.382 247.827 674.348 248.257 675.389 248.486L670.129 253.705ZM681.619 221.895H681.436V215.379C681.55 215.388 682.084 215.328 682.792 215.602H682.792C684.059 216.092 684.877 217.284 684.877 218.637C684.877 220.433 683.415 221.895 681.619 221.895ZM681.553 205.887V211.503C680.068 211.5 679.849 211.509 679.646 211.494C678.635 211.4 677.84 210.546 677.839 209.509L677.834 203.128C677.834 203.114 677.834 203.101 677.834 203.087C677.787 200.883 677.243 198.766 676.255 196.844C679.978 198.564 681.553 201.786 681.553 205.887ZM631.501 194.312V181.148C631.501 180.674 631.887 180.288 632.361 180.288H649.234C649.707 180.288 650.093 180.674 650.093 181.148V192.395C648.351 192.861 646.282 193.693 644.462 195.171H632.361C631.887 195.171 631.501 194.786 631.501 194.312ZM647.471 203.087C647.471 203.101 647.47 203.114 647.47 203.128L647.466 209.509C647.465 210.609 646.571 211.503 645.473 211.503H643.752V205.887C643.752 201.819 645.299 198.58 649.05 196.843C648.061 198.766 647.518 200.883 647.471 203.087ZM640.43 218.671C640.43 218.671 640.43 218.671 640.43 218.67C640.43 218.659 640.428 218.648 640.428 218.636C640.428 217.282 641.247 216.091 642.514 215.601C642.896 215.454 643.29 215.379 643.686 215.379H643.875L643.879 221.895H643.686C641.901 221.895 640.449 220.452 640.43 218.671ZM647.756 222.561L647.75 214.919C649.857 214.028 651.34 211.94 651.341 209.512L651.346 203.152C651.416 200.135 652.704 197.439 655.069 195.337C659.796 192.723 665.423 192.674 670.24 195.34C672.603 197.441 673.89 200.137 673.96 203.152L673.964 209.512C673.966 211.942 675.451 214.031 677.561 214.921V222.584C677.561 222.603 677.561 222.622 677.561 222.641C677.458 226.586 676.211 230.391 673.198 232.988C667.023 238.31 658.47 238.473 652.105 232.988C649.085 230.385 647.845 226.547 647.756 222.561ZM669.245 239.757C669.296 240.412 669.004 242.121 670.018 244.226L662.63 248.958L655.241 244.226C656.256 242.118 655.962 240.408 656.014 239.741C660.318 241.303 664.887 241.326 669.245 239.757ZM652.728 247.219L659.019 251.248L655.131 253.705L649.871 248.486C650.911 248.257 651.877 247.827 652.728 247.219ZM611.143 238.79C611.44 235.347 611.37 235.405 611.482 235.263L613.977 232.068C613.978 232.068 613.979 232.067 613.981 232.066L619.138 238.354C619.145 238.362 619.152 238.37 619.158 238.378C619.629 238.933 619.857 239.667 619.786 240.391C619.784 240.407 619.783 240.424 619.781 240.44L619.515 244.063L615.274 245.261C614.165 244.063 612.495 242.205 611.762 241.13C611.296 240.446 611.076 239.615 611.143 238.79ZM621.131 280.104L615.673 249.197C615.671 249.185 615.678 249.174 615.69 249.171L621.516 247.524C621.529 247.52 621.541 247.527 621.544 247.538C622.399 250.084 628.476 268.191 629.021 269.812C629.362 270.828 630.461 271.373 631.474 271.033C632.489 270.692 633.035 269.594 632.695 268.579L629.712 259.694C630.813 257.399 632.384 255.401 634.292 253.81C634.374 254.139 636.558 259.703 636.558 267.481V284.155H625.961C623.577 284.155 621.546 282.451 621.131 280.104ZM684.826 267.481V284.155H640.434V267.481C640.434 258.813 637.771 252.112 637.642 251.611C639.005 250.925 640.466 250.412 641.995 250.099L645.31 249.42L652.414 256.469C653.694 257.739 655.654 257.957 657.184 256.991L662.63 253.551L668.076 256.991C669.602 257.955 671.564 257.741 672.845 256.469L679.949 249.42L683.265 250.099C684.804 250.414 686.263 250.93 687.616 251.614C687.417 252.387 684.826 258.591 684.826 267.481Z" fill="white"/>
</g>
<g filter="url(#filter2_bd_1885_1028)">
<rect x="484.305" y="145.363" width="228.487" height="260.191" rx="4.91958" stroke="url(#paint0_linear_1885_1028)" stroke-width="1.09324"/>
</g>
<g filter="url(#filter3_b_1885_1028)">
<rect x="-0.000244141" y="193.822" width="195.88" height="227.138" rx="8.33532" fill="white"/>
<rect x="1.04167" y="194.864" width="193.796" height="225.054" rx="7.29341" stroke="url(#paint1_linear_1885_1028)" stroke-width="2.08383"/>
</g>
<g opacity="0.7" clip-path="url(#clip1_1885_1028)">
<path d="M103.064 232.742C103.064 232.742 103.064 232.742 103.064 232.742L103.061 232.739L97.3354 231.922C96.5307 231.807 95.9712 231.062 96.0858 230.257C96.1408 229.871 96.3474 229.522 96.6598 229.288L101.287 225.817C101.937 225.329 102.069 224.407 101.581 223.757L96.2831 216.692C95.7953 216.042 94.8729 215.91 94.2226 216.398L89.5968 219.868C88.9492 220.36 88.026 220.233 87.5347 219.585C87.296 219.271 87.1937 218.874 87.2508 218.483L88.0691 212.758C88.1844 211.953 87.6257 211.208 86.8212 211.092C86.8207 211.092 86.8201 211.092 86.8195 211.092L78.0831 209.844C77.2786 209.728 76.5326 210.287 76.4171 211.092C76.4171 211.092 76.4171 211.092 76.4171 211.092L75.5988 216.817C75.4841 217.622 74.7389 218.181 73.9342 218.067C73.5475 218.012 73.1987 217.805 72.9643 217.493L69.4953 212.866C69.0076 212.215 68.0852 212.083 67.4348 212.571L63.0122 215.89C61.0113 215.677 58.9935 215.677 56.9926 215.89C43.889 217.388 33.6133 227.838 32.336 240.965C32.2962 241.381 32.2815 241.795 32.2609 242.208H31.8194C31.121 242.21 30.5196 242.702 30.38 243.386L29.363 248.222L25.2891 245.412C24.7045 245.009 23.9149 245.081 23.4126 245.583L18.9973 249.998C18.4958 250.5 18.4241 251.289 18.8266 251.873L21.623 255.94L16.7852 256.957C16.1086 257.105 15.6269 257.705 15.6284 258.398V264.285C15.6281 264.981 16.1158 265.582 16.797 265.726L21.6347 266.743L18.8384 270.809C18.4358 271.394 18.5076 272.182 19.0091 272.684L23.4244 277.1C23.9266 277.602 24.7163 277.674 25.3009 277.27L29.3674 274.467L30.3844 279.304C30.5241 279.989 31.1255 280.48 31.8238 280.482H37.7109C38.407 280.482 39.0083 279.994 39.1518 279.313L40.1688 274.475L44.2353 277.272C44.8197 277.674 45.6083 277.603 46.1103 277.101L48.396 274.808V279.003C48.4026 281.096 49.5243 283.028 51.3395 284.071V292.249C51.3395 295.5 53.9753 298.136 57.2266 298.136H63.1137C66.365 298.136 69.0008 295.5 69.0008 292.249V284.071C70.816 283.028 71.9377 281.096 71.9443 279.003V273.177C71.9843 270.726 73.2665 268.463 75.3486 267.17C76.5699 266.377 77.7282 265.491 78.8131 264.52L76.8498 262.327C75.8793 263.197 74.8424 263.99 73.7487 264.698C70.8263 266.533 69.0374 269.727 69.0008 273.177V279.003C69.0008 280.628 67.683 281.946 66.0573 281.946H54.2831C52.6573 281.946 51.3395 280.628 51.3395 279.003V273.055C51.3055 269.67 49.5447 266.537 46.6711 264.748C35.006 257.419 31.4914 242.02 38.8212 230.355C43.3689 223.118 51.3059 218.713 59.8537 218.682C59.8318 218.734 59.8125 218.788 59.7963 218.842C59.7417 219.229 59.8429 219.621 60.0774 219.933L63.5464 224.559C63.9121 225.032 63.9473 225.682 63.6347 226.192C63.3337 226.706 62.7518 226.986 62.1629 226.9L56.4377 226.082C55.633 225.967 54.8874 226.525 54.7719 227.33C54.7719 227.33 54.7717 227.331 54.7717 227.332L53.5222 236.072C53.4068 236.877 53.9655 237.623 54.77 237.738C54.7706 237.738 54.7711 237.739 54.7717 237.739L60.4969 238.557C61.3016 238.671 61.861 239.417 61.7464 240.221C61.6914 240.608 61.4848 240.957 61.1724 241.191L56.5466 244.66C55.8963 245.148 55.7646 246.07 56.2523 246.721L61.5507 253.785C62.0384 254.436 62.9608 254.567 63.6112 254.08L68.2384 250.611C68.8893 250.124 69.8117 250.257 70.2985 250.908C70.5314 251.219 70.6317 251.611 70.5771 251.996L69.7602 257.721C69.6447 258.525 70.2032 259.271 71.0079 259.387C71.0081 259.387 71.0081 259.387 71.0083 259.387L79.7506 260.636C79.8194 260.645 79.8888 260.65 79.9581 260.65C80.6909 260.651 81.3125 260.112 81.4167 259.387L82.2335 253.662C82.3481 252.857 83.0934 252.297 83.8981 252.412C84.2848 252.467 84.6336 252.674 84.868 252.986L88.3384 257.612C88.8261 258.262 89.7486 258.394 90.3989 257.906L97.4634 252.608C98.1138 252.12 98.2455 251.198 97.7578 250.547L94.2888 245.922C93.9247 245.447 93.8896 244.798 94.2005 244.288C94.495 243.768 95.0823 243.486 95.6723 243.581L101.397 244.398C102.202 244.514 102.948 243.955 103.064 243.151C103.064 243.15 103.064 243.15 103.064 243.15L104.312 234.408C104.427 233.603 103.869 232.857 103.064 232.742ZM54.2831 284.89H66.0573V287.833H54.2831V284.89ZM54.2831 290.777H66.0573V292.249C66.0573 293.874 64.7395 295.192 63.1137 295.192H57.2266C55.6009 295.192 54.2831 293.874 54.2831 292.249V290.777ZM42.5663 265.396C43.3699 266.053 44.2095 266.665 45.0815 267.228C46.4722 268.107 47.519 269.437 48.0472 270.995L44.8902 274.146L41.8333 272.038C40.4948 271.116 38.6618 271.453 37.7392 272.792C37.5181 273.113 37.3628 273.474 37.2826 273.856L36.5114 277.531H33.013L32.2418 273.862C31.907 272.271 30.346 271.253 28.7552 271.587C28.3738 271.668 28.0121 271.823 27.6911 272.044L24.6327 274.146L21.9512 271.47L24.0573 268.415C24.9806 267.077 24.6443 265.244 23.3063 264.32C22.9851 264.099 22.623 263.943 22.2411 263.862L18.572 263.09V259.593L22.2411 258.82C23.8313 258.483 24.8472 256.92 24.51 255.33C24.43 254.953 24.2767 254.595 24.0587 254.277L21.9512 251.213L24.6327 248.537L27.6925 250.644C29.0317 251.566 30.8646 251.227 31.7861 249.888C32.0069 249.568 32.1618 249.206 32.2418 248.825L32.4994 247.601C32.7352 249.297 33.1258 250.967 33.6665 252.592C28.8238 253.169 25.366 257.563 25.9433 262.406C26.5206 267.248 30.9146 270.706 35.7573 270.129C38.6725 269.781 41.2244 268.007 42.5663 265.396ZM40.2806 263.322C39.1816 266.377 35.8143 267.963 32.7595 266.864C29.7046 265.765 28.1192 262.398 29.218 259.343C30.0588 257.006 32.2777 255.449 34.7613 255.454C34.7804 255.454 34.7981 255.454 34.8172 255.454C36.1707 258.373 38.0191 261.034 40.2806 263.322ZM100.35 241.272L96.0814 240.663C93.6673 240.318 91.431 241.996 91.0862 244.41C90.9206 245.569 91.2224 246.746 91.9251 247.683L94.511 251.132L89.8014 254.664L87.214 251.217C85.751 249.266 82.9836 248.87 81.0327 250.333C80.0959 251.036 79.4765 252.081 79.3106 253.241L78.7145 257.515L72.8877 256.682L73.4971 252.414C73.8427 250 72.166 247.763 69.7521 247.417C68.5922 247.251 67.414 247.553 66.4767 248.256L63.0283 250.842L59.4961 246.132L62.943 243.545C64.894 242.082 65.2897 239.314 63.8268 237.363C63.1244 236.427 62.0785 235.807 60.9193 235.641L56.6511 235.032L57.4842 229.205L61.7523 229.814C64.1662 230.16 66.4033 228.483 66.7488 226.07C66.9149 224.91 66.6132 223.731 65.9101 222.794L63.3153 219.343L68.025 215.811L70.6124 219.259C72.0753 221.21 74.8428 221.606 76.7937 220.143C77.7304 219.44 78.3499 218.394 78.5158 217.235L79.1251 212.967L84.9519 213.799L84.3426 218.067C83.9978 220.481 85.6752 222.717 88.0893 223.062C89.2485 223.228 90.4261 222.926 91.3629 222.223L94.8113 219.637L98.3435 224.347L94.8952 226.934C92.9442 228.397 92.5484 231.165 94.0114 233.115C94.7138 234.052 95.7597 234.672 96.9189 234.838L101.187 235.447L100.35 241.272Z" fill="#1EBCEF"/>
<path d="M78.9151 223.464C72.4124 223.464 67.1409 228.736 67.1409 235.238C67.1409 241.741 72.4124 247.012 78.9151 247.012C85.4177 247.012 90.6892 241.741 90.6892 235.238C90.6819 228.738 85.4148 223.471 78.9151 223.464ZM78.9151 244.069C74.038 244.069 70.0844 240.115 70.0844 235.238C70.0844 230.361 74.038 226.408 78.9151 226.408C83.7921 226.408 87.7457 230.361 87.7457 235.238C87.74 240.113 83.7897 244.063 78.9151 244.069Z" fill="#1EBCEF"/>
<path d="M61.6425 274.587H58.699V279.002H61.6425V274.587Z" fill="#1EBCEF"/>
<path d="M53.7329 260.133C44.6475 256.584 40.1595 246.342 43.7089 237.256C45.0843 233.736 47.5526 230.749 50.7511 228.736L49.1778 226.246C39.5495 232.311 36.6613 245.034 42.727 254.662C45.0762 258.391 48.5591 261.269 52.6644 262.872C56.2983 264.265 58.6978 267.753 58.6987 271.644H61.6423C61.6469 266.538 58.5006 261.96 53.7329 260.133Z" fill="#1EBCEF"/>
<path d="M98.4367 264.285H88.1343V267.228H98.4367V264.285Z" fill="#1EBCEF"/>
<path d="M87.6049 271.984L85.7207 274.245L94.552 281.603L96.4361 279.341L87.6049 271.984Z" fill="#1EBCEF"/>
<path d="M82.2468 276.059H79.3032V286.361H82.2468V276.059Z" fill="#1EBCEF"/>
<path d="M28.905 231.95L17.1316 234.893L17.845 237.747L29.6184 234.804L28.905 231.95Z" fill="#1EBCEF"/>
<path d="M21.2861 217.464L19.5762 219.858L29.8778 227.217L31.5877 224.823L21.2861 217.464Z" fill="#1EBCEF"/>
<path d="M35.0387 209.463L32.187 210.192L35.1972 221.965L38.0489 221.236L35.0387 209.463Z" fill="#1EBCEF"/>
</g>
<path d="M87.0816 295.912V340.103H76.4224V305.881H76.1634L66.281 311.923V302.688L77.1776 295.912H87.0816ZM114.113 340.707C110.675 340.707 107.603 340.16 104.899 339.067C102.209 337.959 100.095 336.463 98.5554 334.579C97.0306 332.68 96.2682 330.537 96.2682 328.149C96.2682 326.322 96.7069 324.646 97.5844 323.121C98.4619 321.597 99.6486 320.331 101.145 319.324C102.655 318.302 104.338 317.648 106.194 317.36V317.015C103.763 316.569 101.77 315.44 100.217 313.627C98.6776 311.815 97.908 309.693 97.908 307.262C97.908 304.96 98.6057 302.911 100.001 301.112C101.411 299.314 103.331 297.897 105.762 296.862C108.208 295.826 110.991 295.308 114.113 295.308C117.234 295.308 120.01 295.826 122.442 296.862C124.887 297.897 126.807 299.314 128.203 301.112C129.612 302.911 130.317 304.96 130.317 307.262C130.317 309.707 129.533 311.836 127.965 313.649C126.412 315.447 124.434 316.569 122.032 317.015V317.36C123.873 317.648 125.541 318.302 127.038 319.324C128.548 320.331 129.742 321.597 130.619 323.121C131.511 324.646 131.957 326.322 131.957 328.149C131.957 330.537 131.188 332.68 129.648 334.579C128.109 336.463 125.995 337.959 123.305 339.067C120.629 340.16 117.565 340.707 114.113 340.707ZM114.113 333.133C115.422 333.133 116.572 332.889 117.565 332.4C118.558 331.896 119.334 331.199 119.895 330.307C120.471 329.415 120.759 328.408 120.759 327.286C120.759 326.135 120.471 325.114 119.895 324.222C119.32 323.33 118.529 322.632 117.522 322.129C116.529 321.611 115.393 321.352 114.113 321.352C112.847 321.352 111.71 321.611 110.703 322.129C109.696 322.632 108.905 323.33 108.33 324.222C107.755 325.114 107.467 326.135 107.467 327.286C107.467 328.408 107.747 329.415 108.308 330.307C108.884 331.184 109.668 331.875 110.66 332.378C111.667 332.882 112.818 333.133 114.113 333.133ZM114.113 313.822C115.235 313.822 116.227 313.591 117.09 313.131C117.968 312.671 118.651 312.031 119.14 311.211C119.644 310.391 119.895 309.463 119.895 308.427C119.895 307.391 119.644 306.478 119.14 305.687C118.651 304.896 117.975 304.277 117.112 303.831C116.249 303.371 115.249 303.141 114.113 303.141C112.991 303.141 111.991 303.371 111.113 303.831C110.236 304.277 109.553 304.896 109.064 305.687C108.574 306.478 108.33 307.391 108.33 308.427C108.33 309.463 108.574 310.391 109.064 311.211C109.567 312.016 110.258 312.656 111.135 313.131C112.012 313.591 113.005 313.822 114.113 313.822Z" fill="#084B7C"/>
<path opacity="0.96" d="M30.585 371.193V357.554H35.6998C36.7477 357.554 37.6268 357.736 38.3372 358.1C39.052 358.464 39.5915 358.974 39.9556 359.632C40.3241 360.284 40.5083 361.046 40.5083 361.916C40.5083 362.791 40.3219 363.55 39.9489 364.194C39.5804 364.833 39.0365 365.328 38.3172 365.679C37.5979 366.025 36.7144 366.198 35.6665 366.198H32.0235V364.147H35.3335C35.9463 364.147 36.448 364.063 36.8387 363.894C37.2294 363.721 37.518 363.47 37.7045 363.141C37.8954 362.808 37.9909 362.4 37.9909 361.916C37.9909 361.432 37.8954 361.019 37.7045 360.677C37.5136 360.331 37.2228 360.069 36.832 359.891C36.4413 359.709 35.9374 359.618 35.3202 359.618H33.0558V371.193H30.585ZM37.6312 365.013L41.0078 371.193H38.2506L34.9339 365.013H37.6312ZM42.7827 371.193V357.554H51.6538V359.625H45.2536V363.328H51.1943V365.399H45.2536V369.122H51.7071V371.193H42.7827ZM55.9262 371.193H53.2888L58.0907 357.554H61.1409L65.9494 371.193H63.3121L59.6691 360.351H59.5625L55.9262 371.193ZM56.0127 365.845H63.2055V367.83H56.0127V365.845ZM67.7459 371.193V357.554H70.2168V369.122H76.2241V371.193H67.7459ZM80.8394 357.554V371.193H78.3686V357.554H80.8394ZM83.262 371.193V369.655L90.255 359.625H83.222V357.554H93.3186V359.092L86.3322 369.122H93.3585V371.193H83.262ZM107.296 364.373C107.296 365.843 107.021 367.102 106.47 368.15C105.924 369.193 105.178 369.992 104.233 370.547C103.291 371.102 102.223 371.38 101.029 371.38C99.8348 371.38 98.7647 371.102 97.819 370.547C96.8778 369.988 96.1318 369.186 95.5813 368.143C95.0352 367.095 94.7621 365.839 94.7621 364.373C94.7621 362.904 95.0352 361.647 95.5813 360.604C96.1318 359.556 96.8778 358.755 97.819 358.2C98.7647 357.645 99.8348 357.367 101.029 357.367C102.223 357.367 103.291 357.645 104.233 358.2C105.178 358.755 105.924 359.556 106.47 360.604C107.021 361.647 107.296 362.904 107.296 364.373ZM104.812 364.373C104.812 363.339 104.65 362.466 104.326 361.756C104.006 361.041 103.562 360.502 102.994 360.138C102.426 359.769 101.771 359.585 101.029 359.585C100.288 359.585 99.6328 359.769 99.0644 360.138C98.4961 360.502 98.0499 361.041 97.7258 361.756C97.4061 362.466 97.2463 363.339 97.2463 364.373C97.2463 365.408 97.4061 366.283 97.7258 366.997C98.0499 367.708 98.4961 368.247 99.0644 368.616C99.6328 368.98 100.288 369.162 101.029 369.162C101.771 369.162 102.426 368.98 102.994 368.616C103.562 368.247 104.006 367.708 104.326 366.997C104.65 366.283 104.812 365.408 104.812 364.373ZM110.724 357.554L114.274 368.289H114.414L117.957 357.554H120.674L115.866 371.193H112.816L108.014 357.554H110.724ZM122.629 371.193H119.992L124.794 357.554H127.844L132.652 371.193H130.015L126.372 360.351H126.265L122.629 371.193ZM122.716 365.845H129.908V367.83H122.716V365.845ZM145.658 357.554V371.193H143.46L137.033 361.903H136.92V371.193H134.449V357.554H136.66L143.08 366.851H143.2V357.554H145.658ZM150.821 357.554V371.193H148.35V357.554H150.821ZM153.496 371.193V357.554H155.967V363.328H162.288V357.554H164.765V371.193H162.288V365.399H155.967V371.193H153.496ZM44.2113 396.193V382.554H49.3261C50.374 382.554 51.2531 382.749 51.9635 383.14C52.6783 383.53 53.2178 384.068 53.5819 384.751C53.9504 385.431 54.1346 386.203 54.1346 387.069C54.1346 387.944 53.9504 388.721 53.5819 389.4C53.2133 390.079 52.6694 390.614 51.9502 391.005C51.2309 391.391 50.3451 391.585 49.2928 391.585H45.9029V389.553H48.9598C49.5726 389.553 50.0743 389.447 50.465 389.234C50.8557 389.02 51.1443 388.727 51.3308 388.354C51.5217 387.981 51.6172 387.553 51.6172 387.069C51.6172 386.585 51.5217 386.159 51.3308 385.79C51.1443 385.422 50.8535 385.135 50.4583 384.931C50.0676 384.723 49.5637 384.618 48.9465 384.618H46.6821V396.193H44.2113ZM56.2808 396.193V382.554H61.3957C62.4435 382.554 63.3226 382.736 64.033 383.1C64.7478 383.464 65.2873 383.974 65.6514 384.632C66.0199 385.284 66.2042 386.046 66.2042 386.916C66.2042 387.791 66.0177 388.55 65.6447 389.194C65.2762 389.833 64.7323 390.328 64.013 390.679C63.2938 391.025 62.4102 391.198 61.3624 391.198H57.7194V389.147H61.0294C61.6421 389.147 62.1438 389.063 62.5345 388.894C62.9252 388.721 63.2138 388.47 63.4003 388.141C63.5912 387.808 63.6867 387.4 63.6867 386.916C63.6867 386.432 63.5912 386.019 63.4003 385.677C63.2094 385.331 62.9186 385.069 62.5279 384.891C62.1371 384.709 61.6332 384.618 61.016 384.618H58.7517V396.193H56.2808ZM63.327 390.013L66.7037 396.193H63.9464L60.6298 390.013H63.327ZM80.6663 389.373C80.6663 390.843 80.391 392.102 79.8404 393.15C79.2943 394.193 78.5484 394.992 77.6027 395.547C76.6614 396.102 75.5936 396.38 74.3993 396.38C73.2049 396.38 72.1349 396.102 71.1891 395.547C70.2479 394.988 69.502 394.186 68.9514 393.143C68.4053 392.095 68.1322 390.839 68.1322 389.373C68.1322 387.904 68.4053 386.647 68.9514 385.604C69.502 384.556 70.2479 383.755 71.1891 383.2C72.1349 382.645 73.2049 382.367 74.3993 382.367C75.5936 382.367 76.6614 382.645 77.6027 383.2C78.5484 383.755 79.2943 384.556 79.8404 385.604C80.391 386.647 80.6663 387.904 80.6663 389.373ZM78.1821 389.373C78.1821 388.339 78.0201 387.466 77.6959 386.756C77.3763 386.041 76.9323 385.502 76.3639 385.138C75.7956 384.769 75.1407 384.585 74.3993 384.585C73.6578 384.585 73.0029 384.769 72.4346 385.138C71.8662 385.502 71.42 386.041 71.0959 386.756C70.7762 387.466 70.6164 388.339 70.6164 389.373C70.6164 390.408 70.7762 391.283 71.0959 391.997C71.42 392.708 71.8662 393.247 72.4346 393.616C73.0029 393.98 73.6578 394.162 74.3993 394.162C75.1407 394.162 75.7956 393.98 76.3639 393.616C76.9323 393.247 77.3763 392.708 77.6959 391.997C78.0201 391.283 78.1821 390.408 78.1821 389.373ZM88.3835 382.554H90.8344V392.144C90.8299 393.023 90.6435 393.78 90.2749 394.415C89.9064 395.046 89.3914 395.532 88.7298 395.874C88.0727 396.211 87.3068 396.38 86.4321 396.38C85.6329 396.38 84.9137 396.238 84.2743 395.953C83.6394 395.665 83.1355 395.239 82.7625 394.675C82.3895 394.111 82.2031 393.409 82.2031 392.57H84.6606C84.665 392.939 84.745 393.256 84.9004 393.523C85.0602 393.789 85.28 393.993 85.5597 394.135C85.8394 394.277 86.1613 394.348 86.5254 394.348C86.9205 394.348 87.2558 394.266 87.531 394.102C87.8063 393.933 88.015 393.685 88.1571 393.356C88.3036 393.028 88.3791 392.623 88.3835 392.144V382.554ZM93.515 396.193V382.554H102.386V384.625H95.9859V388.328H101.927V390.399H95.9859V394.122H102.439V396.193H93.515ZM104.907 396.193V382.554H107.378V388.821H107.544L112.866 382.554H115.883L110.608 388.674L115.929 396.193H112.959L108.89 390.346L107.378 392.131V396.193H104.907ZM119.351 396.193H116.713L121.515 382.554H124.565L129.374 396.193H126.737L123.094 385.351H122.987L119.351 396.193ZM119.437 390.845H126.63V392.83H119.437V390.845ZM128.923 384.625V382.554H139.805V384.625H135.589V396.193H133.139V384.625H128.923ZM142.006 396.193H139.369L144.171 382.554H147.221L152.03 396.193H149.392L145.749 385.351H145.643L142.006 396.193ZM142.093 390.845H149.286V392.83H142.093V390.845Z" fill="#084B7C" fill-opacity="0.8"/>
<g filter="url(#filter4_d_1885_1028)">
<rect x="155.05" y="449.83" width="207.758" height="230.17" rx="9.60516" fill="white"/>
<rect x="155.586" y="450.366" width="206.686" height="229.098" rx="9.06912" stroke="url(#paint2_linear_1885_1028)" stroke-width="1.07208"/>
</g>
<path d="M525.611 333.568C522.144 333.568 519.059 333.005 516.357 331.879C513.67 330.738 511.561 329.184 510.03 327.218C508.499 325.251 507.733 323.022 507.733 320.53C507.733 318.609 508.168 316.845 509.039 315.239C509.925 313.618 511.126 312.274 512.642 311.208C514.158 310.127 515.854 309.437 517.73 309.137V308.822C515.269 308.326 513.272 307.133 511.741 305.241C510.21 303.335 509.444 301.121 509.444 298.599C509.444 296.212 510.142 294.088 511.538 292.226C512.934 290.35 514.848 288.879 517.28 287.813C519.727 286.732 522.504 286.192 525.611 286.192C528.719 286.192 531.488 286.732 533.92 287.813C536.367 288.894 538.289 290.373 539.685 292.249C541.081 294.11 541.786 296.227 541.801 298.599C541.786 301.136 541.006 303.35 539.459 305.241C537.913 307.133 535.932 308.326 533.515 308.822V309.137C535.361 309.437 537.035 310.127 538.536 311.208C540.052 312.274 541.253 313.618 542.139 315.239C543.04 316.845 543.497 318.609 543.513 320.53C543.497 323.022 542.724 325.251 541.193 327.218C539.662 329.184 537.545 330.738 534.843 331.879C532.156 333.005 529.079 333.568 525.611 333.568ZM525.611 326.407C527.158 326.407 528.509 326.13 529.665 325.574C530.82 325.004 531.721 324.223 532.367 323.232C533.027 322.227 533.357 321.071 533.357 319.765C533.357 318.429 533.02 317.25 532.344 316.23C531.669 315.194 530.753 314.383 529.597 313.798C528.441 313.197 527.113 312.897 525.611 312.897C524.125 312.897 522.797 313.197 521.626 313.798C520.455 314.383 519.532 315.194 518.856 316.23C518.196 317.25 517.866 318.429 517.866 319.765C517.866 321.071 518.188 322.227 518.834 323.232C519.479 324.223 520.388 325.004 521.558 325.574C522.729 326.13 524.08 326.407 525.611 326.407ZM525.611 305.804C526.902 305.804 528.051 305.542 529.057 305.016C530.062 304.491 530.85 303.763 531.421 302.832C531.991 301.901 532.277 300.828 532.277 299.612C532.277 298.411 531.991 297.36 531.421 296.46C530.85 295.544 530.07 294.831 529.079 294.321C528.088 293.795 526.932 293.532 525.611 293.532C524.305 293.532 523.15 293.795 522.144 294.321C521.138 294.831 520.35 295.544 519.78 296.46C519.224 297.36 518.946 298.411 518.946 299.612C518.946 300.828 519.232 301.901 519.802 302.832C520.372 303.763 521.161 304.491 522.166 305.016C523.172 305.542 524.32 305.804 525.611 305.804ZM567.375 333.568C564.012 333.568 561.018 332.99 558.391 331.834C555.779 330.663 553.715 329.057 552.198 327.015C550.697 324.959 549.924 322.587 549.879 319.9H559.697C559.757 321.026 560.124 322.016 560.8 322.872C561.49 323.713 562.406 324.366 563.547 324.831C564.688 325.296 565.971 325.529 567.397 325.529C568.884 325.529 570.197 325.266 571.338 324.741C572.479 324.216 573.372 323.488 574.017 322.557C574.663 321.626 574.986 320.553 574.986 319.337C574.986 318.106 574.64 317.018 573.95 316.072C573.274 315.111 572.299 314.361 571.023 313.82C569.762 313.28 568.261 313.01 566.519 313.01H562.219V305.849H566.519C567.99 305.849 569.289 305.594 570.415 305.084C571.556 304.573 572.441 303.868 573.072 302.967C573.702 302.051 574.017 300.986 574.017 299.77C574.017 298.614 573.74 297.601 573.184 296.73C572.644 295.844 571.878 295.154 570.888 294.658C569.912 294.163 568.771 293.915 567.465 293.915C566.144 293.915 564.936 294.155 563.84 294.636C562.744 295.101 561.866 295.769 561.205 296.64C560.545 297.51 560.192 298.531 560.147 299.702H550.802C550.847 297.045 551.606 294.703 553.077 292.677C554.548 290.65 556.529 289.067 559.021 287.926C561.528 286.77 564.358 286.192 567.51 286.192C570.692 286.192 573.477 286.77 575.864 287.926C578.251 289.082 580.105 290.643 581.426 292.609C582.762 294.561 583.422 296.752 583.407 299.184C583.422 301.766 582.619 303.92 580.998 305.647C579.392 307.373 577.297 308.469 574.715 308.934V309.294C578.108 309.73 580.69 310.908 582.461 312.83C584.248 314.736 585.133 317.123 585.118 319.99C585.133 322.617 584.375 324.951 582.844 326.993C581.328 329.034 579.234 330.641 576.562 331.811C573.89 332.982 570.828 333.568 567.375 333.568Z" fill="white"/>
<g opacity="0.3" filter="url(#filter5_d_1885_1028)">
<rect x="211.84" y="287.923" width="255.935" height="140.22" rx="10.8909" fill="white"/>
<rect x="213.201" y="289.285" width="253.212" height="137.497" rx="9.5295" stroke="url(#paint3_linear_1885_1028)" stroke-width="2.72272"/>
</g>
<path d="M227.737 376.664V369.248L249.582 334.732H255.767V345.291H251.996L237.29 368.594V368.996H267.783V376.664H227.737ZM252.297 386.216V374.401L252.398 371.083V334.732H261.197V386.216H252.297ZM292.298 386.92C288.946 386.92 285.946 386.292 283.298 385.035C280.65 383.761 278.547 382.018 276.988 379.806C275.446 377.594 274.625 375.063 274.525 372.214H283.575C283.742 374.326 284.655 376.052 286.315 377.393C287.974 378.717 289.968 379.379 292.298 379.379C294.124 379.379 295.75 378.96 297.175 378.122C298.599 377.284 299.722 376.119 300.543 374.627C301.364 373.136 301.767 371.435 301.75 369.524C301.767 367.58 301.356 365.854 300.518 364.346C299.68 362.837 298.532 361.656 297.074 360.801C295.616 359.93 293.94 359.494 292.046 359.494C290.504 359.477 288.988 359.762 287.496 360.349C286.005 360.935 284.823 361.706 283.952 362.661L275.53 361.279L278.22 334.732H308.085V342.525H285.938L284.454 356.176H284.756C285.711 355.053 287.06 354.123 288.803 353.385C290.546 352.631 292.457 352.254 294.535 352.254C297.652 352.254 300.434 352.991 302.881 354.466C305.328 355.924 307.255 357.935 308.663 360.5C310.071 363.064 310.775 365.997 310.775 369.298C310.775 372.7 309.987 375.734 308.412 378.398C306.853 381.046 304.683 383.133 301.901 384.658C299.135 386.166 295.934 386.92 292.298 386.92Z" fill="white"/>
<path opacity="0.96" d="M326.966 332.761H324.51L328.981 320.063H331.821L336.297 332.761H333.842L330.45 322.667H330.351L326.966 332.761ZM327.046 327.782H333.743V329.63H327.046V327.782ZM348.406 320.063V332.761H346.359L340.376 324.112H340.27V332.761H337.97V320.063H340.029L346.006 328.719H346.118V320.063H348.406ZM359.419 324.118C359.316 323.783 359.173 323.483 358.992 323.219C358.814 322.95 358.599 322.721 358.347 322.53C358.099 322.34 357.814 322.198 357.491 322.103C357.169 322.003 356.817 321.954 356.437 321.954C355.755 321.954 355.147 322.125 354.614 322.468C354.081 322.811 353.661 323.316 353.355 323.981C353.054 324.643 352.903 325.449 352.903 326.4C352.903 327.359 353.054 328.171 353.355 328.836C353.657 329.502 354.077 330.008 354.614 330.356C355.151 330.699 355.776 330.87 356.487 330.87C357.131 330.87 357.689 330.746 358.161 330.498C358.636 330.25 359.002 329.899 359.258 329.444C359.515 328.985 359.643 328.448 359.643 327.832L360.164 327.912H356.716V326.114H361.869V327.64C361.869 328.727 361.637 329.667 361.174 330.461C360.711 331.255 360.075 331.866 359.264 332.296C358.454 332.722 357.524 332.935 356.474 332.935C355.304 332.935 354.277 332.672 353.392 332.147C352.512 331.618 351.824 330.868 351.328 329.897C350.836 328.921 350.59 327.764 350.59 326.424C350.59 325.399 350.734 324.484 351.024 323.677C351.317 322.871 351.727 322.187 352.252 321.625C352.777 321.059 353.392 320.629 354.099 320.335C354.806 320.038 355.575 319.889 356.406 319.889C357.109 319.889 357.764 319.992 358.372 320.199C358.979 320.402 359.519 320.691 359.99 321.067C360.465 321.443 360.856 321.89 361.162 322.406C361.468 322.923 361.668 323.494 361.763 324.118H359.419ZM365.332 332.761H362.876L367.347 320.063H370.187L374.664 332.761H372.208L368.816 322.667H368.717L365.332 332.761ZM365.412 327.782H372.109V329.63H365.412V327.782ZM376.101 332.761V331.329L382.611 321.991H376.063V320.063H385.463V321.495L378.959 330.833H385.501V332.761H376.101ZM379.536 316.156L380.794 317.744L382.053 316.156H384.019V316.243L381.675 318.922H379.92L377.57 316.243V316.156H379.536ZM398.477 326.412C398.477 327.78 398.221 328.952 397.708 329.928C397.2 330.899 396.505 331.643 395.625 332.16C394.748 332.677 393.754 332.935 392.642 332.935C391.53 332.935 390.534 332.677 389.654 332.16C388.777 331.639 388.083 330.893 387.57 329.921C387.062 328.946 386.807 327.776 386.807 326.412C386.807 325.044 387.062 323.874 387.57 322.902C388.083 321.927 388.777 321.181 389.654 320.664C390.534 320.147 391.53 319.889 392.642 319.889C393.754 319.889 394.748 320.147 395.625 320.664C396.505 321.181 397.2 321.927 397.708 322.902C398.221 323.874 398.477 325.044 398.477 326.412ZM396.164 326.412C396.164 325.449 396.013 324.637 395.712 323.975C395.414 323.31 395.001 322.807 394.471 322.468C393.942 322.125 393.333 321.954 392.642 321.954C391.952 321.954 391.342 322.125 390.813 322.468C390.284 322.807 389.868 323.31 389.567 323.975C389.269 324.637 389.12 325.449 389.12 326.412C389.12 327.375 389.269 328.189 389.567 328.855C389.868 329.516 390.284 330.019 390.813 330.362C391.342 330.701 391.952 330.87 392.642 330.87C393.333 330.87 393.942 330.701 394.471 330.362C395.001 330.019 395.414 329.516 395.712 328.855C396.013 328.189 396.164 327.375 396.164 326.412ZM401.669 320.063L404.974 330.058H405.104L408.403 320.063H410.932L406.456 332.761H403.616L399.145 320.063H401.669ZM412.752 332.761H410.297L414.767 320.063H417.607L422.084 332.761H419.629L416.237 322.667H416.138L412.752 332.761ZM412.833 327.782H419.53V329.63H412.833V327.782ZM434.192 320.063V332.761H432.146L426.163 324.112H426.057V332.761H423.757V320.063H425.815L431.793 328.719H431.904V320.063H434.192ZM438.999 320.063V332.761H436.699V320.063H438.999ZM441.49 332.761V320.063H443.791V325.438H449.675V320.063H451.982V332.761H449.675V327.367H443.791V332.761H441.49ZM335.77 341.063V353.761H333.724L327.741 345.112H327.635V353.761H325.335V341.063H327.393L333.371 349.719H333.482V341.063H335.77ZM339.908 353.761H337.452L341.923 341.063H344.763L349.24 353.761H346.784L343.392 343.667H343.293L339.908 353.761ZM339.988 348.782H346.685V350.63H339.988V348.782ZM357.609 344.553C357.551 344.012 357.307 343.59 356.877 343.289C356.451 342.987 355.898 342.836 355.215 342.836C354.736 342.836 354.325 342.908 353.982 343.053C353.638 343.198 353.376 343.394 353.194 343.642C353.012 343.89 352.919 344.173 352.915 344.491C352.915 344.756 352.975 344.985 353.095 345.18C353.219 345.374 353.386 345.539 353.597 345.676C353.808 345.808 354.041 345.92 354.298 346.011C354.554 346.102 354.812 346.178 355.073 346.24L356.263 346.538C356.743 346.649 357.204 346.8 357.646 346.99C358.093 347.18 358.491 347.42 358.843 347.71C359.198 347.999 359.479 348.348 359.686 348.757C359.893 349.167 359.996 349.646 359.996 350.196C359.996 350.94 359.806 351.595 359.426 352.162C359.045 352.724 358.496 353.164 357.776 353.482C357.061 353.796 356.195 353.954 355.178 353.954C354.19 353.954 353.333 353.801 352.605 353.495C351.882 353.189 351.315 352.742 350.906 352.155C350.501 351.568 350.282 350.853 350.249 350.01H352.512C352.545 350.452 352.681 350.82 352.921 351.114C353.161 351.407 353.473 351.626 353.858 351.771C354.246 351.916 354.68 351.988 355.16 351.988C355.66 351.988 356.098 351.914 356.474 351.765C356.854 351.612 357.152 351.401 357.367 351.132C357.582 350.859 357.692 350.541 357.696 350.177C357.692 349.847 357.594 349.574 357.404 349.359C357.214 349.14 356.947 348.958 356.604 348.813C356.265 348.664 355.869 348.532 355.414 348.416L353.969 348.044C352.923 347.776 352.097 347.369 351.489 346.823C350.885 346.273 350.584 345.544 350.584 344.634C350.584 343.886 350.786 343.231 351.191 342.668C351.601 342.106 352.156 341.67 352.859 341.36C353.562 341.046 354.358 340.889 355.246 340.889C356.148 340.889 356.937 341.046 357.615 341.36C358.297 341.67 358.832 342.102 359.221 342.656C359.61 343.206 359.81 343.838 359.822 344.553H357.609ZM361.489 342.991V341.063H371.621V342.991H367.696V353.761H365.414V342.991H361.489ZM373.67 353.761H371.215L375.685 341.063H378.525L383.002 353.761H380.546L377.155 343.667H377.055L373.67 353.761ZM373.751 348.782H380.447V350.63H373.751V348.782ZM384.924 341.063L388.229 351.058H388.359L391.658 341.063H394.188L389.711 353.761H386.871L382.4 341.063H384.924ZM406.296 341.063V353.761H404.25L398.266 345.112H398.161V353.761H395.86V341.063H397.919L403.896 349.719H404.008V341.063H406.296ZM411.103 341.063V353.761H408.803V341.063H411.103ZM413.594 353.761V341.063H415.894V346.897H416.049L421.004 341.063H423.813L418.902 346.761L423.856 353.761H421.091L417.302 348.317L415.894 349.979V353.761H413.594ZM427.042 353.761H424.586L429.057 341.063H431.897L436.373 353.761H433.918L430.526 343.667H430.427L427.042 353.761ZM427.122 348.782H433.819V350.63H427.122V348.782ZM444.678 341.063V353.761H442.377V341.063H444.678ZM332.236 365.553C332.178 365.012 331.934 364.59 331.504 364.289C331.079 363.987 330.525 363.836 329.843 363.836C329.363 363.836 328.952 363.908 328.609 364.053C328.266 364.198 328.003 364.394 327.821 364.642C327.639 364.89 327.546 365.173 327.542 365.491C327.542 365.756 327.602 365.985 327.722 366.18C327.846 366.374 328.013 366.539 328.224 366.676C328.435 366.808 328.669 366.92 328.925 367.011C329.181 367.102 329.44 367.178 329.7 367.24L330.891 367.538C331.37 367.649 331.831 367.8 332.273 367.99C332.72 368.18 333.119 368.42 333.47 368.71C333.825 368.999 334.107 369.348 334.313 369.757C334.52 370.167 334.623 370.646 334.623 371.196C334.623 371.94 334.433 372.595 334.053 373.162C333.673 373.724 333.123 374.164 332.403 374.482C331.688 374.796 330.822 374.954 329.805 374.954C328.817 374.954 327.96 374.801 327.232 374.495C326.509 374.189 325.942 373.742 325.533 373.155C325.128 372.568 324.909 371.853 324.876 371.01H327.139C327.172 371.452 327.309 371.82 327.548 372.114C327.788 372.407 328.1 372.626 328.485 372.771C328.873 372.916 329.307 372.988 329.787 372.988C330.287 372.988 330.725 372.914 331.101 372.765C331.482 372.612 331.779 372.401 331.994 372.132C332.209 371.859 332.319 371.541 332.323 371.177C332.319 370.847 332.222 370.574 332.031 370.359C331.841 370.14 331.575 369.958 331.232 369.813C330.893 369.664 330.496 369.532 330.041 369.416L328.596 369.044C327.55 368.776 326.724 368.369 326.116 367.823C325.513 367.273 325.211 366.544 325.211 365.634C325.211 364.886 325.413 364.231 325.818 363.668C326.228 363.106 326.784 362.67 327.486 362.36C328.189 362.046 328.985 361.889 329.874 361.889C330.775 361.889 331.564 362.046 332.242 362.36C332.924 362.67 333.46 363.102 333.848 363.656C334.237 364.206 334.437 364.838 334.45 365.553H332.236ZM338.1 374.761H335.645L340.115 362.063H342.955L347.432 374.761H344.977L341.585 364.667H341.486L338.1 374.761ZM338.181 369.782H344.878V371.63H338.181V369.782ZM349.105 374.761V362.063H353.867C354.842 362.063 355.661 362.232 356.322 362.571C356.988 362.91 357.49 363.385 357.829 363.997C358.172 364.605 358.344 365.314 358.344 366.124C358.344 366.938 358.17 367.645 357.823 368.245C357.48 368.84 356.973 369.301 356.304 369.627C355.634 369.95 354.811 370.111 353.836 370.111H350.444V368.201H353.526C354.096 368.201 354.563 368.123 354.927 367.966C355.291 367.804 355.56 367.571 355.733 367.265C355.911 366.955 356 366.575 356 366.124C356 365.673 355.911 365.289 355.733 364.971C355.555 364.648 355.285 364.404 354.921 364.239C354.557 364.069 354.088 363.985 353.513 363.985H351.405V374.761H349.105ZM355.665 369.007L358.809 374.761H356.242L353.154 369.007H355.665ZM362.092 374.761H359.636L364.107 362.063H366.947L371.424 374.761H368.968L365.577 364.667H365.477L362.092 374.761ZM362.173 369.782H368.869V371.63H362.173V369.782ZM377.4 374.761H373.096V362.063H377.486C378.747 362.063 379.83 362.317 380.736 362.825C381.645 363.33 382.344 364.055 382.831 365.002C383.319 365.948 383.563 367.081 383.563 368.4C383.563 369.722 383.317 370.859 382.825 371.81C382.337 372.761 381.633 373.49 380.711 373.999C379.793 374.507 378.689 374.761 377.4 374.761ZM375.397 372.771H377.288C378.173 372.771 378.91 372.61 379.502 372.287C380.093 371.961 380.537 371.475 380.835 370.83C381.132 370.181 381.281 369.371 381.281 368.4C381.281 367.428 381.132 366.622 380.835 365.981C380.537 365.336 380.097 364.855 379.514 364.537C378.935 364.214 378.216 364.053 377.356 364.053H375.397V372.771ZM396.184 362.063V374.761H394.138L388.155 366.112H388.049V374.761H385.749V362.063H387.807L393.785 370.719H393.896V362.063H396.184ZM400.991 362.063V374.761H398.691V362.063H400.991ZM403.482 374.761V362.063H405.783V367.897H405.938L410.892 362.063H413.701L408.79 367.761L413.744 374.761H410.979L407.19 369.317L405.783 370.979V374.761H403.482ZM416.93 374.761H414.475L418.945 362.063H421.785L426.262 374.761H423.806L420.415 364.667H420.315L416.93 374.761ZM417.011 369.782H423.707V371.63H417.011V369.782ZM325.335 395.761V383.063H333.47V384.991H327.635V388.438H332.912V390.367H327.635V395.761H325.335ZM346.913 389.412C346.913 390.78 346.657 391.952 346.144 392.928C345.636 393.899 344.941 394.643 344.061 395.16C343.184 395.677 342.19 395.935 341.078 395.935C339.966 395.935 338.97 395.677 338.089 395.16C337.213 394.639 336.519 393.893 336.006 392.921C335.498 391.946 335.243 390.776 335.243 389.412C335.243 388.044 335.498 386.874 336.006 385.902C336.519 384.927 337.213 384.181 338.089 383.664C338.97 383.147 339.966 382.889 341.078 382.889C342.19 382.889 343.184 383.147 344.061 383.664C344.941 384.181 345.636 384.927 346.144 385.902C346.657 386.874 346.913 388.044 346.913 389.412ZM344.6 389.412C344.6 388.449 344.449 387.637 344.147 386.975C343.85 386.31 343.436 385.807 342.907 385.468C342.378 385.125 341.768 384.954 341.078 384.954C340.388 384.954 339.778 385.125 339.249 385.468C338.72 385.807 338.304 386.31 338.003 386.975C337.705 387.637 337.556 388.449 337.556 389.412C337.556 390.375 337.705 391.189 338.003 391.855C338.304 392.516 338.72 393.019 339.249 393.362C339.778 393.701 340.388 393.87 341.078 393.87C341.768 393.87 342.378 393.701 342.907 393.362C343.436 393.019 343.85 392.516 344.147 391.855C344.449 391.189 344.6 390.375 344.6 389.412ZM359.523 383.063V395.761H357.477L351.494 387.112H351.388V395.761H349.088V383.063H351.146L357.124 391.719H357.235V383.063H359.523ZM367.703 388.488V390.336H361.986V388.488H367.703ZM371.794 395.761H369.339L373.809 383.063H376.649L381.126 395.761H378.671L375.279 385.667H375.18L371.794 395.761ZM371.875 390.782H378.572V392.63H371.875V390.782Z" fill="white"/>
<path opacity="0.96" d="M505.785 366.252V353.531H514.058V355.463H508.089V358.916H513.63V360.848H508.089V364.32H514.108V366.252H505.785ZM516.409 366.252V353.531H518.714V359.376H518.869L523.832 353.531H526.646L521.727 359.239L526.69 366.252H523.919L520.124 360.798L518.714 362.463V366.252H516.409ZM535.092 357.028C535.034 356.485 534.79 356.063 534.359 355.761C533.933 355.458 533.378 355.307 532.695 355.307C532.214 355.307 531.802 355.38 531.459 355.525C531.115 355.67 530.852 355.866 530.67 356.115C530.488 356.363 530.394 356.647 530.39 356.966C530.39 357.231 530.45 357.461 530.57 357.655C530.695 357.85 530.862 358.015 531.073 358.152C531.285 358.285 531.519 358.396 531.775 358.488C532.032 358.579 532.291 358.655 532.552 358.717L533.744 359.016C534.225 359.127 534.687 359.279 535.13 359.469C535.577 359.66 535.977 359.9 536.329 360.19C536.685 360.479 536.966 360.829 537.173 361.239C537.38 361.649 537.484 362.13 537.484 362.68C537.484 363.426 537.293 364.082 536.912 364.649C536.531 365.213 535.981 365.654 535.26 365.973C534.544 366.287 533.676 366.445 532.657 366.445C531.668 366.445 530.808 366.291 530.08 365.985C529.355 365.679 528.788 365.231 528.378 364.643C527.972 364.055 527.752 363.339 527.719 362.494H529.986C530.02 362.937 530.156 363.306 530.396 363.6C530.637 363.894 530.949 364.113 531.334 364.258C531.724 364.403 532.158 364.476 532.639 364.476C533.14 364.476 533.579 364.401 533.956 364.252C534.337 364.099 534.635 363.888 534.85 363.618C535.065 363.345 535.175 363.026 535.179 362.662C535.175 362.33 535.078 362.057 534.887 361.842C534.697 361.622 534.43 361.44 534.086 361.295C533.747 361.146 533.349 361.014 532.893 360.898L531.446 360.525C530.398 360.256 529.57 359.848 528.962 359.301C528.357 358.751 528.055 358.02 528.055 357.109C528.055 356.359 528.258 355.703 528.663 355.14C529.073 354.576 529.63 354.139 530.334 353.829C531.038 353.514 531.835 353.357 532.726 353.357C533.629 353.357 534.419 353.514 535.099 353.829C535.782 354.139 536.318 354.572 536.707 355.127C537.097 355.678 537.298 356.311 537.31 357.028H535.092ZM538.979 355.463V353.531H549.129V355.463H545.197V366.252H542.911V355.463H538.979ZM551.086 366.252V353.531H559.36V355.463H553.39V358.916H558.931V360.848H553.39V364.32H559.409V366.252H551.086ZM561.711 366.252V353.531H566.481C567.458 353.531 568.278 353.701 568.941 354.04C569.608 354.38 570.111 354.856 570.45 355.469C570.794 356.077 570.966 356.788 570.966 357.599C570.966 358.415 570.792 359.123 570.444 359.724C570.1 360.32 569.593 360.782 568.922 361.109C568.251 361.432 567.427 361.593 566.45 361.593H563.052V359.68H566.14C566.711 359.68 567.179 359.602 567.543 359.444C567.908 359.283 568.177 359.049 568.351 358.742C568.529 358.432 568.618 358.051 568.618 357.599C568.618 357.148 568.529 356.763 568.351 356.444C568.173 356.121 567.902 355.877 567.537 355.711C567.173 355.541 566.703 355.456 566.127 355.456H564.015V366.252H561.711ZM568.283 360.488L571.432 366.252H568.86L565.767 360.488H568.283ZM583.541 353.531V366.252H581.491L575.497 357.587H575.392V366.252H573.087V353.531H575.149L581.137 362.202H581.249V353.531H583.541ZM587.686 366.252H585.226L589.705 353.531H592.55L597.034 366.252H594.575L591.177 356.14H591.078L587.686 366.252ZM587.767 361.264H594.475V363.115H587.767V361.264ZM505.785 387.252V374.531H510.555C511.532 374.531 512.352 374.713 513.015 375.077C513.682 375.442 514.185 375.943 514.524 376.581C514.868 377.214 515.04 377.935 515.04 378.742C515.04 379.558 514.868 380.283 514.524 380.916C514.181 381.55 513.673 382.049 513.002 382.413C512.332 382.774 511.505 382.954 510.524 382.954H507.362V381.059H510.213C510.785 381.059 511.253 380.96 511.617 380.761C511.982 380.562 512.251 380.289 512.425 379.941C512.603 379.593 512.692 379.194 512.692 378.742C512.692 378.291 512.603 377.893 512.425 377.55C512.251 377.206 511.98 376.939 511.611 376.748C511.247 376.554 510.777 376.456 510.201 376.456H508.089V387.252H505.785ZM517.041 387.252V374.531H521.812C522.789 374.531 523.609 374.701 524.272 375.04C524.939 375.38 525.442 375.856 525.781 376.469C526.125 377.077 526.297 377.788 526.297 378.599C526.297 379.415 526.123 380.123 525.775 380.724C525.431 381.32 524.924 381.782 524.253 382.109C523.582 382.432 522.758 382.593 521.781 382.593H518.383V380.68H521.47C522.042 380.68 522.51 380.602 522.874 380.444C523.239 380.283 523.508 380.049 523.682 379.742C523.86 379.432 523.949 379.051 523.949 378.599C523.949 378.148 523.86 377.763 523.682 377.444C523.504 377.121 523.232 376.877 522.868 376.711C522.504 376.541 522.034 376.456 521.458 376.456H519.346V387.252H517.041ZM523.613 381.488L526.763 387.252H524.191L521.098 381.488H523.613ZM528.418 387.252V374.531H536.692V376.463H530.723V379.916H536.263V381.848H530.723V385.32H536.742V387.252H528.418ZM543.354 387.252H539.043V374.531H543.441C544.704 374.531 545.789 374.785 546.696 375.295C547.607 375.8 548.307 376.527 548.795 377.475C549.284 378.423 549.528 379.558 549.528 380.879C549.528 382.204 549.282 383.343 548.789 384.295C548.3 385.248 547.594 385.979 546.671 386.488C545.751 386.997 544.646 387.252 543.354 387.252ZM541.347 385.258H543.242C544.128 385.258 544.867 385.097 545.46 384.774C546.052 384.447 546.497 383.96 546.795 383.314C547.093 382.664 547.242 381.852 547.242 380.879C547.242 379.906 547.093 379.098 546.795 378.456C546.497 377.81 546.056 377.328 545.472 377.009C544.892 376.686 544.172 376.525 543.31 376.525H541.347V385.258ZM552.668 387.252H550.208L554.687 374.531H557.532L562.017 387.252H559.557L556.159 377.14H556.06L552.668 387.252ZM552.749 382.264H559.457V384.115H552.749V382.264ZM563.942 374.531L567.253 384.544H567.383L570.688 374.531H573.222L568.738 387.252H565.893L561.414 374.531H563.942ZM575.045 387.252H572.586L577.064 374.531H579.909L584.394 387.252H581.934L578.536 377.14H578.437L575.045 387.252ZM575.126 382.264H581.835V384.115H575.126V382.264ZM596.36 378.823H594.037C593.971 378.442 593.849 378.104 593.671 377.81C593.493 377.512 593.271 377.26 593.006 377.053C592.741 376.846 592.439 376.69 592.099 376.587C591.764 376.479 591.402 376.425 591.012 376.425C590.321 376.425 589.708 376.599 589.174 376.947C588.639 377.291 588.221 377.796 587.919 378.463C587.617 379.125 587.465 379.935 587.465 380.891C587.465 381.865 587.617 382.684 587.919 383.351C588.225 384.014 588.644 384.515 589.174 384.854C589.708 385.19 590.319 385.358 591.006 385.358C591.387 385.358 591.743 385.308 592.074 385.208C592.41 385.105 592.71 384.954 592.975 384.755C593.244 384.556 593.47 384.312 593.652 384.022C593.839 383.732 593.967 383.401 594.037 383.028L596.36 383.041C596.274 383.645 596.085 384.213 595.795 384.743C595.509 385.273 595.135 385.741 594.671 386.146C594.207 386.548 593.665 386.863 593.043 387.091C592.422 387.314 591.733 387.426 590.975 387.426C589.857 387.426 588.859 387.167 587.981 386.65C587.103 386.132 586.412 385.384 585.906 384.407C585.401 383.43 585.149 382.258 585.149 380.891C585.149 379.521 585.403 378.349 585.913 377.376C586.422 376.398 587.116 375.651 587.993 375.133C588.871 374.616 589.865 374.357 590.975 374.357C591.683 374.357 592.342 374.456 592.95 374.655C593.559 374.854 594.102 375.146 594.578 375.531C595.054 375.912 595.445 376.38 595.752 376.935C596.062 377.485 596.265 378.115 596.36 378.823ZM589.714 370.617L590.975 372.208L592.236 370.617H594.205V370.704L591.857 373.388H590.099L587.745 370.704V370.617H589.714ZM599.951 387.252H597.491L601.97 374.531H604.814L609.299 387.252H606.839L603.442 377.14H603.342L599.951 387.252ZM600.032 382.264H606.74V384.115H600.032V382.264Z" fill="white"/>
<g opacity="0.25" filter="url(#filter6_b_1885_1028)">
<rect x="380.931" y="452.681" width="459.888" height="135.546" rx="9.68185" fill="white"/>
</g>
<path opacity="0.96" d="M564.066 513.568V493.172H571.714C573.281 493.172 574.595 493.464 575.658 494.049C576.727 494.633 577.533 495.436 578.078 496.459C578.629 497.474 578.904 498.63 578.904 499.924C578.904 501.232 578.629 502.394 578.078 503.41C577.527 504.426 576.713 505.226 575.638 505.81C574.562 506.388 573.238 506.676 571.664 506.676H566.595V503.639H571.166C572.082 503.639 572.833 503.48 573.417 503.161C574.001 502.842 574.433 502.404 574.712 501.846C574.997 501.289 575.14 500.648 575.14 499.924C575.14 499.201 574.997 498.563 574.712 498.012C574.433 497.461 573.998 497.033 573.407 496.728C572.823 496.416 572.069 496.259 571.146 496.259H567.76V513.568H564.066ZM600.338 503.37C600.338 505.568 599.926 507.45 599.103 509.017C598.287 510.577 597.171 511.772 595.757 512.602C594.349 513.432 592.753 513.847 590.967 513.847C589.181 513.847 587.581 513.432 586.167 512.602C584.759 511.765 583.644 510.567 582.821 509.007C582.004 507.44 581.596 505.561 581.596 503.37C581.596 501.172 582.004 499.294 582.821 497.733C583.644 496.167 584.759 494.968 586.167 494.138C587.581 493.308 589.181 492.893 590.967 492.893C592.753 492.893 594.349 493.308 595.757 494.138C597.171 494.968 598.287 496.167 599.103 497.733C599.926 499.294 600.338 501.172 600.338 503.37ZM596.623 503.37C596.623 501.823 596.381 500.519 595.896 499.456C595.418 498.387 594.754 497.581 593.905 497.036C593.055 496.485 592.076 496.21 590.967 496.21C589.858 496.21 588.879 496.485 588.029 497.036C587.179 497.581 586.512 498.387 586.027 499.456C585.549 500.519 585.31 501.823 585.31 503.37C585.31 504.917 585.549 506.225 586.027 507.294C586.512 508.356 587.179 509.163 588.029 509.714C588.879 510.258 589.858 510.53 590.967 510.53C592.076 510.53 593.055 510.258 593.905 509.714C594.754 509.163 595.418 508.356 595.896 507.294C596.381 506.225 596.623 504.917 596.623 503.37ZM614.915 498.779C614.822 497.909 614.431 497.232 613.74 496.747C613.056 496.263 612.167 496.02 611.071 496.02C610.301 496.02 609.64 496.137 609.089 496.369C608.538 496.601 608.117 496.917 607.825 497.315C607.532 497.713 607.383 498.168 607.376 498.679C607.376 499.104 607.473 499.473 607.665 499.785C607.864 500.097 608.133 500.363 608.472 500.582C608.811 500.794 609.186 500.973 609.597 501.119C610.009 501.265 610.424 501.388 610.842 501.488L612.754 501.966C613.524 502.145 614.265 502.387 614.975 502.693C615.692 502.998 616.333 503.383 616.897 503.848C617.468 504.313 617.919 504.874 618.251 505.531C618.583 506.188 618.749 506.959 618.749 507.842C618.749 509.037 618.444 510.089 617.833 510.999C617.222 511.901 616.339 512.609 615.184 513.12C614.036 513.624 612.645 513.877 611.011 513.877C609.425 513.877 608.047 513.631 606.878 513.14C605.717 512.648 604.807 511.931 604.15 510.989C603.499 510.046 603.147 508.897 603.094 507.543H606.729C606.782 508.253 607.001 508.844 607.386 509.315C607.771 509.787 608.273 510.139 608.89 510.371C609.514 510.603 610.211 510.72 610.982 510.72C611.785 510.72 612.489 510.6 613.093 510.361C613.704 510.115 614.182 509.777 614.527 509.345C614.872 508.907 615.048 508.396 615.055 507.812C615.048 507.281 614.892 506.842 614.587 506.497C614.281 506.145 613.853 505.853 613.302 505.621C612.758 505.382 612.12 505.169 611.39 504.983L609.069 504.386C607.39 503.954 606.062 503.3 605.086 502.424C604.117 501.541 603.632 500.369 603.632 498.909C603.632 497.707 603.957 496.655 604.608 495.752C605.265 494.849 606.158 494.148 607.287 493.65C608.415 493.146 609.694 492.893 611.121 492.893C612.568 492.893 613.836 493.146 614.925 493.65C616.021 494.148 616.88 494.842 617.505 495.732C618.129 496.615 618.451 497.63 618.471 498.779H614.915ZM622.043 513.568V493.172H635.308V496.269H625.738V501.807H634.621V504.904H625.738V510.471H635.388V513.568H622.043ZM638.181 496.269V493.172H654.454V496.269H648.15V513.568H644.485V496.269H638.181ZM657.746 513.568H653.802L660.982 493.172H665.543L672.734 513.568H668.79L663.342 497.355H663.183L657.746 513.568ZM657.875 505.571H668.63V508.539H657.875V505.571ZM570.977 547.568H564.066V527.172H571.116C573.141 527.172 574.881 527.581 576.335 528.397C577.795 529.207 578.918 530.372 579.701 531.893C580.484 533.413 580.876 535.232 580.876 537.35C580.876 539.475 580.481 541.3 579.691 542.827C578.908 544.354 577.776 545.526 576.295 546.343C574.821 547.16 573.048 547.568 570.977 547.568ZM567.76 544.371H570.798C572.219 544.371 573.404 544.112 574.353 543.594C575.302 543.07 576.016 542.29 576.494 541.254C576.972 540.212 577.211 538.91 577.211 537.35C577.211 535.79 576.972 534.495 576.494 533.466C576.016 532.431 575.309 531.657 574.373 531.146C573.443 530.628 572.288 530.369 570.907 530.369H567.76V544.371ZM584.387 547.568V527.172H597.652V530.269H588.081V535.807H596.965V538.904H588.081V544.471H597.731V547.568H584.387ZM601.421 547.568V527.172H605.116V544.471H614.099V547.568H601.421ZM617.305 547.568V527.172H630.57V530.269H621V535.807H629.883V538.904H621V544.471H630.65V547.568H617.305ZM648.003 533.685C647.837 533.148 647.608 532.666 647.316 532.241C647.031 531.81 646.685 531.441 646.28 531.136C645.882 530.83 645.424 530.601 644.906 530.449C644.388 530.289 643.824 530.21 643.213 530.21C642.118 530.21 641.142 530.485 640.285 531.036C639.429 531.587 638.755 532.397 638.264 533.466C637.779 534.528 637.537 535.823 637.537 537.35C637.537 538.89 637.779 540.195 638.264 541.264C638.748 542.333 639.422 543.146 640.285 543.704C641.148 544.255 642.151 544.53 643.293 544.53C644.329 544.53 645.225 544.331 645.982 543.933C646.745 543.535 647.333 542.97 647.744 542.24C648.156 541.503 648.362 540.64 648.362 539.651L649.198 539.78H643.661V536.892H651.937V539.342C651.937 541.088 651.565 542.598 650.822 543.873C650.078 545.148 649.056 546.13 647.754 546.821C646.453 547.505 644.959 547.847 643.273 547.847C641.394 547.847 639.744 547.425 638.323 546.582C636.909 545.732 635.804 544.527 635.007 542.967C634.217 541.4 633.822 539.541 633.822 537.39C633.822 535.743 634.054 534.273 634.519 532.978C634.991 531.684 635.648 530.585 636.491 529.682C637.334 528.772 638.323 528.082 639.459 527.61C640.594 527.132 641.829 526.893 643.163 526.893C644.292 526.893 645.344 527.059 646.32 527.391C647.296 527.717 648.163 528.181 648.92 528.786C649.683 529.39 650.31 530.107 650.802 530.937C651.293 531.767 651.615 532.683 651.768 533.685H648.003ZM657.499 547.568H653.555L660.736 527.172H665.297L672.487 547.568H668.543L663.096 531.355H662.937L657.499 547.568ZM657.629 539.571H668.384V542.539H657.629V539.571ZM691.673 534.054H687.948C687.842 533.443 687.646 532.902 687.361 532.431C687.075 531.952 686.72 531.547 686.295 531.216C685.87 530.884 685.385 530.635 684.841 530.469C684.303 530.296 683.722 530.21 683.098 530.21C681.989 530.21 681.007 530.489 680.15 531.046C679.294 531.597 678.623 532.407 678.139 533.476C677.654 534.538 677.412 535.836 677.412 537.37C677.412 538.93 677.654 540.245 678.139 541.314C678.63 542.376 679.301 543.179 680.15 543.724C681.007 544.262 681.986 544.53 683.088 544.53C683.699 544.53 684.27 544.451 684.801 544.291C685.339 544.125 685.82 543.883 686.245 543.564C686.677 543.246 687.039 542.854 687.331 542.389C687.629 541.925 687.835 541.393 687.948 540.796L691.673 540.816C691.533 541.785 691.231 542.695 690.766 543.545C690.308 544.394 689.707 545.145 688.964 545.795C688.22 546.439 687.351 546.944 686.355 547.309C685.359 547.667 684.253 547.847 683.038 547.847C681.246 547.847 679.646 547.432 678.238 546.602C676.831 545.772 675.722 544.574 674.912 543.007C674.102 541.44 673.697 539.561 673.697 537.37C673.697 535.172 674.105 533.294 674.922 531.733C675.739 530.167 676.851 528.968 678.258 528.138C679.666 527.308 681.259 526.893 683.038 526.893C684.174 526.893 685.229 527.053 686.205 527.371C687.181 527.69 688.051 528.158 688.814 528.776C689.578 529.386 690.205 530.137 690.697 531.026C691.195 531.909 691.52 532.918 691.673 534.054ZM698.751 527.172V547.568H695.056V527.172H698.751ZM710.799 527.172H714.463V541.513C714.457 542.827 714.178 543.959 713.627 544.909C713.076 545.852 712.306 546.579 711.316 547.09C710.334 547.594 709.189 547.847 707.881 547.847C706.686 547.847 705.61 547.634 704.654 547.209C703.705 546.778 702.951 546.14 702.393 545.297C701.836 544.454 701.557 543.405 701.557 542.15H705.232C705.238 542.701 705.358 543.176 705.59 543.574C705.829 543.973 706.158 544.278 706.576 544.491C706.994 544.703 707.476 544.809 708.02 544.809C708.611 544.809 709.112 544.686 709.524 544.441C709.935 544.189 710.247 543.817 710.46 543.325C710.679 542.834 710.792 542.23 710.799 541.513V527.172ZM721.091 547.568H717.147L724.328 527.172H728.889L736.079 547.568H732.135L726.688 531.355H726.528L721.091 547.568ZM721.22 539.571H731.976V542.539H721.22V539.571Z" fill="white"/>
<rect x="381.838" y="453.589" width="458.072" height="133.73" rx="8.77417" stroke="url(#paint4_linear_1885_1028)" stroke-width="1.81535"/>
<rect x="402.303" y="473.715" width="134.485" height="94.398" rx="12.1023" fill="white"/>
<path d="M448.871 545.339C445.883 545.339 443.209 544.779 440.849 543.659C438.489 542.523 436.614 540.97 435.225 538.998C433.85 537.026 433.118 534.771 433.029 532.231H441.095C441.245 534.113 442.059 535.652 443.538 536.847C445.017 538.027 446.794 538.617 448.871 538.617C450.499 538.617 451.948 538.244 453.218 537.497C454.488 536.75 455.488 535.712 456.22 534.382C456.952 533.053 457.311 531.536 457.296 529.833C457.311 528.101 456.945 526.562 456.198 525.218C455.451 523.873 454.428 522.82 453.128 522.058C451.829 521.281 450.335 520.893 448.647 520.893C447.272 520.878 445.92 521.132 444.591 521.655C443.261 522.178 442.208 522.865 441.432 523.716L433.925 522.484L436.323 498.822H462.943V505.768H443.202L441.88 517.935H442.149C443 516.934 444.203 516.105 445.756 515.448C447.31 514.776 449.013 514.44 450.865 514.44C453.643 514.44 456.123 515.097 458.304 516.412C460.485 517.711 462.203 519.504 463.458 521.789C464.713 524.075 465.34 526.689 465.34 529.632C465.34 532.664 464.638 535.368 463.234 537.743C461.845 540.103 459.91 541.963 457.43 543.323C454.966 544.667 452.112 545.339 448.871 545.339ZM488.547 545.586C484.857 545.586 481.69 544.652 479.046 542.785C476.417 540.903 474.393 538.191 472.974 534.651C471.57 531.096 470.868 526.816 470.868 521.812C470.882 516.807 471.592 512.55 472.996 509.04C474.415 505.514 476.439 502.825 479.069 500.973C481.713 499.121 484.872 498.194 488.547 498.194C492.222 498.194 495.381 499.121 498.025 500.973C500.669 502.825 502.693 505.514 504.098 509.04C505.517 512.565 506.226 516.822 506.226 521.812C506.226 526.831 505.517 531.118 504.098 534.673C502.693 538.214 500.669 540.918 498.025 542.785C495.396 544.652 492.237 545.586 488.547 545.586ZM488.547 538.572C491.415 538.572 493.678 537.161 495.336 534.337C497.009 531.499 497.846 527.324 497.846 521.812C497.846 518.167 497.465 515.104 496.703 512.625C495.941 510.145 494.866 508.278 493.476 507.023C492.087 505.753 490.444 505.118 488.547 505.118C485.694 505.118 483.438 506.537 481.78 509.376C480.122 512.199 479.285 516.344 479.27 521.812C479.255 525.472 479.621 528.549 480.368 531.043C481.13 533.538 482.206 535.42 483.595 536.69C484.984 537.945 486.635 538.572 488.547 538.572Z" fill="#084B7C"/>
<g opacity="0.6" clip-path="url(#clip2_1885_1028)" filter="url(#filter7_i_1885_1028)">
<path d="M240.942 550.735L231.039 544.868" stroke="#1EBCEF" stroke-width="2.94663" stroke-miterlimit="10" stroke-linecap="round" stroke-linejoin="round"/>
<path d="M234.78 555.181L227.483 550.858" stroke="#1EBCEF" stroke-width="2.94663" stroke-miterlimit="10" stroke-linecap="round" stroke-linejoin="round"/>
<path d="M227.312 558.853L224.453 557.16" stroke="#1EBCEF" stroke-width="2.94663" stroke-miterlimit="10" stroke-linecap="round" stroke-linejoin="round"/>
<path d="M184.158 494.776H232.33" stroke="#1EBCEF" stroke-width="2.94663" stroke-miterlimit="10" stroke-linecap="round" stroke-linejoin="round"/>
<path d="M184.158 484.511H208.244" stroke="#1EBCEF" stroke-width="2.94663" stroke-miterlimit="10" stroke-linecap="round" stroke-linejoin="round"/>
<path d="M184.158 503.871H232.33" stroke="#1EBCEF" stroke-width="2.94663" stroke-miterlimit="10" stroke-linecap="round" stroke-linejoin="round"/>
<mask id="mask0_1885_1028" style="mask-type:luminance" maskUnits="userSpaceOnUse" x="166" y="466" width="102" height="101">
<path d="M166.529 466.229H267.107V566.807H166.529V466.229Z" fill="white"/>
</mask>
<g mask="url(#mask0_1885_1028)">
<path d="M226.032 468.116V478.443C226.032 481.795 228.749 484.512 232.101 484.512H242.427" stroke="#1EBCEF" stroke-width="2.94663" stroke-miterlimit="10" stroke-linecap="round" stroke-linejoin="round"/>
<path d="M242.842 511.615V486.416C242.842 485.197 242.358 484.027 241.496 483.165L227.379 469.049C226.517 468.187 225.347 467.702 224.128 467.702H179.715C176.364 467.702 173.647 470.419 173.647 473.771V551.944C173.647 555.296 176.364 558.013 179.715 558.013H195.132" stroke="#1EBCEF" stroke-width="2.94663" stroke-miterlimit="10" stroke-linecap="round" stroke-linejoin="round"/>
<path d="M203.408 519.444L200.358 517.637C199.519 517.14 198.436 517.417 197.939 518.256L185.401 539.42C184.904 540.259 185.181 541.342 186.02 541.839L189.07 543.646C191.115 544.858 193.756 544.182 194.968 542.137L204.918 525.342C206.129 523.296 205.454 520.656 203.408 519.444Z" stroke="#1EBCEF" stroke-width="2.94663" stroke-miterlimit="10" stroke-linecap="round" stroke-linejoin="round"/>
<path d="M245.512 534.265L250.175 542.136C251.387 544.182 254.028 544.858 256.073 543.646L259.123 541.839C259.962 541.342 260.239 540.259 259.742 539.42L247.204 518.256C246.707 517.417 245.624 517.14 244.785 517.637L241.735 519.444C239.69 520.656 239.014 523.296 240.226 525.342L241.985 528.311" stroke="#1EBCEF" stroke-width="2.94663" stroke-miterlimit="10" stroke-linecap="round" stroke-linejoin="round"/>
<path d="M222.419 526.425L221.915 526.127C219.023 524.467 217.67 524.16 215.06 525.169L212.215 526.269C210.484 526.938 208.542 526.776 206.945 525.83L205.186 524.793" stroke="#1EBCEF" stroke-width="2.94663" stroke-miterlimit="10" stroke-linecap="round" stroke-linejoin="round"/>
<path d="M194.289 542.999L197.236 544.739" stroke="#1EBCEF" stroke-width="2.94663" stroke-miterlimit="10" stroke-linecap="round" stroke-linejoin="round"/>
<path d="M219.042 562.051L223.761 564.847C225.416 565.828 227.553 565.28 228.533 563.626C229.514 561.971 228.967 559.834 227.312 558.854L231.229 561.174C232.884 562.155 235.021 561.608 236.001 559.953C236.982 558.298 236.435 556.162 234.78 555.181L237.391 556.728C239.046 557.709 241.183 557.162 242.163 555.507C243.144 553.852 242.597 551.715 240.942 550.735L244.138 552.628C245.793 553.608 247.929 553.062 248.909 551.407C249.89 549.752 249.343 547.616 247.688 546.635" stroke="#1EBCEF" stroke-width="2.94663" stroke-miterlimit="10" stroke-linecap="round" stroke-linejoin="round"/>
<path d="M240.374 525.592L239.964 525.83C238.367 526.776 236.425 526.938 234.694 526.269L231.486 525.008C230.482 524.614 229.381 524.545 228.336 524.809L223.421 526.053C221.133 526.632 219.53 528.691 219.53 531.051V537.612C219.53 538.54 220.282 539.294 221.209 539.295C224.007 539.297 226.275 537.03 226.275 534.232V533.955L247.313 546.413C247.703 545.998 248.15 545.639 248.641 545.348L251.622 543.606" stroke="#1EBCEF" stroke-width="2.94663" stroke-miterlimit="10" stroke-linecap="round" stroke-linejoin="round"/>
<path d="M200.568 551.961C199.447 553.523 197.271 553.88 195.709 552.759C194.147 551.637 193.79 549.461 194.911 547.899L196.883 545.152C198.005 543.59 200.18 543.232 201.743 544.354C203.305 545.475 203.662 547.651 202.541 549.213" stroke="#1EBCEF" stroke-width="2.94663" stroke-miterlimit="10" stroke-linecap="round" stroke-linejoin="round"/>
<path d="M210.374 550.243L206.225 556.022C205.103 557.584 202.928 557.941 201.366 556.82C199.803 555.698 199.446 553.523 200.568 551.961L204.717 546.181C205.839 544.619 208.014 544.262 209.576 545.383C211.139 546.505 211.496 548.68 210.374 550.243Z" stroke="#1EBCEF" stroke-width="2.94663" stroke-miterlimit="10" stroke-linecap="round" stroke-linejoin="round"/>
<path d="M210.374 550.243C211.496 548.68 213.671 548.323 215.233 549.445C216.796 550.566 217.153 552.742 216.031 554.304L211.882 560.083C210.761 561.645 208.585 562.003 207.023 560.881C205.461 559.76 205.104 557.584 206.225 556.022" stroke="#1EBCEF" stroke-width="2.94663" stroke-miterlimit="10" stroke-linecap="round" stroke-linejoin="round"/>
<path d="M214.188 556.872C215.309 555.31 217.485 554.952 219.047 556.074C220.609 557.195 220.966 559.371 219.845 560.933L218.465 562.855C217.343 564.417 215.168 564.775 213.606 563.653C212.044 562.532 211.687 560.356 212.808 558.794" stroke="#1EBCEF" stroke-width="2.94663" stroke-miterlimit="10" stroke-linecap="round" stroke-linejoin="round"/>
</g>
</g>
<path d="M283.737 561.26V615.341H272.303V572.113H271.986L259.602 579.877V569.737L272.99 561.26H283.737ZM298.729 615.341L321.149 570.978V570.608H295.033V561.26H332.979V570.74L310.533 615.341H298.729Z" fill="#084B7C"/>
<path opacity="0.96" d="M220.649 649.079V632.855H226.432C227.694 632.855 228.74 633.085 229.569 633.544C230.398 634.004 231.018 634.632 231.43 635.43C231.842 636.222 232.048 637.114 232.048 638.107C232.048 639.105 231.84 640.003 231.422 640.801C231.01 641.593 230.387 642.221 229.553 642.686C228.724 643.146 227.681 643.375 226.424 643.375H222.447V641.3H226.202C226.999 641.3 227.646 641.163 228.143 640.888C228.639 640.608 229.004 640.228 229.236 639.747C229.468 639.267 229.585 638.72 229.585 638.107C229.585 637.495 229.468 636.951 229.236 636.475C229.004 636 228.637 635.628 228.135 635.358C227.638 635.089 226.983 634.954 226.17 634.954H223.096V649.079H220.649ZM234.567 649.079H231.969L237.808 632.855H240.636L246.474 649.079H243.876L239.289 635.802H239.162L234.567 649.079ZM235.003 642.726H243.432V644.786H235.003V642.726ZM248.817 649.079V632.855H254.6C255.857 632.855 256.9 633.072 257.729 633.505C258.564 633.938 259.187 634.537 259.599 635.303C260.011 636.063 260.217 636.943 260.217 637.941C260.217 638.934 260.008 639.808 259.591 640.563C259.179 641.313 258.556 641.897 257.721 642.314C256.892 642.731 255.849 642.94 254.592 642.94H250.211V640.832H254.37C255.163 640.832 255.807 640.719 256.303 640.492C256.805 640.265 257.172 639.935 257.405 639.502C257.637 639.068 257.753 638.548 257.753 637.941C257.753 637.328 257.634 636.798 257.397 636.349C257.164 635.9 256.797 635.556 256.295 635.319C255.799 635.076 255.147 634.954 254.339 634.954H251.265V649.079H248.817ZM256.826 641.759L260.835 649.079H258.046L254.117 641.759H256.826ZM262.395 634.962V632.855H274.952V634.962H269.89V649.079H267.45V634.962H262.395ZM290.821 632.855V649.079H288.572L280.325 637.18H280.174V649.079H277.726V632.855H279.992L288.247 644.77H288.397V632.855H290.821ZM294.392 649.079V632.855H304.564V634.962H296.84V639.906H304.033V642.005H296.84V646.972H304.659V649.079H294.392ZM307.834 649.079V632.855H313.617C314.874 632.855 315.917 633.072 316.746 633.505C317.581 633.938 318.204 634.537 318.616 635.303C319.028 636.063 319.234 636.943 319.234 637.941C319.234 638.934 319.025 639.808 318.608 640.563C318.196 641.313 317.573 641.897 316.738 642.314C315.909 642.731 314.866 642.94 313.609 642.94H309.228V640.832H313.387C314.179 640.832 314.824 640.719 315.32 640.492C315.822 640.265 316.189 639.935 316.421 639.502C316.654 639.068 316.77 638.548 316.77 637.941C316.77 637.328 316.651 636.798 316.413 636.349C316.181 635.9 315.814 635.556 315.312 635.319C314.816 635.076 314.163 634.954 313.355 634.954H310.282V649.079H307.834ZM315.843 641.759L319.851 649.079H317.063L313.134 641.759H315.843ZM323.583 649.079H320.984L326.823 632.855H329.651L335.489 649.079H332.891L328.304 635.802H328.177L323.583 649.079ZM324.018 642.726H332.447V644.786H324.018V642.726Z" fill="#082234" fill-opacity="0.8"/>
<g filter="url(#filter8_bd_1885_1028)">
<rect x="235.95" y="46.4242" width="206.623" height="228.911" rx="8.74593" fill="white"/>
</g>
<g filter="url(#filter9_bd_1885_1028)">
<rect x="236.496" y="46.9708" width="205.529" height="227.818" rx="8.19931" stroke="url(#paint5_linear_1885_1028)" stroke-width="1.09324"/>
</g>
<path d="M295.453 223.058C291.491 223.058 287.966 222.415 284.879 221.129C281.809 219.825 279.399 218.05 277.65 215.803C275.9 213.557 275.026 211.01 275.026 208.162C275.026 205.967 275.523 203.952 276.518 202.117C277.53 200.264 278.902 198.729 280.634 197.512C282.366 196.277 284.304 195.488 286.448 195.145V194.785C283.636 194.219 281.354 192.855 279.605 190.694C277.856 188.516 276.981 185.986 276.981 183.105C276.981 180.377 277.778 177.951 279.373 175.824C280.969 173.68 283.155 171.999 285.934 170.781C288.729 169.546 291.902 168.929 295.453 168.929C299.003 168.929 302.168 169.546 304.946 170.781C307.742 172.016 309.937 173.706 311.532 175.85C313.127 177.976 313.933 180.395 313.95 183.105C313.933 186.003 313.041 188.533 311.275 190.694C309.508 192.855 307.244 194.219 304.483 194.785V195.145C306.593 195.488 308.505 196.277 310.22 197.512C311.952 198.729 313.324 200.264 314.336 202.117C315.365 203.952 315.889 205.967 315.906 208.162C315.889 211.01 315.005 213.557 313.256 215.803C311.506 218.05 309.088 219.825 306.001 221.129C302.931 222.415 299.415 223.058 295.453 223.058ZM295.453 214.877C297.219 214.877 298.763 214.56 300.084 213.925C301.404 213.274 302.433 212.382 303.171 211.25C303.926 210.101 304.303 208.78 304.303 207.288C304.303 205.761 303.917 204.415 303.145 203.249C302.373 202.065 301.327 201.139 300.006 200.47C298.686 199.784 297.168 199.441 295.453 199.441C293.755 199.441 292.237 199.784 290.899 200.47C289.561 201.139 288.507 202.065 287.735 203.249C286.98 204.415 286.603 205.761 286.603 207.288C286.603 208.78 286.971 210.101 287.709 211.25C288.447 212.382 289.484 213.274 290.822 213.925C292.16 214.56 293.703 214.877 295.453 214.877ZM295.453 191.337C296.928 191.337 298.24 191.037 299.389 190.437C300.538 189.836 301.439 189.005 302.09 187.941C302.742 186.878 303.068 185.651 303.068 184.262C303.068 182.89 302.742 181.69 302.09 180.66C301.439 179.614 300.547 178.8 299.415 178.216C298.283 177.616 296.962 177.316 295.453 177.316C293.961 177.316 292.64 177.616 291.491 178.216C290.342 178.8 289.441 179.614 288.79 180.66C288.155 181.69 287.838 182.89 287.838 184.262C287.838 185.651 288.164 186.878 288.815 187.941C289.467 189.005 290.367 189.836 291.517 190.437C292.666 191.037 293.978 191.337 295.453 191.337ZM323.694 222.338V214.311L342.449 196.946C344.044 195.402 345.382 194.013 346.463 192.778C347.56 191.543 348.392 190.334 348.958 189.15C349.524 187.95 349.807 186.655 349.807 185.266C349.807 183.722 349.456 182.393 348.752 181.278C348.049 180.146 347.089 179.28 345.871 178.679C344.653 178.062 343.273 177.753 341.729 177.753C340.117 177.753 338.71 178.079 337.51 178.731C336.309 179.383 335.383 180.317 334.731 181.535C334.08 182.753 333.754 184.202 333.754 185.883H323.18C323.18 182.436 323.96 179.443 325.521 176.904C327.082 174.366 329.269 172.402 332.081 171.013C334.894 169.624 338.136 168.929 341.806 168.929C345.579 168.929 348.864 169.598 351.66 170.936C354.472 172.256 356.659 174.092 358.22 176.441C359.781 178.791 360.561 181.484 360.561 184.519C360.561 186.509 360.167 188.473 359.378 190.411C358.606 192.349 357.225 194.502 355.236 196.868C353.246 199.218 350.442 202.04 346.823 205.333L339.131 212.871V213.231H361.256V222.338H323.694ZM371.411 222.338L393.254 179.117V178.757H367.81V169.649H404.779V178.885L382.911 222.338H371.411Z" fill="#084B7C"/>
<path opacity="0.8" d="M288.824 246.433C288.76 245.833 288.49 245.366 288.014 245.032C287.542 244.698 286.929 244.531 286.174 244.531C285.643 244.531 285.187 244.611 284.807 244.771C284.428 244.931 284.137 245.149 283.936 245.424C283.734 245.698 283.631 246.012 283.627 246.364C283.627 246.657 283.693 246.911 283.826 247.126C283.963 247.341 284.148 247.524 284.382 247.675C284.615 247.822 284.874 247.945 285.158 248.046C285.441 248.147 285.727 248.231 286.016 248.3L287.334 248.63C287.865 248.753 288.375 248.92 288.865 249.131C289.359 249.341 289.801 249.607 290.19 249.927C290.584 250.248 290.895 250.634 291.124 251.088C291.353 251.541 291.467 252.072 291.467 252.68C291.467 253.504 291.256 254.23 290.835 254.857C290.414 255.479 289.806 255.967 289.009 256.319C288.217 256.667 287.258 256.841 286.132 256.841C285.039 256.841 284.089 256.671 283.283 256.333C282.482 255.994 281.855 255.5 281.402 254.85C280.954 254.2 280.711 253.408 280.674 252.474H283.18C283.217 252.964 283.368 253.371 283.633 253.696C283.899 254.021 284.244 254.264 284.67 254.424C285.1 254.584 285.581 254.664 286.112 254.664C286.666 254.664 287.151 254.582 287.567 254.417C287.988 254.248 288.318 254.014 288.556 253.717C288.794 253.415 288.915 253.062 288.92 252.66C288.915 252.294 288.808 251.991 288.597 251.753C288.387 251.511 288.091 251.309 287.712 251.149C287.336 250.985 286.897 250.838 286.393 250.71L284.794 250.298C283.636 250 282.72 249.55 282.048 248.945C281.379 248.337 281.045 247.529 281.045 246.522C281.045 245.694 281.269 244.968 281.718 244.346C282.171 243.723 282.787 243.24 283.565 242.897C284.343 242.549 285.224 242.375 286.208 242.375C287.206 242.375 288.08 242.549 288.831 242.897C289.586 243.24 290.179 243.719 290.609 244.332C291.039 244.941 291.261 245.641 291.275 246.433H288.824ZM293.12 244.703V242.567H304.338V244.703H299.992V256.628H297.466V244.703H293.12ZM315.364 242.567H317.911V251.753C317.911 252.76 317.673 253.646 317.197 254.41C316.726 255.175 316.062 255.772 315.206 256.202C314.35 256.628 313.35 256.841 312.206 256.841C311.057 256.841 310.055 256.628 309.199 256.202C308.343 255.772 307.679 255.175 307.208 254.41C306.736 253.646 306.501 252.76 306.501 251.753V242.567H309.048V251.541C309.048 252.126 309.176 252.648 309.432 253.106C309.693 253.564 310.059 253.923 310.531 254.184C311.002 254.44 311.56 254.568 312.206 254.568C312.851 254.568 313.409 254.44 313.881 254.184C314.357 253.923 314.723 253.564 314.979 253.106C315.236 252.648 315.364 252.126 315.364 251.541V242.567ZM325.444 256.628H320.679V242.567H325.54C326.936 242.567 328.135 242.849 329.138 243.412C330.145 243.97 330.918 244.774 331.458 245.822C331.998 246.87 332.268 248.124 332.268 249.584C332.268 251.049 331.996 252.307 331.451 253.36C330.911 254.413 330.131 255.221 329.11 255.783C328.094 256.346 326.872 256.628 325.444 256.628ZM323.227 254.424H325.32C326.3 254.424 327.117 254.246 327.771 253.889C328.426 253.527 328.918 252.989 329.248 252.275C329.577 251.557 329.742 250.66 329.742 249.584C329.742 248.508 329.577 247.616 329.248 246.906C328.918 246.192 328.431 245.659 327.785 245.307C327.144 244.95 326.348 244.771 325.396 244.771H323.227V254.424ZM334.688 256.628V242.567H343.833V244.703H337.235V248.52H343.359V250.655H337.235V254.493H343.888V256.628H334.688ZM357.986 242.567V256.628H355.721L349.096 247.051H348.979V256.628H346.432V242.567H348.711L355.329 252.152H355.453V242.567H357.986ZM362.567 256.628H359.849L364.799 242.567H367.943L372.9 256.628H370.181L366.426 245.451H366.316L362.567 256.628ZM362.656 251.115H370.071V253.161H362.656V251.115ZM372.435 244.703V242.567H383.653V244.703H379.307V256.628H376.78V244.703H372.435ZM385.922 256.628H383.203L388.153 242.567H391.297L396.254 256.628H393.536L389.78 245.451H389.67L385.922 256.628ZM386.011 251.115H393.426V253.161H386.011V251.115Z" fill="#084B7C"/>
<g opacity="0.4" filter="url(#filter10_i_1885_1028)">
<path fill-rule="evenodd" clip-rule="evenodd" d="M370.118 100.855L376.193 102.306C381.922 103.675 385.924 108.745 385.924 114.635V126.876C385.924 127.881 385.108 128.697 384.103 128.697H369.505V134.16C369.505 135.165 368.689 135.98 367.684 135.98H346.956C346.944 135.98 346.932 135.98 346.92 135.98H330.906C330.894 135.98 330.882 135.98 330.87 135.98H310.894C309.888 135.98 309.073 135.165 309.073 134.16V128.697H294.512C293.507 128.697 292.691 127.881 292.691 126.876V114.635C292.691 108.745 296.693 103.675 302.423 102.306L308.497 100.855V98.4453C305.126 96.3144 302.88 92.5562 302.88 88.2811V81.495C302.88 74.8682 308.271 69.4768 314.899 69.4768C318.489 69.4768 321.714 71.061 323.918 73.5648C325.837 66.865 332.018 61.9475 339.326 61.9475C346.623 61.9475 352.795 66.8495 354.725 73.5329C356.929 71.0475 360.142 69.4768 363.717 69.4768C370.344 69.4768 375.735 74.868 375.735 81.495V88.2811C375.735 92.556 373.49 96.3143 370.118 98.4453V100.855ZM330.567 132.339V132.338H348.048V132.339H355.874V124.324C355.874 123.319 356.689 122.503 357.695 122.503C358.7 122.503 359.516 123.319 359.516 124.324V132.339H365.863V127.588V126.876V126.163V124.131C365.863 117.951 361.665 112.632 355.654 111.196L346.724 109.063L340.967 122.154C340.676 122.815 340.022 123.242 339.3 123.242C338.578 123.242 337.924 122.815 337.633 122.154L331.871 109.044L322.915 111.19C316.909 112.629 312.715 117.947 312.715 124.123V132.339H319.099V124.324C319.099 123.319 319.915 122.503 320.92 122.503C321.926 122.503 322.741 123.319 322.741 124.324V132.339H330.567ZM372.093 81.495C372.093 76.8764 368.336 73.1187 363.717 73.1187C359.916 73.1187 356.698 75.6631 355.677 79.1378C359.085 81.0959 362.951 82.1289 366.885 82.1289H372.093V81.9459V81.495ZM355.351 83.0878C355.351 83.0878 355.346 87.798 355.34 87.984V88.2811C355.34 92.8998 359.098 96.6575 363.717 96.6575C368.336 96.6575 372.093 92.9 372.094 88.2813V85.771H366.885C362.877 85.771 358.931 84.8483 355.351 83.0878ZM339.326 65.5896C332.498 65.5896 326.943 71.1442 326.943 77.972V79.5701H332.067C336.156 79.5701 340.007 77.7728 342.632 74.6393C343.204 73.9578 344.184 73.7882 344.951 74.2389L351.709 78.2095V77.972C351.709 71.1444 346.154 65.5896 339.326 65.5896ZM306.521 81.495V81.9461V82.1291H311.73C315.664 82.1291 319.53 81.0959 322.937 79.138C321.917 75.6631 318.699 73.1187 314.898 73.1187C310.279 73.1187 306.521 76.8762 306.521 81.495ZM306.521 85.7708V88.2811C306.521 92.8998 310.279 96.6575 314.898 96.6575C319.517 96.6575 323.275 92.9 323.275 88.2811V83.0825C319.692 84.8465 315.742 85.7708 311.73 85.7708H306.521ZM309.073 125.055V124.123C309.073 120.13 310.452 116.42 312.808 113.493L309.041 104.469L303.268 105.848C299.185 106.824 296.333 110.437 296.333 114.635V125.055H299.975V116.965C299.975 115.959 300.79 115.144 301.796 115.144C302.801 115.144 303.617 115.959 303.617 116.965V125.055H309.073ZM312.133 102.423L314.899 109.048L317.654 102.451L317.654 102.451C317.648 102.394 317.643 102.337 317.643 102.279C317.643 102.245 317.644 102.211 317.646 102.177V99.9789C316.762 100.186 315.844 100.299 314.898 100.299C313.949 100.299 313.025 100.185 312.139 99.9762V102.292C312.139 102.336 312.136 102.38 312.133 102.423ZM318.988 108.707C319.963 108.265 320.991 107.906 322.066 107.649L327.841 106.265C327.418 106.093 326.982 105.951 326.534 105.843L320.761 104.46L318.988 108.707ZM327.383 102.302C328.707 102.619 329.961 103.144 331.105 103.853V101.174C328.531 99.6287 326.424 97.3828 325.051 94.7007C324.091 96.2136 322.803 97.4977 321.288 98.4531V100.841L327.383 102.302ZM339.3 116.897L343.848 106.556V102.798C342.413 103.22 340.896 103.448 339.326 103.448C337.735 103.448 336.198 103.214 334.746 102.781V106.536L339.3 116.897ZM326.943 87.424C326.943 94.2517 332.498 99.8065 339.326 99.8066C346.011 99.8066 351.472 94.4817 351.698 87.8514V82.427L344.374 78.1243C341.12 81.3752 336.715 83.2122 332.067 83.2122H326.943V87.424ZM353.585 94.7328C352.201 97.4207 350.079 99.6683 347.489 101.208V103.866C348.638 103.151 349.9 102.621 351.232 102.302L357.327 100.841V98.4531C355.822 97.5042 354.542 96.2316 353.585 94.7328ZM350.741 106.279L356.5 107.655C357.59 107.915 358.632 108.279 359.62 108.729L357.84 104.464L352.081 105.843C351.621 105.954 351.174 106.1 350.741 106.279ZM360.97 102.279C360.97 102.345 360.965 102.412 360.957 102.478L363.7 109.048L366.48 102.39C366.479 102.358 366.476 102.325 366.476 102.292V99.976C365.59 100.185 364.666 100.299 363.717 100.299C362.771 100.299 361.852 100.186 360.969 99.9789V102.228C360.97 102.238 360.97 102.249 360.97 102.259C360.97 102.266 360.97 102.272 360.97 102.279ZM378.64 125.055H382.282V114.635C382.282 110.437 379.43 106.824 375.346 105.848L369.56 104.466L365.781 113.515C368.131 116.439 369.505 120.144 369.505 124.132V125.055H374.998V116.965C374.998 115.959 375.813 115.144 376.819 115.144C377.824 115.144 378.64 115.959 378.64 116.965V125.055Z" fill="#1EBCEF"/>
</g>
<g filter="url(#filter11_d_1885_1028)">
<circle cx="440.614" cy="46.6527" r="28.6527" fill="white"/>
</g>
<circle cx="440.614" cy="46.6528" r="26.2649" fill="white"/>
<path d="M455.573 40.0107C455.56 39.815 455.527 39.621 455.476 39.4316C455.459 39.3613 455.436 39.2943 455.416 39.224C455.202 38.5863 454.816 38.0199 454.301 37.587C454.291 37.5714 454.277 37.5588 454.261 37.5502C454.201 37.4999 454.14 37.4531 454.073 37.4062C453.967 37.3234 453.855 37.2485 453.739 37.1819L452.617 36.5458L449.681 34.872L449.069 34.5372L448.734 34.3464L448.278 34.0886C448.176 34.0274 448.062 33.9876 447.943 33.9713C447.824 33.955 447.704 33.9627 447.588 33.994C447.473 34.0252 447.365 34.0793 447.271 34.153C447.176 34.2268 447.098 34.3187 447.04 34.4234C446.92 34.6343 446.888 34.8837 446.951 35.118C447.014 35.3522 447.166 35.5524 447.375 35.6754L447.666 35.8428L447.93 35.9968L448.135 36.114L448.53 36.3383L448.824 36.5023L452.527 38.5946L452.554 38.6147C452.641 38.6635 452.725 38.7183 452.805 38.7788C452.854 38.8121 452.901 38.849 452.945 38.8892C452.956 38.8976 452.965 38.9078 452.972 38.9194C453.223 39.1384 453.425 39.4084 453.563 39.7115C453.702 40.0145 453.774 40.3437 453.775 40.6769L453.705 52.9664C453.705 53.3451 453.607 53.7174 453.419 54.0462C453.231 54.3751 452.96 54.6491 452.634 54.8411L442.035 61.1783C441.667 61.3914 441.249 61.5036 440.823 61.5036C440.398 61.5036 439.98 61.3914 439.611 61.1783L429.34 55.37C428.969 55.1653 428.66 54.8654 428.443 54.5011C428.227 54.1369 428.111 53.7215 428.109 53.2978L428.175 41.0083C428.177 40.629 428.276 40.2565 428.465 39.9273C428.653 39.598 428.924 39.3234 429.25 39.1303L437.241 34.3531L437.449 34.2292L438.818 33.3622C438.744 33.6501 438.674 33.9346 438.6 34.2125C438.575 34.308 438.569 34.4079 438.584 34.5057C438.599 34.6036 438.634 34.6973 438.686 34.7809C438.739 34.8646 438.809 34.9364 438.891 34.9918C438.973 35.0472 439.065 35.0851 439.163 35.103H439.243C439.308 35.1188 439.374 35.1267 439.441 35.1264C439.621 35.1225 439.795 35.0565 439.933 34.9394C440.071 34.8224 440.164 34.6614 440.197 34.4837L440.917 31.6783C440.945 31.5709 440.952 31.4589 440.936 31.3489C440.92 31.239 440.881 31.1335 440.823 31.0389C440.769 30.9485 440.696 30.8702 440.61 30.8086C440.525 30.747 440.427 30.7035 440.324 30.6807L437.492 29.9776C437.393 29.9453 437.288 29.9328 437.183 29.9411C437.079 29.9493 436.977 29.978 436.884 30.0256C436.791 30.0731 436.708 30.1386 436.64 30.2183C436.572 30.2979 436.52 30.3902 436.488 30.4898L436.441 30.6472C436.417 30.738 436.412 30.8328 436.426 30.9257C436.439 31.0186 436.472 31.1077 436.521 31.1878C436.57 31.2679 436.635 31.3372 436.711 31.3915C436.788 31.4459 436.875 31.4842 436.967 31.5042L437.941 31.7519L436.602 32.6022L436.317 32.7696L428.028 37.751C427.519 38.0531 427.097 38.4821 426.804 38.9962C426.51 39.5103 426.356 40.0917 426.354 40.6836L426.287 53.6593C426.289 54.3036 426.462 54.9359 426.789 55.4908C427.116 56.0458 427.586 56.5034 428.149 56.8162L438.982 62.9526C439.54 63.2713 440.171 63.4387 440.813 63.438C441.462 63.4397 442.099 63.2662 442.658 62.9359L453.842 56.2404C454.353 55.9397 454.775 55.5109 455.069 54.9965C455.362 54.4822 455.517 53.9001 455.516 53.3078L455.587 40.3421C455.588 40.2303 455.582 40.1185 455.57 40.0074" fill="#0B4978"/>
<path d="M447.575 42.0762L442.088 38.9762C441.75 38.7853 441.367 38.6849 440.979 38.6849C440.59 38.6849 440.208 38.7853 439.869 38.9762L434.221 42.3541C433.91 42.5375 433.653 42.7989 433.473 43.1124C433.294 43.4259 433.2 43.7807 433.2 44.1417L433.167 50.0973V50.6932C433.168 51.0585 433.261 51.4176 433.436 51.7379C433.611 52.0583 433.864 52.3298 434.171 52.5278L435.493 53.281L435.654 53.3714L435.765 53.4316L436.099 53.6292C436.225 53.6996 436.367 53.7365 436.511 53.7363C436.582 53.7372 436.652 53.7258 436.719 53.7028C436.824 53.6761 436.922 53.6282 437.008 53.562C437.094 53.4957 437.165 53.4127 437.217 53.3178C437.271 53.2233 437.306 53.1192 437.319 53.0113C437.333 52.9034 437.325 52.794 437.296 52.6892C437.267 52.5844 437.218 52.4863 437.151 52.4006C437.084 52.3149 437.001 52.2432 436.906 52.1896H436.886L436.551 52.0022L436.397 51.9051L435.915 51.6339L435.855 51.6004L435.266 51.2657C435.135 51.1936 435.025 51.0881 434.948 50.9599C434.871 50.8317 434.829 50.6854 434.827 50.5359L434.861 44.3292C434.861 44.2001 434.894 44.0733 434.958 43.9611C435.022 43.849 435.114 43.7555 435.226 43.6898L440.582 40.4894C440.714 40.4145 440.862 40.3752 441.014 40.3752C441.165 40.3752 441.314 40.4145 441.446 40.4894L446.631 43.422C446.763 43.4931 446.873 43.5985 446.949 43.727C447.026 43.8554 447.066 44.0022 447.066 44.1518L447.036 50.3584C447.036 50.4875 447.003 50.6144 446.939 50.7265C446.875 50.8386 446.783 50.9321 446.671 50.9979L442.771 53.3413C442.825 53.1437 442.875 52.9496 442.925 52.7621C442.949 52.6785 442.955 52.591 442.943 52.505C442.931 52.419 442.901 52.3364 442.856 52.2623C442.811 52.1882 442.751 52.1241 442.68 52.0742C442.609 52.0243 442.528 51.9895 442.443 51.972H442.39C442.301 51.9483 442.208 51.9432 442.117 51.957C442.026 51.9708 441.939 52.0033 441.861 52.0523C441.783 52.1013 441.716 52.1658 441.664 52.2419C441.612 52.3179 441.577 52.4039 441.559 52.4943L440.984 54.5833C440.959 54.6752 440.953 54.7713 440.966 54.8657C440.979 54.9601 441.011 55.0508 441.061 55.1323C441.106 55.2105 441.167 55.2787 441.239 55.3328C441.312 55.3869 441.395 55.4257 441.482 55.447L443.568 55.996C443.643 56.0186 443.721 56.0299 443.799 56.0295C443.943 56.0335 444.083 55.9896 444.199 55.9047C444.315 55.8199 444.399 55.6988 444.438 55.5608L444.479 55.4302C444.499 55.3511 444.504 55.2686 444.492 55.1877C444.48 55.1068 444.453 55.029 444.411 54.9589C444.368 54.8888 444.313 54.8277 444.247 54.7793C444.181 54.7309 444.106 54.6962 444.027 54.677L443.819 54.6234L447.639 52.3403C447.95 52.1568 448.208 51.8955 448.387 51.582C448.566 51.2684 448.66 50.9137 448.66 50.5526L448.697 44.0011C448.697 43.6121 448.593 43.2301 448.395 42.8946C448.198 42.5592 447.915 42.2824 447.575 42.0929" fill="#20BDEF"/>
<defs>
<filter id="filter0_b_1885_1028" x="396.299" y="57.3568" width="404.499" height="436.203" filterUnits="userSpaceOnUse" color-interpolation-filters="sRGB">
<feFlood flood-opacity="0" result="BackgroundImageFix"/>
<feGaussianBlur in="BackgroundImageFix" stdDeviation="43.7296"/>
<feComposite in2="SourceAlpha" operator="in" result="effect1_backgroundBlur_1885_1028"/>
<feBlend mode="normal" in="SourceGraphic" in2="effect1_backgroundBlur_1885_1028" result="shape"/>
</filter>
<filter id="filter1_i_1885_1028" x="570.124" y="155.748" width="134.603" height="134.603" filterUnits="userSpaceOnUse" color-interpolation-filters="sRGB">
<feFlood flood-opacity="0" result="BackgroundImageFix"/>
<feBlend mode="normal" in="SourceGraphic" in2="BackgroundImageFix" result="shape"/>
<feColorMatrix in="SourceAlpha" type="matrix" values="0 0 0 0 0 0 0 0 0 0 0 0 0 0 0 0 0 0 127 0" result="hardAlpha"/>
<feOffset dx="2.32074" dy="2.32074"/>
<feGaussianBlur stdDeviation="1.74055"/>
<feComposite in2="hardAlpha" operator="arithmetic" k2="-1" k3="1"/>
<feColorMatrix type="matrix" values="0 0 0 0 0 0 0 0 0 0 0 0 0 0 0 0 0 0 0.05 0"/>
<feBlend mode="normal" in2="shape" result="effect1_innerShadow_1885_1028"/>
</filter>
<filter id="filter2_bd_1885_1028" x="396.299" y="57.3568" width="404.499" height="449.322" filterUnits="userSpaceOnUse" color-interpolation-filters="sRGB">
<feFlood flood-opacity="0" result="BackgroundImageFix"/>
<feGaussianBlur in="BackgroundImageFix" stdDeviation="43.7296"/>
<feComposite in2="SourceAlpha" operator="in" result="effect1_backgroundBlur_1885_1028"/>
<feColorMatrix in="SourceAlpha" type="matrix" values="0 0 0 0 0 0 0 0 0 0 0 0 0 0 0 0 0 0 127 0" result="hardAlpha"/>
<feMorphology radius="19.6783" operator="erode" in="SourceAlpha" result="effect2_dropShadow_1885_1028"/>
<feOffset dy="43.7296"/>
<feGaussianBlur stdDeviation="38.2634"/>
<feColorMatrix type="matrix" values="0 0 0 0 0 0 0 0 0 0 0 0 0 0 0 0 0 0 0.1 0"/>
<feBlend mode="normal" in2="effect1_backgroundBlur_1885_1028" result="effect2_dropShadow_1885_1028"/>
<feBlend mode="normal" in="SourceGraphic" in2="effect2_dropShadow_1885_1028" result="shape"/>
</filter>
<filter id="filter3_b_1885_1028" x="-83.3535" y="110.469" width="362.587" height="393.844" filterUnits="userSpaceOnUse" color-interpolation-filters="sRGB">
<feFlood flood-opacity="0" result="BackgroundImageFix"/>
<feGaussianBlur in="BackgroundImageFix" stdDeviation="41.6766"/>
<feComposite in2="SourceAlpha" operator="in" result="effect1_backgroundBlur_1885_1028"/>
<feBlend mode="normal" in="SourceGraphic" in2="effect1_backgroundBlur_1885_1028" result="shape"/>
</filter>
<filter id="filter4_d_1885_1028" x="92.6165" y="435.422" width="332.626" height="355.037" filterUnits="userSpaceOnUse" color-interpolation-filters="sRGB">
<feFlood flood-opacity="0" result="BackgroundImageFix"/>
<feColorMatrix in="SourceAlpha" type="matrix" values="0 0 0 0 0 0 0 0 0 0 0 0 0 0 0 0 0 0 127 0" result="hardAlpha"/>
<feMorphology radius="21.6116" operator="erode" in="SourceAlpha" result="effect1_dropShadow_1885_1028"/>
<feOffset dy="48.0258"/>
<feGaussianBlur stdDeviation="42.0226"/>
<feColorMatrix type="matrix" values="0 0 0 0 0 0 0 0 0 0 0 0 0 0 0 0 0 0 0.1 0"/>
<feBlend mode="normal" in2="BackgroundImageFix" result="effect1_dropShadow_1885_1028"/>
<feBlend mode="normal" in="SourceGraphic" in2="effect1_dropShadow_1885_1028" result="shape"/>
</filter>
<filter id="filter5_d_1885_1028" x="121.99" y="245.721" width="435.634" height="319.919" filterUnits="userSpaceOnUse" color-interpolation-filters="sRGB">
<feFlood flood-opacity="0" result="BackgroundImageFix"/>
<feColorMatrix in="SourceAlpha" type="matrix" values="0 0 0 0 0 0 0 0 0 0 0 0 0 0 0 0 0 0 127 0" result="hardAlpha"/>
<feMorphology radius="19.059" operator="erode" in="SourceAlpha" result="effect1_dropShadow_1885_1028"/>
<feOffset dy="47.6475"/>
<feGaussianBlur stdDeviation="54.4543"/>
<feColorMatrix type="matrix" values="0 0 0 0 0 0 0 0 0 0 0 0 0 0 0 0 0 0 0.08 0"/>
<feBlend mode="normal" in2="BackgroundImageFix" result="effect1_dropShadow_1885_1028"/>
<feBlend mode="normal" in="SourceGraphic" in2="effect1_dropShadow_1885_1028" result="shape"/>
</filter>
<filter id="filter6_b_1885_1028" x="284.112" y="355.863" width="653.525" height="329.183" filterUnits="userSpaceOnUse" color-interpolation-filters="sRGB">
<feFlood flood-opacity="0" result="BackgroundImageFix"/>
<feGaussianBlur in="BackgroundImageFix" stdDeviation="48.4092"/>
<feComposite in2="SourceAlpha" operator="in" result="effect1_backgroundBlur_1885_1028"/>
<feBlend mode="normal" in="SourceGraphic" in2="effect1_backgroundBlur_1885_1028" result="shape"/>
</filter>
<filter id="filter7_i_1885_1028" x="171.448" y="466.229" width="97.4242" height="102.89" filterUnits="userSpaceOnUse" color-interpolation-filters="sRGB">
<feFlood flood-opacity="0" result="BackgroundImageFix"/>
<feBlend mode="normal" in="SourceGraphic" in2="BackgroundImageFix" result="shape"/>
<feColorMatrix in="SourceAlpha" type="matrix" values="0 0 0 0 0 0 0 0 0 0 0 0 0 0 0 0 0 0 127 0" result="hardAlpha"/>
<feOffset dx="2.31214" dy="2.31214"/>
<feGaussianBlur stdDeviation="1.73411"/>
<feComposite in2="hardAlpha" operator="arithmetic" k2="-1" k3="1"/>
<feColorMatrix type="matrix" values="0 0 0 0 0 0 0 0 0 0 0 0 0 0 0 0 0 0 0.15 0"/>
<feBlend mode="normal" in2="shape" result="effect1_innerShadow_1885_1028"/>
</filter>
<filter id="filter8_bd_1885_1028" x="148.49" y="-41.0351" width="381.541" height="416.949" filterUnits="userSpaceOnUse" color-interpolation-filters="sRGB">
<feFlood flood-opacity="0" result="BackgroundImageFix"/>
<feGaussianBlur in="BackgroundImageFix" stdDeviation="43.7296"/>
<feComposite in2="SourceAlpha" operator="in" result="effect1_backgroundBlur_1885_1028"/>
<feColorMatrix in="SourceAlpha" type="matrix" values="0 0 0 0 0 0 0 0 0 0 0 0 0 0 0 0 0 0 127 0" result="hardAlpha"/>
<feMorphology radius="19.6783" operator="erode" in="SourceAlpha" result="effect2_dropShadow_1885_1028"/>
<feOffset dy="43.7296"/>
<feGaussianBlur stdDeviation="38.2634"/>
<feColorMatrix type="matrix" values="0 0 0 0 0 0 0 0 0 0 0 0 0 0 0 0 0 0 0.1 0"/>
<feBlend mode="normal" in2="effect1_backgroundBlur_1885_1028" result="effect2_dropShadow_1885_1028"/>
<feBlend mode="normal" in="SourceGraphic" in2="effect2_dropShadow_1885_1028" result="shape"/>
</filter>
<filter id="filter9_bd_1885_1028" x="148.49" y="-41.0351" width="381.541" height="416.949" filterUnits="userSpaceOnUse" color-interpolation-filters="sRGB">
<feFlood flood-opacity="0" result="BackgroundImageFix"/>
<feGaussianBlur in="BackgroundImageFix" stdDeviation="43.7296"/>
<feComposite in2="SourceAlpha" operator="in" result="effect1_backgroundBlur_1885_1028"/>
<feColorMatrix in="SourceAlpha" type="matrix" values="0 0 0 0 0 0 0 0 0 0 0 0 0 0 0 0 0 0 127 0" result="hardAlpha"/>
<feMorphology radius="19.6783" operator="erode" in="SourceAlpha" result="effect2_dropShadow_1885_1028"/>
<feOffset dy="43.7296"/>
<feGaussianBlur stdDeviation="38.2634"/>
<feColorMatrix type="matrix" values="0 0 0 0 0 0 0 0 0 0 0 0 0 0 0 0 0 0 0.1 0"/>
<feBlend mode="normal" in2="effect1_backgroundBlur_1885_1028" result="effect2_dropShadow_1885_1028"/>
<feBlend mode="normal" in="SourceGraphic" in2="effect2_dropShadow_1885_1028" result="shape"/>
</filter>
<filter id="filter10_i_1885_1028" x="292.691" y="61.9475" width="95.1172" height="75.9178" filterUnits="userSpaceOnUse" color-interpolation-filters="sRGB">
<feFlood flood-opacity="0" result="BackgroundImageFix"/>
<feBlend mode="normal" in="SourceGraphic" in2="BackgroundImageFix" result="shape"/>
<feColorMatrix in="SourceAlpha" type="matrix" values="0 0 0 0 0 0 0 0 0 0 0 0 0 0 0 0 0 0 127 0" result="hardAlpha"/>
<feOffset dx="1.88482" dy="1.88482"/>
<feGaussianBlur stdDeviation="1.41361"/>
<feComposite in2="hardAlpha" operator="arithmetic" k2="-1" k3="1"/>
<feColorMatrix type="matrix" values="0 0 0 0 0 0 0 0 0 0 0 0 0 0 0 0 0 0 0.06 0"/>
<feBlend mode="normal" in2="shape" result="effect1_innerShadow_1885_1028"/>
</filter>
<filter id="filter11_d_1885_1028" x="340.33" y="0.0920849" width="152.814" height="152.814" filterUnits="userSpaceOnUse" color-interpolation-filters="sRGB">
<feFlood flood-opacity="0" result="BackgroundImageFix"/>
<feColorMatrix in="SourceAlpha" type="matrix" values="0 0 0 0 0 0 0 0 0 0 0 0 0 0 0 0 0 0 127 0" result="hardAlpha"/>
<feOffset dx="-23.8772" dy="29.8465"/>
<feGaussianBlur stdDeviation="23.8772"/>
<feColorMatrix type="matrix" values="0 0 0 0 0.0627451 0 0 0 0 0.145098 0 0 0 0 0.227451 0 0 0 0.15 0"/>
<feBlend mode="normal" in2="BackgroundImageFix" result="effect1_dropShadow_1885_1028"/>
<feBlend mode="normal" in="SourceGraphic" in2="effect1_dropShadow_1885_1028" result="shape"/>
</filter>
<linearGradient id="paint0_linear_1885_1028" x1="598.549" y1="144.816" x2="598.549" y2="406.101" gradientUnits="userSpaceOnUse">
<stop stop-color="#DCDCDC"/>
<stop offset="1" stop-color="#DCDCDC" stop-opacity="0.2"/>
</linearGradient>
<linearGradient id="paint1_linear_1885_1028" x1="97.9398" y1="193.822" x2="97.9398" y2="420.959" gradientUnits="userSpaceOnUse">
<stop stop-color="#DCDCDC"/>
<stop offset="1" stop-color="#DCDCDC" stop-opacity="0.2"/>
</linearGradient>
<linearGradient id="paint2_linear_1885_1028" x1="258.929" y1="449.83" x2="258.929" y2="680" gradientUnits="userSpaceOnUse">
<stop stop-color="#DCDCDC"/>
<stop offset="1" stop-color="#DCDCDC" stop-opacity="0.2"/>
</linearGradient>
<linearGradient id="paint3_linear_1885_1028" x1="211.611" y1="357.413" x2="444.983" y2="357.413" gradientUnits="userSpaceOnUse">
<stop stop-color="#DCDCDC"/>
<stop offset="1" stop-color="#DCDCDC" stop-opacity="0.2"/>
</linearGradient>
<linearGradient id="paint4_linear_1885_1028" x1="380.519" y1="520.454" x2="687.313" y2="520.454" gradientUnits="userSpaceOnUse">
<stop stop-color="#DCDCDC"/>
<stop offset="1" stop-color="#DCDCDC" stop-opacity="0.2"/>
</linearGradient>
<linearGradient id="paint5_linear_1885_1028" x1="339.261" y1="46.4242" x2="339.261" y2="275.335" gradientUnits="userSpaceOnUse">
<stop stop-color="#DCDCDC"/>
<stop offset="1" stop-color="#DCDCDC" stop-opacity="0.2"/>
</linearGradient>
<clipPath id="clip0_1885_1028">
<rect width="132.282" height="132.282" fill="white" transform="translate(570.124 155.748)"/>
</clipPath>
<clipPath id="clip1_1885_1028">
<rect width="88.6982" height="88.6982" fill="white" transform="translate(15.6284 209.451)"/>
</clipPath>
<clipPath id="clip2_1885_1028">
<rect width="95.112" height="100.578" fill="white" transform="translate(171.448 466.229)"/>
</clipPath>
</defs>
</svg>
