<svg width="795" height="793" viewBox="0 0 795 793" fill="none" xmlns="http://www.w3.org/2000/svg">
<g opacity="0.25" filter="url(#filter0_b_1837_474)">
<rect x="456.623" y="145.199" width="230.274" height="262.074" rx="5.95214" fill="white"/>
</g>
<g opacity="0.7" clip-path="url(#clip0_1837_474)" filter="url(#filter1_i_1837_474)">
<path d="M560.568 180.779H592.269C593.343 180.779 594.213 179.909 594.213 178.835C594.213 177.762 593.343 176.892 592.269 176.892H560.568C559.494 176.892 558.625 177.762 558.625 178.835C558.625 179.909 559.495 180.779 560.568 180.779Z" fill="white"/>
<path d="M560.568 190.187H592.269C593.343 190.187 594.213 189.316 594.213 188.243C594.213 187.17 593.343 186.299 592.269 186.299H560.568C559.494 186.299 558.625 187.17 558.625 188.243C558.625 189.316 559.495 190.187 560.568 190.187Z" fill="white"/>
<path d="M560.568 199.594H576.419C577.492 199.594 578.362 198.724 578.362 197.65C578.362 196.577 577.492 195.707 576.419 195.707H560.568C559.494 195.707 558.625 196.577 558.625 197.65C558.625 198.724 559.495 199.594 560.568 199.594Z" fill="white"/>
<path d="M672.724 272.53C673.798 272.53 674.668 271.659 674.668 270.586V268.015C674.668 260.523 670.732 253.746 664.672 249.892C661.525 247.355 653.875 246.316 653.166 246.103L649.729 245.399C647.926 245.03 646.557 243.426 646.557 241.513V238.519C647.458 237.95 648.331 237.307 649.173 236.582C652.045 234.106 653.92 230.56 654.608 226.398H655.082C659.027 226.398 662.237 223.188 662.237 219.243C662.237 216.739 660.962 214.493 658.903 213.201V206.455C658.903 194.059 647.9 192.536 645.323 192.35C642.217 190.682 638.791 189.941 635.907 189.991V168.451C638.31 167.547 640.025 165.225 640.025 162.51C640.025 159.011 637.178 156.164 633.679 156.164H550.859C547.36 156.164 544.513 159.011 544.513 162.51C544.513 165.225 546.228 167.547 548.631 168.451V216.391C548.631 219.054 550.797 221.221 553.46 221.221H572.647C573.72 221.221 574.59 220.35 574.59 219.277C574.59 218.204 573.72 217.333 572.647 217.333H553.46C552.94 217.333 552.518 216.911 552.518 216.391V168.856H632.02V190.43C630.402 190.774 628.84 191.319 627.347 192.063V181.641C627.347 179.022 625.217 176.892 622.598 176.892H605.674C603.056 176.892 600.925 179.022 600.925 181.641V194.845C600.925 197.463 603.056 199.594 605.674 199.594H614.682C613.779 201.397 613.213 203.646 613.213 206.455V213.201C611.696 214.153 610.608 215.623 610.139 217.334H591.796C590.722 217.334 589.853 218.204 589.853 219.277C589.853 220.351 590.722 221.221 591.796 221.221H610.159C611.02 224.207 613.775 226.398 617.034 226.398H617.51C618.182 230.589 620.028 234.072 622.941 236.582C623.769 237.296 624.628 237.93 625.513 238.492V241.513C625.513 243.396 624.175 245.024 622.341 245.399C621.588 245.554 615.37 246.826 614.558 246.992C609.253 248.078 604.521 251.169 601.388 255.565L598.51 246.994C598.185 246.026 597.515 245.268 596.683 244.812L596.932 241.421C597.099 239.666 596.545 237.892 595.409 236.544L590.243 230.247C589.553 229.405 588.553 228.9 587.483 228.838L580.667 208.533C580.326 207.515 579.225 206.967 578.206 207.308C577.189 207.65 576.641 208.752 576.982 209.769L583.97 230.589L581.672 233.523C581.162 234.175 580.857 234.955 580.79 235.779C580.805 238.01 579.673 240.869 581.801 243.993C582.596 245.16 584.124 246.895 585.397 248.28C585.083 248.975 584.966 249.767 585.108 250.572L590.583 281.572C591.328 285.787 594.975 288.846 599.255 288.846H670.137C672.636 288.846 674.668 286.814 674.668 284.316V279.672C674.668 278.598 673.798 277.728 672.724 277.728C671.651 277.728 670.781 278.598 670.781 279.672V284.316C670.781 284.67 670.492 284.959 670.137 284.959H662.185V268.235C662.185 260.631 664.211 255.51 664.454 254.536C668.346 257.797 670.781 262.684 670.781 268.015V270.586C670.781 271.659 671.651 272.53 672.724 272.53ZM550.859 160.052H633.679C635.035 160.052 636.137 161.155 636.137 162.51C636.137 163.781 635.168 164.83 633.93 164.956C633.874 164.957 633.819 164.959 633.764 164.965C633.736 164.966 633.708 164.969 633.679 164.969H550.859C550.83 164.969 550.802 164.966 550.774 164.965C550.719 164.959 550.664 164.957 550.608 164.956C549.37 164.83 548.401 163.781 548.401 162.51C548.401 161.155 549.504 160.052 550.859 160.052ZM643.557 254.417L639.656 251.953L645.967 247.911C646.82 248.521 647.789 248.953 648.832 249.182L643.557 254.417ZM655.082 222.511H654.898V215.975C655.012 215.984 655.548 215.924 656.258 216.199H656.258C657.529 216.69 658.35 217.886 658.35 219.243C658.349 221.045 656.884 222.511 655.082 222.511ZM655.016 206.455V212.088C653.526 212.085 653.307 212.094 653.103 212.079C652.089 211.984 651.291 211.128 651.29 210.087L651.286 203.687C651.286 203.673 651.285 203.66 651.285 203.647C651.238 201.435 650.693 199.312 649.701 197.384C653.436 199.11 655.016 202.342 655.016 206.455ZM604.813 194.845V181.641C604.813 181.166 605.199 180.779 605.675 180.779H622.598C623.074 180.779 623.46 181.165 623.46 181.641V192.922C621.714 193.39 619.638 194.223 617.812 195.707H605.675C605.199 195.707 604.813 195.32 604.813 194.845ZM620.83 203.647C620.83 203.66 620.83 203.674 620.83 203.687L620.825 210.087C620.824 211.191 619.928 212.088 618.827 212.088H617.1V206.455C617.1 202.375 618.652 199.126 622.414 197.384C621.423 199.312 620.878 201.435 620.83 203.647ZM613.768 219.277C613.768 219.277 613.768 219.277 613.768 219.277C613.768 219.265 613.767 219.254 613.766 219.242C613.767 217.885 614.588 216.69 615.858 216.198C616.241 216.05 616.637 215.975 617.034 215.975H617.223L617.228 222.511H617.034C615.244 222.511 613.787 221.063 613.768 219.277ZM621.116 223.179L621.11 215.514C623.224 214.62 624.711 212.526 624.713 210.091L624.717 203.711C624.787 200.685 626.079 197.981 628.452 195.872C633.193 193.251 638.837 193.202 643.668 195.876C646.038 197.984 647.329 200.687 647.399 203.711L647.404 210.091C647.406 212.528 648.895 214.623 651.011 215.516V223.202C651.011 223.221 651.011 223.24 651.012 223.259C650.908 227.217 649.658 231.033 646.636 233.637C640.442 238.976 631.863 239.14 625.479 233.637C622.449 231.027 621.205 227.177 621.116 223.179ZM642.67 240.426C642.722 241.084 642.428 242.798 643.446 244.91L636.035 249.656L628.624 244.91C629.643 242.796 629.347 241.08 629.399 240.411C633.717 241.978 638.3 242.001 642.67 240.426ZM626.104 247.911L632.414 251.953L628.513 254.417L623.238 249.182C624.281 248.953 625.25 248.521 626.104 247.911ZM584.393 239.458C584.691 236.004 584.621 236.062 584.733 235.919L587.235 232.715C587.236 232.714 587.238 232.713 587.239 232.713L592.412 239.02C592.419 239.028 592.426 239.036 592.432 239.044C592.904 239.601 593.134 240.337 593.061 241.063C593.06 241.079 593.058 241.096 593.057 241.112L592.79 244.746L588.536 245.948C587.424 244.746 585.748 242.883 585.014 241.804C584.547 241.118 584.326 240.285 584.393 239.458ZM594.411 280.896L588.937 249.896C588.935 249.884 588.942 249.873 588.953 249.869L594.797 248.217C594.81 248.213 594.822 248.221 594.825 248.231C595.682 250.785 601.778 268.947 602.324 270.573C602.666 271.592 603.769 272.138 604.785 271.797C605.803 271.456 606.351 270.354 606.01 269.336L603.018 260.424C604.122 258.123 605.698 256.119 607.612 254.522C607.694 254.852 609.885 260.433 609.885 268.235V284.959H599.255C596.864 284.959 594.827 283.25 594.411 280.896ZM658.298 268.235V284.959H613.772V268.235C613.772 259.541 611.101 252.819 610.972 252.317C612.339 251.629 613.804 251.114 615.338 250.8L618.663 250.119L625.789 257.189C627.072 258.463 629.039 258.682 630.573 257.713L636.035 254.263L641.497 257.713C643.029 258.68 644.996 258.465 646.282 257.189L653.407 250.119L656.733 250.8C658.277 251.116 659.739 251.633 661.097 252.319C660.898 253.095 658.298 259.318 658.298 268.235Z" fill="white"/>
</g>
<g filter="url(#filter2_bd_1837_474)">
<rect x="457.171" y="145.747" width="229.178" height="260.977" rx="4.93445" stroke="url(#paint0_linear_1837_474)" stroke-width="1.09654"/>
</g>
<g opacity="0.25" filter="url(#filter3_b_1837_474)">
<rect x="378.045" y="434.687" width="416.687" height="122.813" rx="8.77235" fill="white"/>
</g>
<path opacity="0.96" d="M543.884 489.487V471.942H550.464C551.811 471.942 552.942 472.193 553.856 472.696C554.775 473.198 555.469 473.889 555.938 474.769C556.412 475.643 556.649 476.636 556.649 477.75C556.649 478.875 556.412 479.875 555.938 480.748C555.464 481.622 554.764 482.31 553.839 482.813C552.914 483.31 551.774 483.558 550.421 483.558H546.06V480.946H549.992C550.781 480.946 551.426 480.808 551.928 480.534C552.431 480.26 552.802 479.883 553.042 479.404C553.288 478.924 553.411 478.373 553.411 477.75C553.411 477.128 553.288 476.579 553.042 476.105C552.802 475.631 552.428 475.263 551.92 475C551.417 474.732 550.769 474.598 549.975 474.598H547.063V489.487H543.884ZM575.087 480.714C575.087 482.605 574.732 484.224 574.024 485.572C573.322 486.914 572.362 487.942 571.146 488.656C569.935 489.369 568.562 489.726 567.025 489.726C565.489 489.726 564.113 489.369 562.896 488.656C561.685 487.936 560.726 486.905 560.018 485.563C559.315 484.215 558.964 482.599 558.964 480.714C558.964 478.824 559.315 477.208 560.018 475.865C560.726 474.518 561.685 473.487 562.896 472.773C564.113 472.059 565.489 471.702 567.025 471.702C568.562 471.702 569.935 472.059 571.146 472.773C572.362 473.487 573.322 474.518 574.024 475.865C574.732 477.208 575.087 478.824 575.087 480.714ZM571.891 480.714C571.891 479.384 571.683 478.261 571.266 477.347C570.855 476.428 570.283 475.734 569.552 475.266C568.821 474.792 567.979 474.555 567.025 474.555C566.071 474.555 565.229 474.792 564.498 475.266C563.767 475.734 563.193 476.428 562.776 477.347C562.365 478.261 562.159 479.384 562.159 480.714C562.159 482.045 562.365 483.17 562.776 484.09C563.193 485.003 563.767 485.697 564.498 486.171C565.229 486.64 566.071 486.874 567.025 486.874C567.979 486.874 568.821 486.64 569.552 486.171C570.283 485.697 570.855 485.003 571.266 484.09C571.683 483.17 571.891 482.045 571.891 480.714ZM587.626 476.765C587.546 476.017 587.209 475.434 586.615 475.017C586.027 474.6 585.262 474.392 584.319 474.392C583.657 474.392 583.089 474.492 582.615 474.692C582.141 474.892 581.778 475.163 581.527 475.506C581.275 475.848 581.147 476.24 581.141 476.679C581.141 477.045 581.224 477.362 581.39 477.63C581.561 477.899 581.792 478.127 582.083 478.316C582.375 478.498 582.697 478.652 583.051 478.778C583.406 478.904 583.763 479.009 584.122 479.095L585.767 479.506C586.43 479.661 587.066 479.869 587.678 480.132C588.294 480.394 588.845 480.726 589.331 481.125C589.822 481.525 590.21 482.008 590.496 482.573C590.782 483.139 590.924 483.801 590.924 484.561C590.924 485.589 590.662 486.494 590.136 487.276C589.611 488.053 588.851 488.661 587.857 489.101C586.869 489.535 585.673 489.752 584.268 489.752C582.903 489.752 581.718 489.541 580.713 489.118C579.713 488.696 578.931 488.079 578.365 487.268C577.806 486.457 577.503 485.469 577.457 484.304H580.584C580.63 484.915 580.818 485.423 581.15 485.829C581.481 486.234 581.912 486.537 582.443 486.737C582.98 486.937 583.58 487.036 584.242 487.036C584.933 487.036 585.539 486.934 586.058 486.728C586.584 486.517 586.995 486.225 587.292 485.854C587.589 485.477 587.74 485.038 587.746 484.535C587.74 484.078 587.606 483.701 587.343 483.404C587.081 483.101 586.712 482.85 586.238 482.65C585.77 482.445 585.222 482.262 584.593 482.102L582.597 481.588C581.153 481.217 580.01 480.654 579.171 479.9C578.337 479.141 577.92 478.133 577.92 476.876C577.92 475.843 578.2 474.937 578.76 474.161C579.325 473.384 580.093 472.781 581.064 472.353C582.035 471.919 583.134 471.702 584.362 471.702C585.607 471.702 586.698 471.919 587.635 472.353C588.577 472.781 589.317 473.378 589.853 474.144C590.39 474.903 590.667 475.777 590.684 476.765H587.626ZM593.758 489.487V471.942H605.169V474.606H596.936V479.369H604.578V482.034H596.936V486.822H605.237V489.487H593.758ZM607.64 474.606V471.942H621.638V474.606H616.216V489.487H613.063V474.606H607.64ZM624.47 489.487H621.077L627.254 471.942H631.177L637.363 489.487H633.97L629.284 475.54H629.147L624.47 489.487ZM624.581 482.607H633.833V485.16H624.581V482.607ZM549.83 518.487H543.884V500.942H549.95C551.691 500.942 553.188 501.293 554.439 501.996C555.695 502.692 556.66 503.695 557.334 505.003C558.008 506.31 558.345 507.875 558.345 509.697C558.345 511.525 558.005 513.095 557.326 514.409C556.652 515.722 555.678 516.73 554.404 517.433C553.136 518.135 551.611 518.487 549.83 518.487ZM547.063 515.737H549.675C550.898 515.737 551.917 515.514 552.734 515.068C553.55 514.617 554.164 513.946 554.576 513.055C554.987 512.159 555.192 511.039 555.192 509.697C555.192 508.355 554.987 507.241 554.576 506.356C554.164 505.465 553.556 504.8 552.751 504.36C551.951 503.915 550.958 503.692 549.77 503.692H547.063V515.737ZM561.365 518.487V500.942H572.776V503.606H564.543V508.369H572.185V511.034H564.543V515.822H572.844V518.487H561.365ZM576.018 518.487V500.942H579.196V515.822H586.924V518.487H576.018ZM589.682 518.487V500.942H601.093V503.606H592.86V508.369H600.502V511.034H592.86V515.822H601.162V518.487H589.682ZM616.089 506.545C615.946 506.082 615.749 505.668 615.498 505.302C615.252 504.931 614.955 504.614 614.607 504.351C614.264 504.089 613.87 503.892 613.425 503.76C612.979 503.623 612.494 503.555 611.969 503.555C611.026 503.555 610.187 503.792 609.45 504.266C608.713 504.74 608.133 505.437 607.711 506.356C607.294 507.27 607.085 508.384 607.085 509.697C607.085 511.022 607.294 512.144 607.711 513.064C608.128 513.983 608.707 514.683 609.45 515.163C610.192 515.637 611.055 515.874 612.037 515.874C612.928 515.874 613.699 515.702 614.35 515.36C615.007 515.017 615.512 514.532 615.866 513.903C616.22 513.269 616.398 512.527 616.398 511.676L617.117 511.787H612.354V509.303H619.473V511.41C619.473 512.912 619.153 514.212 618.514 515.308C617.874 516.405 616.994 517.25 615.875 517.844C614.756 518.432 613.471 518.726 612.02 518.726C610.404 518.726 608.984 518.364 607.762 517.638C606.546 516.907 605.595 515.871 604.91 514.529C604.23 513.181 603.89 511.582 603.89 509.731C603.89 508.315 604.09 507.05 604.49 505.936C604.895 504.823 605.461 503.877 606.186 503.101C606.911 502.318 607.762 501.724 608.739 501.319C609.715 500.908 610.778 500.702 611.926 500.702C612.897 500.702 613.802 500.845 614.641 501.13C615.481 501.41 616.226 501.81 616.877 502.33C617.534 502.849 618.074 503.466 618.496 504.18C618.919 504.894 619.196 505.682 619.327 506.545H616.089ZM624.258 518.487H620.865L627.042 500.942H630.965L637.15 518.487H633.758L629.072 504.54H628.935L624.258 518.487ZM624.369 511.607H633.621V514.16H624.369V511.607ZM653.654 506.861H650.45C650.359 506.336 650.191 505.871 649.945 505.465C649.699 505.054 649.394 504.706 649.028 504.42C648.663 504.134 648.246 503.92 647.778 503.777C647.315 503.629 646.815 503.555 646.278 503.555C645.325 503.555 644.479 503.795 643.743 504.274C643.006 504.748 642.429 505.445 642.012 506.365C641.595 507.278 641.387 508.395 641.387 509.714C641.387 511.056 641.595 512.187 642.012 513.107C642.435 514.02 643.012 514.711 643.743 515.18C644.479 515.642 645.322 515.874 646.27 515.874C646.795 515.874 647.286 515.805 647.743 515.668C648.206 515.525 648.62 515.317 648.985 515.043C649.357 514.769 649.668 514.432 649.919 514.032C650.176 513.632 650.353 513.175 650.45 512.661L653.654 512.678C653.534 513.512 653.275 514.295 652.875 515.026C652.481 515.757 651.964 516.402 651.324 516.962C650.685 517.516 649.936 517.95 649.08 518.264C648.223 518.572 647.272 518.726 646.227 518.726C644.685 518.726 643.309 518.369 642.098 517.656C640.887 516.942 639.933 515.911 639.236 514.563C638.54 513.215 638.191 511.599 638.191 509.714C638.191 507.824 638.543 506.208 639.245 504.865C639.948 503.518 640.904 502.487 642.115 501.773C643.326 501.059 644.696 500.702 646.227 500.702C647.204 500.702 648.112 500.839 648.951 501.113C649.791 501.387 650.539 501.79 651.196 502.321C651.852 502.847 652.392 503.492 652.815 504.257C653.243 505.017 653.523 505.885 653.654 506.861ZM659.743 500.942V518.487H656.565V500.942H659.743ZM670.107 500.942H673.259V513.278C673.254 514.409 673.014 515.383 672.54 516.199C672.066 517.01 671.403 517.636 670.552 518.075C669.707 518.509 668.722 518.726 667.597 518.726C666.569 518.726 665.644 518.544 664.821 518.178C664.004 517.807 663.356 517.259 662.876 516.533C662.397 515.808 662.157 514.906 662.157 513.826H665.318C665.324 514.3 665.426 514.709 665.626 515.051C665.832 515.394 666.115 515.657 666.474 515.839C666.834 516.022 667.248 516.114 667.717 516.114C668.225 516.114 668.656 516.008 669.01 515.797C669.364 515.58 669.633 515.26 669.816 514.837C670.004 514.415 670.101 513.895 670.107 513.278V500.942ZM678.961 518.487H675.568L681.745 500.942H685.668L691.853 518.487H688.461L683.775 504.54H683.638L678.961 518.487ZM679.072 511.607H688.324V514.16H679.072V511.607Z" fill="white"/>
<rect x="378.867" y="435.509" width="415.042" height="121.168" rx="7.94994" stroke="url(#paint1_linear_1837_474)" stroke-width="1.64482"/>
<g filter="url(#filter4_b_1837_474)">
<rect x="0.460938" y="194.353" width="196.472" height="227.824" rx="8.3605" fill="white"/>
<rect x="1.506" y="195.398" width="194.382" height="225.734" rx="7.31544" stroke="url(#paint2_linear_1837_474)" stroke-width="2.09013"/>
</g>
<g opacity="0.7" clip-path="url(#clip1_1837_474)">
<path d="M103.837 233.391C103.836 233.391 103.836 233.391 103.836 233.391L103.833 233.388L98.0908 232.568C97.2836 232.453 96.7225 231.706 96.8375 230.899C96.8926 230.511 97.0999 230.161 97.4132 229.926L102.054 226.445C102.707 225.956 102.839 225.031 102.35 224.378L97.0353 217.292C96.5461 216.64 95.6209 216.508 94.9686 216.997L90.3288 220.478C89.6793 220.971 88.7533 220.844 88.2604 220.195C88.0211 219.879 87.9185 219.481 87.9757 219.089L88.7965 213.347C88.9122 212.539 88.3518 211.792 87.5448 211.676C87.5443 211.676 87.5437 211.675 87.5432 211.675L78.7803 210.424C77.9734 210.308 77.2252 210.868 77.1093 211.675C77.1093 211.675 77.1093 211.675 77.1093 211.675L76.2885 217.418C76.1735 218.225 75.426 218.786 74.6189 218.671C74.231 218.616 73.8811 218.409 73.6461 218.096L70.1666 213.454C69.6774 212.802 68.7522 212.67 68.0999 213.159L63.6639 216.488C61.6569 216.275 59.633 216.275 57.6261 216.488C44.483 217.99 34.1762 228.472 32.895 241.638C32.8552 242.056 32.8404 242.471 32.8197 242.886H32.3769C31.6764 242.887 31.0732 243.38 30.9331 244.067L29.913 248.918L25.8269 246.099C25.2404 245.695 24.4485 245.767 23.9447 246.271L19.516 250.699C19.013 251.203 18.941 251.994 19.3448 252.58L22.1496 256.659L17.2973 257.679C16.6186 257.828 16.1355 258.429 16.137 259.124V265.029C16.1366 265.727 16.6258 266.33 17.3091 266.474L22.1614 267.494L19.3566 271.573C18.9529 272.159 19.0248 272.95 19.5278 273.454L23.9565 277.882C24.4603 278.386 25.2523 278.458 25.8387 278.054L29.9175 275.241L30.9375 280.094C31.0776 280.78 31.6808 281.274 32.3813 281.275H38.2862C38.9844 281.275 39.5875 280.786 39.7314 280.103L40.7514 275.25L44.8302 278.055C45.4165 278.459 46.2074 278.387 46.7109 277.884L49.0035 275.584V279.791C49.0102 281.891 50.1352 283.829 51.956 284.875V293.077C51.956 296.338 54.5997 298.982 57.8608 298.982H63.7657C67.0269 298.982 69.6706 296.338 69.6706 293.077V284.875C71.4913 283.829 72.6164 281.891 72.623 279.791V273.948C72.6631 271.49 73.9492 269.22 76.0375 267.922C77.2626 267.128 78.4244 266.239 79.5126 265.265L77.5433 263.066C76.5699 263.938 75.5299 264.733 74.4329 265.444C71.5017 267.284 69.7073 270.488 69.6706 273.948V279.791C69.6706 281.422 68.3488 282.744 66.7182 282.744H54.9084C53.2777 282.744 51.956 281.422 51.956 279.791V273.826C51.9218 270.431 50.1557 267.288 47.2734 265.494C35.5731 258.142 32.0478 242.697 39.3998 230.997C43.9613 223.737 51.9222 219.319 60.4959 219.288C60.4739 219.341 60.4546 219.395 60.4383 219.449C60.3835 219.837 60.485 220.23 60.7203 220.543L64.1997 225.183C64.5666 225.658 64.6018 226.31 64.2883 226.821C63.9864 227.336 63.4027 227.617 62.8121 227.532L57.0696 226.711C56.2625 226.595 55.5146 227.155 55.3987 227.962C55.3987 227.963 55.3985 227.964 55.3985 227.964L54.1452 236.731C54.0295 237.538 54.5899 238.286 55.3968 238.402C55.3974 238.402 55.3979 238.402 55.3985 238.402L61.141 239.223C61.9481 239.338 62.5093 240.086 62.3943 240.893C62.3391 241.281 62.1319 241.631 61.8186 241.866L57.1788 245.345C56.5265 245.834 56.3944 246.759 56.8836 247.412L62.198 254.498C62.6871 255.15 63.6124 255.282 64.2647 254.793L68.9059 251.313C69.5588 250.825 70.484 250.959 70.9722 251.612C71.2059 251.924 71.3064 252.316 71.2516 252.703L70.4323 258.445C70.3164 259.252 70.8767 260 71.6838 260.116C71.684 260.116 71.684 260.116 71.6842 260.116L80.4529 261.369C80.5219 261.378 80.5915 261.383 80.661 261.383C81.396 261.384 82.0195 260.844 82.124 260.116L82.9433 254.374C83.0582 253.567 83.8058 253.005 84.6129 253.12C85.0008 253.176 85.3506 253.383 85.5857 253.696L89.0666 258.336C89.5558 258.988 90.481 259.12 91.1334 258.631L98.2192 253.317C98.8715 252.827 99.0036 251.902 98.5145 251.25L95.035 246.61C94.6698 246.135 94.6346 245.484 94.9464 244.972C95.2419 244.45 95.8309 244.167 96.4226 244.263L102.165 245.082C102.972 245.198 103.72 244.638 103.836 243.831C103.836 243.831 103.836 243.831 103.836 243.83L105.088 235.062C105.204 234.255 104.644 233.507 103.837 233.391ZM54.9084 285.696H66.7182V288.649H54.9084V285.696ZM54.9084 291.601H66.7182V293.077C66.7182 294.708 65.3964 296.03 63.7657 296.03H57.8608C56.2302 296.03 54.9084 294.708 54.9084 293.077V291.601ZM43.1562 266.144C43.9622 266.803 44.8044 267.416 45.6791 267.981C47.0739 268.863 48.1239 270.197 48.6537 271.759L45.4872 274.92L42.4211 272.806C41.0784 271.881 39.24 272.219 38.3146 273.562C38.0928 273.884 37.937 274.246 37.8566 274.629L37.083 278.315H33.5741L32.8005 274.635C32.4647 273.039 30.899 272.018 29.3034 272.354C28.9208 272.434 28.5581 272.59 28.2361 272.812L25.1685 274.92L22.4788 272.236L24.5913 269.171C25.5174 267.829 25.1801 265.991 23.838 265.064C23.5159 264.842 23.1527 264.686 22.7696 264.605L19.0894 263.83V260.323L22.7696 259.548C24.3647 259.21 25.3836 257.642 25.0454 256.047C24.9651 255.669 24.8114 255.31 24.5928 254.991L22.4788 251.917L25.1685 249.233L28.2375 251.347C29.5807 252.272 31.4192 251.932 32.3435 250.589C32.5649 250.267 32.7203 249.905 32.8005 249.523L33.0589 248.295C33.2954 249.996 33.6872 251.671 34.2295 253.3C29.3722 253.879 25.904 258.287 26.4831 263.144C27.0621 268.001 31.4694 271.47 36.3267 270.891C39.2507 270.542 41.8103 268.763 43.1562 266.144ZM40.8636 264.064C39.7613 267.128 36.3839 268.718 33.3198 267.616C30.2557 266.513 28.6655 263.136 29.7676 260.072C30.6109 257.728 32.8365 256.167 35.3276 256.172C35.3468 256.172 35.3645 256.172 35.3837 256.172C36.7413 259.099 38.5952 261.769 40.8636 264.064ZM101.114 241.947L96.833 241.336C94.4117 240.99 92.1685 242.673 91.8227 245.094C91.6567 246.256 91.9593 247.438 92.6642 248.377L95.2579 251.836L90.534 255.379L87.9388 251.922C86.4715 249.965 83.6956 249.568 81.7389 251.035C80.7993 251.74 80.178 252.789 80.0115 253.951L79.4136 258.238L73.5693 257.403L74.1804 253.122C74.5272 250.701 72.8454 248.457 70.4242 248.11C69.2608 247.944 68.079 248.246 67.1389 248.951L63.6801 251.545L60.1372 246.821L63.5945 244.226C65.5514 242.759 65.9483 239.983 64.4809 238.026C63.7764 237.087 62.7274 236.465 61.5647 236.299L57.2836 235.688L58.1192 229.843L62.4002 230.454C64.8214 230.801 67.0653 229.119 67.4118 226.698C67.5784 225.535 67.2758 224.353 66.5705 223.413L63.968 219.951L68.6919 216.408L71.2871 219.867C72.7544 221.824 75.5303 222.221 77.487 220.753C78.4266 220.049 79.0479 219 79.2144 217.837L79.8255 213.556L85.6699 214.39L85.0587 218.671C84.7129 221.093 86.3954 223.336 88.8168 223.682C89.9795 223.848 91.1607 223.545 92.1003 222.84L95.5591 220.246L99.102 224.97L95.6432 227.565C93.6863 229.033 93.2894 231.809 94.7567 233.765C95.4613 234.705 96.5103 235.326 97.673 235.493L101.954 236.104L101.114 241.947Z" fill="#1EBCEF"/>
<path d="M79.6147 224.085C73.0924 224.085 67.8049 229.372 67.8049 235.894C67.8049 242.417 73.0924 247.704 79.6147 247.704C86.137 247.704 91.4244 242.417 91.4244 235.894C91.4171 229.375 86.134 224.092 79.6147 224.085ZM79.6147 244.752C74.7229 244.752 70.7574 240.786 70.7574 235.894C70.7574 231.003 74.7229 227.037 79.6147 227.037C84.5065 227.037 88.472 231.003 88.472 235.894C88.4663 240.784 84.5041 244.746 79.6147 244.752Z" fill="#1EBCEF"/>
<path d="M62.2898 275.363H59.3374V279.791H62.2898V275.363Z" fill="#1EBCEF"/>
<path d="M54.3564 260.865C45.2435 257.305 40.7419 247.032 44.302 237.919C45.6815 234.388 48.1573 231.392 51.3655 229.373L49.7875 226.875C40.13 232.959 37.2331 245.72 43.3172 255.377C45.6734 259.118 49.1669 262.004 53.2846 263.612C56.9294 265.009 59.3362 268.507 59.3371 272.41H62.2896C62.2942 267.289 59.1384 262.697 54.3564 260.865Z" fill="#1EBCEF"/>
<path d="M99.1954 265.029H88.8618V267.981H99.1954V265.029Z" fill="#1EBCEF"/>
<path d="M88.3305 272.751L86.4407 275.02L95.2986 282.399L97.1885 280.131L88.3305 272.751Z" fill="#1EBCEF"/>
<path d="M82.9568 276.839H80.0044V287.172H82.9568V276.839Z" fill="#1EBCEF"/>
<path d="M29.4535 232.596L17.6445 235.547L18.3601 238.41L30.1691 235.458L29.4535 232.596Z" fill="#1EBCEF"/>
<path d="M21.8118 218.067L20.0967 220.468L30.4294 227.849L32.1445 225.447L21.8118 218.067Z" fill="#1EBCEF"/>
<path d="M35.6054 210.041L32.7451 210.773L35.7644 222.581L38.6247 221.85L35.6054 210.041Z" fill="#1EBCEF"/>
</g>
<path d="M87.6964 296.619V340.943H77.005V306.618H76.7452L66.8329 312.678V303.415L77.7624 296.619H87.6964ZM114.809 341.549C111.361 341.549 108.28 341.001 105.568 339.904C102.87 338.793 100.749 337.293 99.2048 335.402C97.6754 333.498 96.9107 331.348 96.9107 328.953C96.9107 327.121 97.3508 325.44 98.2309 323.91C99.111 322.381 100.301 321.111 101.802 320.101C103.317 319.077 105.005 318.42 106.866 318.132V317.785C104.428 317.338 102.43 316.206 100.871 314.388C99.3275 312.57 98.5556 310.441 98.5556 308.003C98.5556 305.694 99.2553 303.638 100.655 301.835C102.069 300.031 103.995 298.61 106.433 297.571C108.886 296.532 111.678 296.013 114.809 296.013C117.94 296.013 120.725 296.532 123.163 297.571C125.616 298.61 127.542 300.031 128.942 301.835C130.356 303.638 131.063 305.694 131.063 308.003C131.063 310.456 130.276 312.591 128.704 314.409C127.145 316.213 125.161 317.338 122.752 317.785V318.132C124.599 318.42 126.272 319.077 127.773 320.101C129.288 321.111 130.486 322.381 131.366 323.91C132.26 325.44 132.708 327.121 132.708 328.953C132.708 331.348 131.936 333.498 130.392 335.402C128.848 337.293 126.727 338.793 124.029 339.904C121.345 341.001 118.272 341.549 114.809 341.549ZM114.809 333.952C116.122 333.952 117.276 333.707 118.272 333.217C119.268 332.712 120.047 332.012 120.609 331.117C121.186 330.223 121.475 329.213 121.475 328.087C121.475 326.933 121.186 325.909 120.609 325.014C120.032 324.119 119.239 323.42 118.229 322.915C117.233 322.395 116.093 322.136 114.809 322.136C113.539 322.136 112.4 322.395 111.39 322.915C110.38 323.42 109.586 324.119 109.009 325.014C108.432 325.909 108.143 326.933 108.143 328.087C108.143 329.213 108.425 330.223 108.987 331.117C109.564 331.997 110.351 332.69 111.346 333.195C112.356 333.7 113.511 333.952 114.809 333.952ZM114.809 314.582C115.935 314.582 116.93 314.351 117.796 313.89C118.676 313.428 119.361 312.786 119.852 311.964C120.357 311.141 120.609 310.211 120.609 309.172C120.609 308.133 120.357 307.217 119.852 306.423C119.361 305.63 118.683 305.009 117.817 304.562C116.952 304.1 115.949 303.869 114.809 303.869C113.684 303.869 112.681 304.1 111.801 304.562C110.921 305.009 110.235 305.63 109.745 306.423C109.254 307.217 109.009 308.133 109.009 309.172C109.009 310.211 109.254 311.141 109.745 311.964C110.25 312.772 110.942 313.414 111.822 313.89C112.703 314.351 113.698 314.582 114.809 314.582Z" fill="#084B7C"/>
<path opacity="0.96" d="M31.4314 372.203V358.522H36.5617C37.6127 358.522 38.4944 358.705 39.207 359.07C39.924 359.435 40.4651 359.947 40.8303 360.606C41.1999 361.261 41.3847 362.025 41.3847 362.898C41.3847 363.775 41.1977 364.536 40.8236 365.182C40.4539 365.823 39.9084 366.32 39.1869 366.672C38.4655 367.019 37.5793 367.193 36.5283 367.193H32.8743V365.135H36.1943C36.8088 365.135 37.3121 365.051 37.704 364.882C38.0959 364.708 38.3853 364.456 38.5724 364.127C38.7639 363.793 38.8596 363.383 38.8596 362.898C38.8596 362.412 38.7639 361.998 38.5724 361.655C38.3809 361.308 38.0892 361.045 37.6973 360.867C37.3054 360.684 36.7999 360.593 36.1809 360.593H33.9097V372.203H31.4314ZM38.4989 366.004L41.8857 372.203H39.1201L35.7935 366.004H38.4989ZM43.6659 372.203V358.522H52.5638V360.6H46.1443V364.314H52.1029V366.391H46.1443V370.125H52.6173V372.203H43.6659ZM56.8491 372.203H54.2038L59.0201 358.522H62.0796L66.9026 372.203H64.2573L60.6033 361.328H60.4964L56.8491 372.203ZM56.9359 366.839H64.1504V368.829H56.9359V366.839ZM68.7046 372.203V358.522H71.1829V370.125H77.2083V372.203H68.7046ZM81.8376 358.522V372.203H79.3593V358.522H81.8376ZM84.2675 372.203V370.66L91.2816 360.6H84.2275V358.522H94.3545V360.065L87.3471 370.125H94.3945V372.203H84.2675ZM108.374 365.362C108.374 366.837 108.098 368.099 107.546 369.15C106.998 370.197 106.25 370.998 105.301 371.555C104.357 372.112 103.286 372.39 102.088 372.39C100.89 372.39 99.8171 372.112 98.8685 371.555C97.9244 370.994 97.1762 370.19 96.624 369.143C96.0763 368.092 95.8024 366.832 95.8024 365.362C95.8024 363.888 96.0763 362.628 96.624 361.582C97.1762 360.531 97.9244 359.727 98.8685 359.17C99.8171 358.613 100.89 358.335 102.088 358.335C103.286 358.335 104.357 358.613 105.301 359.17C106.25 359.727 106.998 360.531 107.546 361.582C108.098 362.628 108.374 363.888 108.374 365.362ZM105.883 365.362C105.883 364.325 105.72 363.45 105.395 362.737C105.074 362.02 104.629 361.479 104.059 361.114C103.489 360.744 102.832 360.559 102.088 360.559C101.345 360.559 100.688 360.744 100.118 361.114C99.5477 361.479 99.1001 362.02 98.775 362.737C98.4544 363.45 98.294 364.325 98.294 365.362C98.294 366.4 98.4544 367.277 98.775 367.994C99.1001 368.707 99.5477 369.248 100.118 369.618C100.688 369.983 101.345 370.165 102.088 370.165C102.832 370.165 103.489 369.983 104.059 369.618C104.629 369.248 105.074 368.707 105.395 367.994C105.72 367.277 105.883 366.4 105.883 365.362ZM111.813 358.522L115.373 369.29H115.514L119.067 358.522H121.793L116.97 372.203H113.91L109.094 358.522H111.813ZM123.754 372.203H121.108L125.925 358.522H128.984L133.807 372.203H131.162L127.508 361.328H127.401L123.754 372.203ZM123.84 366.839H131.055V368.829H123.84V366.839ZM146.852 358.522V372.203H144.647L138.201 362.884H138.087V372.203H135.609V358.522H137.827L144.266 367.847H144.387V358.522H146.852ZM152.03 358.522V372.203H149.552V358.522H152.03ZM154.714 372.203V358.522H157.192V364.314H163.532V358.522H166.017V372.203H163.532V366.391H157.192V372.203H154.714ZM45.0988 397.203V383.522H50.2291C51.2801 383.522 52.1619 383.718 52.8745 384.11C53.5915 384.502 54.1325 385.041 54.4977 385.726C54.8673 386.408 55.0522 387.183 55.0522 388.051C55.0522 388.928 54.8673 389.708 54.4977 390.389C54.1281 391.071 53.5825 391.607 52.8611 391.999C52.1396 392.387 51.2512 392.58 50.1957 392.58H46.7956V390.543H49.8617C50.4763 390.543 50.9795 390.436 51.3714 390.222C51.7633 390.008 52.0528 389.715 52.2398 389.34C52.4313 388.966 52.5271 388.537 52.5271 388.051C52.5271 387.566 52.4313 387.138 52.2398 386.769C52.0528 386.399 51.7611 386.112 51.3648 385.907C50.9729 385.698 50.4674 385.593 49.8484 385.593H47.5771V397.203H45.0988ZM57.2048 397.203V383.522H62.3351C63.3861 383.522 64.2679 383.705 64.9804 384.07C65.6974 384.435 66.2385 384.947 66.6037 385.606C66.9733 386.261 67.1582 387.025 67.1582 387.898C67.1582 388.775 66.9711 389.536 66.597 390.182C66.2274 390.823 65.6819 391.32 64.9604 391.672C64.239 392.019 63.3527 392.193 62.3017 392.193H58.6477V390.135H61.9677C62.5823 390.135 63.0855 390.051 63.4774 389.882C63.8693 389.708 64.1588 389.456 64.3458 389.127C64.5373 388.793 64.6331 388.383 64.6331 387.898C64.6331 387.412 64.5373 386.998 64.3458 386.655C64.1543 386.308 63.8626 386.045 63.4707 385.867C63.0788 385.684 62.5734 385.593 61.9544 385.593H59.6831V397.203H57.2048ZM64.2724 391.004L67.6592 397.203H64.8936L61.5669 391.004H64.2724ZM81.664 390.362C81.664 391.837 81.3879 393.099 80.8356 394.15C80.2879 395.197 79.5397 395.998 78.5911 396.555C77.647 397.112 76.576 397.39 75.378 397.39C74.18 397.39 73.1068 397.112 72.1582 396.555C71.2141 395.994 70.4659 395.19 69.9137 394.143C69.3659 393.092 69.092 391.832 69.092 390.362C69.092 388.888 69.3659 387.628 69.9137 386.582C70.4659 385.531 71.2141 384.727 72.1582 384.17C73.1068 383.613 74.18 383.335 75.378 383.335C76.576 383.335 77.647 383.613 78.5911 384.17C79.5397 384.727 80.2879 385.531 80.8356 386.582C81.3879 387.628 81.664 388.888 81.664 390.362ZM79.1723 390.362C79.1723 389.325 79.0097 388.45 78.6846 387.737C78.364 387.02 77.9187 386.479 77.3486 386.114C76.7786 385.744 76.1217 385.559 75.378 385.559C74.6343 385.559 73.9774 385.744 73.4074 386.114C72.8373 386.479 72.3898 387.02 72.0647 387.737C71.744 388.45 71.5837 389.325 71.5837 390.362C71.5837 391.4 71.744 392.277 72.0647 392.994C72.3898 393.707 72.8373 394.248 73.4074 394.618C73.9774 394.983 74.6343 395.165 75.378 395.165C76.1217 395.165 76.7786 394.983 77.3486 394.618C77.9187 394.248 78.364 393.707 78.6846 392.994C79.0097 392.277 79.1723 391.4 79.1723 390.362ZM89.4045 383.522H91.8628V393.141C91.8583 394.023 91.6713 394.782 91.3017 395.419C90.932 396.052 90.4154 396.539 89.7519 396.882C89.0928 397.221 88.3246 397.39 87.4473 397.39C86.6456 397.39 85.9242 397.247 85.2829 396.962C84.6461 396.673 84.1406 396.245 83.7665 395.68C83.3924 395.114 83.2054 394.411 83.2054 393.569H85.6704C85.6748 393.939 85.755 394.257 85.9108 394.524C86.0712 394.791 86.2916 394.996 86.5722 395.139C86.8527 395.281 87.1756 395.352 87.5408 395.352C87.9371 395.352 88.2734 395.27 88.5495 395.105C88.8256 394.936 89.0349 394.687 89.1774 394.357C89.3244 394.028 89.4001 393.622 89.4045 393.141V383.522ZM94.5515 397.203V383.522H103.449V385.6H97.0298V389.314H102.988V391.391H97.0298V395.125H103.503V397.203H94.5515ZM105.978 397.203V383.522H108.456V389.808H108.623L113.961 383.522H116.987L111.696 389.661L117.033 397.203H114.054L109.973 391.338L108.456 393.128V397.203H105.978ZM120.465 397.203H117.82L122.636 383.522H125.696L130.519 397.203H127.873L124.219 386.328H124.113L120.465 397.203ZM120.552 391.839H127.767V393.829H120.552V391.839ZM130.066 385.6V383.522H140.981V385.6H136.753V397.203H134.295V385.6H130.066ZM143.189 397.203H140.544L145.36 383.522H148.42L153.243 397.203H150.597L146.943 386.328H146.837L143.189 397.203ZM143.276 391.839H150.491V393.829H143.276V391.839Z" fill="#084B7C" fill-opacity="0.8"/>
<g filter="url(#filter5_d_1837_474)">
<rect x="141.915" y="451.135" width="208.386" height="230.865" rx="9.63418" fill="white"/>
<rect x="142.452" y="451.672" width="207.311" height="229.79" rx="9.09652" stroke="url(#paint3_linear_1837_474)" stroke-width="1.07532"/>
</g>
<path d="M498.476 334.382C494.998 334.382 491.903 333.818 489.193 332.688C486.498 331.544 484.383 329.986 482.847 328.013C481.311 326.041 480.543 323.805 480.543 321.305C480.543 319.378 480.98 317.609 481.853 315.998C482.741 314.372 483.946 313.024 485.467 311.955C486.987 310.871 488.689 310.178 490.571 309.877V309.561C488.102 309.064 486.099 307.867 484.563 305.97C483.028 304.058 482.26 301.837 482.26 299.308C482.26 296.914 482.96 294.783 484.36 292.916C485.76 291.034 487.68 289.558 490.119 288.489C492.574 287.405 495.359 286.863 498.476 286.863C501.592 286.863 504.37 287.405 506.81 288.489C509.264 289.573 511.191 291.056 512.591 292.939C513.992 294.806 514.699 296.929 514.714 299.308C514.699 301.852 513.916 304.073 512.366 305.97C510.815 307.867 508.827 309.064 506.403 309.561V309.877C508.255 310.178 509.934 310.871 511.44 311.955C512.96 313.024 514.165 314.372 515.053 315.998C515.957 317.609 516.416 319.378 516.431 321.305C516.416 323.805 515.64 326.041 514.105 328.013C512.569 329.986 510.446 331.544 507.736 332.688C505.04 333.818 501.954 334.382 498.476 334.382ZM498.476 327.2C500.027 327.2 501.382 326.922 502.541 326.364C503.7 325.792 504.604 325.009 505.251 324.016C505.914 323.007 506.245 321.847 506.245 320.537C506.245 319.197 505.906 318.015 505.229 316.992C504.551 315.953 503.633 315.14 502.473 314.552C501.314 313.95 499.981 313.649 498.476 313.649C496.985 313.649 495.653 313.95 494.478 314.552C493.304 315.14 492.378 315.953 491.7 316.992C491.038 318.015 490.706 319.197 490.706 320.537C490.706 321.847 491.03 323.007 491.678 324.016C492.325 325.009 493.236 325.792 494.41 326.364C495.585 326.922 496.94 327.2 498.476 327.2ZM498.476 306.535C499.771 306.535 500.922 306.271 501.931 305.744C502.94 305.217 503.731 304.487 504.303 303.554C504.875 302.62 505.161 301.543 505.161 300.324C505.161 299.119 504.875 298.065 504.303 297.162C503.731 296.243 502.948 295.528 501.954 295.016C500.96 294.489 499.801 294.226 498.476 294.226C497.166 294.226 496.006 294.489 494.998 295.016C493.989 295.528 493.198 296.243 492.626 297.162C492.069 298.065 491.791 299.119 491.791 300.324C491.791 301.543 492.077 302.62 492.649 303.554C493.221 304.487 494.011 305.217 495.02 305.744C496.029 306.271 497.181 306.535 498.476 306.535ZM540.365 334.382C536.993 334.382 533.989 333.802 531.354 332.643C528.734 331.469 526.664 329.858 525.143 327.81C523.637 325.747 522.862 323.368 522.817 320.673H532.664C532.724 321.802 533.093 322.796 533.771 323.654C534.463 324.497 535.382 325.152 536.526 325.619C537.67 326.086 538.958 326.319 540.388 326.319C541.879 326.319 543.196 326.056 544.34 325.529C545.485 325.002 546.381 324.272 547.028 323.338C547.675 322.405 547.999 321.328 547.999 320.108C547.999 318.874 547.653 317.782 546.96 316.834C546.283 315.87 545.304 315.117 544.024 314.575C542.759 314.033 541.254 313.762 539.507 313.762H535.193V306.58H539.507C540.983 306.58 542.285 306.324 543.414 305.812C544.559 305.3 545.447 304.592 546.079 303.689C546.712 302.771 547.028 301.702 547.028 300.482C547.028 299.323 546.749 298.306 546.192 297.433C545.65 296.545 544.882 295.852 543.889 295.355C542.91 294.858 541.766 294.61 540.456 294.61C539.131 294.61 537.919 294.851 536.82 295.333C535.72 295.799 534.84 296.469 534.177 297.343C533.515 298.216 533.161 299.24 533.116 300.414H523.743C523.788 297.749 524.548 295.4 526.024 293.368C527.499 291.335 529.487 289.747 531.986 288.602C534.501 287.443 537.339 286.863 540.501 286.863C543.693 286.863 546.486 287.443 548.88 288.602C551.274 289.762 553.133 291.327 554.458 293.3C555.799 295.257 556.461 297.456 556.446 299.895C556.461 302.484 555.655 304.645 554.029 306.377C552.418 308.108 550.318 309.207 547.728 309.674V310.035C551.131 310.472 553.721 311.654 555.497 313.581C557.289 315.493 558.177 317.888 558.162 320.763C558.177 323.398 557.417 325.74 555.881 327.787C554.361 329.835 552.26 331.446 549.58 332.621C546.9 333.795 543.828 334.382 540.365 334.382Z" fill="white"/>
<g opacity="0.3" filter="url(#filter6_d_1837_474)">
<rect x="224.156" y="309.681" width="206.15" height="112.944" rx="8.77235" fill="white"/>
<rect x="225.253" y="310.777" width="203.957" height="110.751" rx="7.67581" stroke="url(#paint4_linear_1837_474)" stroke-width="2.19309"/>
</g>
<path d="M252.127 387.179C249.427 387.179 247.011 386.672 244.878 385.66C242.745 384.634 241.051 383.23 239.796 381.448C238.554 379.666 237.892 377.628 237.811 375.333H245.101C245.236 377.034 245.972 378.424 247.308 379.504C248.644 380.571 250.251 381.104 252.127 381.104C253.599 381.104 254.908 380.766 256.055 380.091C257.203 379.417 258.107 378.478 258.769 377.277C259.43 376.076 259.754 374.705 259.741 373.166C259.754 371.601 259.423 370.21 258.749 368.995C258.074 367.78 257.149 366.829 255.974 366.14C254.8 365.438 253.45 365.087 251.925 365.087C250.683 365.074 249.461 365.303 248.26 365.776C247.058 366.248 246.107 366.869 245.405 367.639L238.621 366.525L240.788 345.142H264.843V351.419H247.004L245.81 362.414H246.053C246.822 361.51 247.909 360.761 249.313 360.167C250.717 359.559 252.255 359.256 253.929 359.256C256.44 359.256 258.681 359.85 260.652 361.037C262.623 362.212 264.175 363.832 265.309 365.897C266.443 367.963 267.01 370.325 267.01 372.984C267.01 375.725 266.376 378.168 265.107 380.314C263.851 382.447 262.103 384.128 259.862 385.356C257.635 386.571 255.057 387.179 252.127 387.179ZM287.07 387.179C284.37 387.179 281.954 386.672 279.821 385.66C277.688 384.634 275.994 383.23 274.739 381.448C273.497 379.666 272.835 377.628 272.754 375.333H280.044C280.179 377.034 280.914 378.424 282.251 379.504C283.587 380.571 285.194 381.104 287.07 381.104C288.541 381.104 289.851 380.766 290.998 380.091C292.146 379.417 293.05 378.478 293.712 377.277C294.373 376.076 294.697 374.705 294.683 373.166C294.697 371.601 294.366 370.21 293.691 368.995C293.016 367.78 292.092 366.829 290.917 366.14C289.743 365.438 288.393 365.087 286.867 365.087C285.626 365.074 284.404 365.303 283.202 365.776C282.001 366.248 281.049 366.869 280.347 367.639L273.564 366.525L275.731 345.142H299.786V351.419H281.947L280.752 362.414H280.995C281.765 361.51 282.851 360.761 284.255 360.167C285.659 359.559 287.198 359.256 288.872 359.256C291.383 359.256 293.624 359.85 295.595 361.037C297.566 362.212 299.118 363.832 300.252 365.897C301.386 367.963 301.953 370.325 301.953 372.984C301.953 375.725 301.318 378.168 300.049 380.314C298.794 382.447 297.046 384.128 294.805 385.356C292.578 386.571 289.999 387.179 287.07 387.179Z" fill="white"/>
<path opacity="0.96" d="M325.445 342.026V353.191H323.646L318.385 345.586H318.293V353.191H316.27V342.026H318.08L323.335 349.636H323.434V342.026H325.445ZM329.083 353.191H326.924L330.854 342.026H333.351L337.287 353.191H335.128L332.146 344.316H332.059L329.083 353.191ZM329.154 348.813H335.041V350.438H329.154V348.813ZM344.646 345.095C344.595 344.619 344.38 344.248 344.002 343.983C343.628 343.718 343.141 343.585 342.541 343.585C342.12 343.585 341.758 343.649 341.456 343.776C341.155 343.903 340.924 344.076 340.764 344.294C340.604 344.512 340.522 344.761 340.519 345.041C340.519 345.273 340.571 345.475 340.677 345.646C340.786 345.817 340.933 345.962 341.118 346.082C341.304 346.198 341.509 346.296 341.734 346.376C341.96 346.456 342.187 346.524 342.416 346.578L343.463 346.84C343.884 346.938 344.289 347.071 344.678 347.238C345.071 347.405 345.422 347.616 345.73 347.87C346.043 348.124 346.29 348.432 346.472 348.791C346.654 349.151 346.744 349.573 346.744 350.056C346.744 350.71 346.577 351.286 346.243 351.784C345.909 352.279 345.425 352.666 344.793 352.945C344.164 353.222 343.403 353.36 342.509 353.36C341.64 353.36 340.886 353.225 340.246 352.956C339.61 352.687 339.112 352.295 338.752 351.779C338.396 351.263 338.204 350.634 338.175 349.893H340.164C340.193 350.281 340.313 350.605 340.524 350.863C340.735 351.121 341.009 351.314 341.347 351.441C341.689 351.568 342.071 351.632 342.492 351.632C342.932 351.632 343.317 351.566 343.648 351.435C343.982 351.301 344.244 351.116 344.433 350.879C344.622 350.639 344.718 350.36 344.722 350.04C344.718 349.749 344.633 349.509 344.466 349.32C344.298 349.128 344.064 348.968 343.762 348.84C343.464 348.71 343.115 348.593 342.716 348.492L341.446 348.164C340.526 347.928 339.799 347.57 339.265 347.09C338.734 346.607 338.469 345.966 338.469 345.166C338.469 344.508 338.647 343.932 339.003 343.438C339.363 342.944 339.852 342.56 340.47 342.288C341.088 342.011 341.787 341.873 342.569 341.873C343.361 341.873 344.055 342.011 344.651 342.288C345.251 342.56 345.721 342.94 346.063 343.427C346.405 343.91 346.581 344.466 346.592 345.095H344.646ZM348.057 343.721V342.026H356.965V343.721H353.514V353.191H351.508V343.721H348.057ZM358.766 353.191H356.608L360.538 342.026H363.035L366.971 353.191H364.812L361.83 344.316H361.743L358.766 353.191ZM358.837 348.813H364.725V350.438H358.837V348.813ZM368.661 342.026L371.567 350.814H371.681L374.581 342.026H376.806L372.87 353.191H370.373L366.442 342.026H368.661ZM387.451 342.026V353.191H385.652L380.391 345.586H380.299V353.191H378.276V342.026H380.086L385.342 349.636H385.44V342.026H387.451ZM391.678 342.026V353.191H389.655V342.026H391.678ZM393.868 353.191V342.026H395.89V347.156H396.027L400.382 342.026H402.852L398.534 347.036L402.89 353.191H400.459L397.128 348.404L395.89 349.865V353.191H393.868ZM405.691 353.191H403.532L407.463 342.026H409.959L413.895 353.191H411.737L408.755 344.316H408.667L405.691 353.191ZM405.762 348.813H411.649V350.438H405.762V348.813ZM318.293 361.026V372.191H316.27V361.026H318.293ZM330.358 364.095C330.307 363.619 330.093 363.248 329.715 362.983C329.341 362.718 328.854 362.585 328.254 362.585C327.832 362.585 327.471 362.649 327.169 362.776C326.868 362.903 326.637 363.076 326.477 363.294C326.317 363.512 326.235 363.761 326.232 364.041C326.232 364.273 326.284 364.475 326.39 364.646C326.499 364.817 326.646 364.962 326.831 365.082C327.017 365.198 327.222 365.296 327.447 365.376C327.673 365.456 327.9 365.524 328.129 365.578L329.175 365.84C329.597 365.938 330.002 366.071 330.391 366.238C330.784 366.405 331.134 366.616 331.443 366.87C331.756 367.124 332.003 367.432 332.185 367.791C332.366 368.151 332.457 368.573 332.457 369.056C332.457 369.71 332.29 370.286 331.956 370.784C331.621 371.279 331.138 371.666 330.506 371.945C329.877 372.222 329.115 372.36 328.221 372.36C327.353 372.36 326.599 372.225 325.959 371.956C325.323 371.687 324.825 371.295 324.465 370.779C324.109 370.263 323.916 369.634 323.887 368.893H325.877C325.906 369.281 326.026 369.605 326.237 369.863C326.448 370.121 326.722 370.314 327.06 370.441C327.402 370.568 327.783 370.632 328.205 370.632C328.645 370.632 329.03 370.566 329.361 370.435C329.695 370.301 329.957 370.116 330.146 369.879C330.335 369.639 330.431 369.36 330.435 369.04C330.431 368.749 330.346 368.509 330.178 368.32C330.011 368.128 329.777 367.968 329.475 367.84C329.177 367.71 328.828 367.593 328.429 367.492L327.158 367.164C326.239 366.928 325.512 366.57 324.978 366.09C324.447 365.607 324.182 364.966 324.182 364.166C324.182 363.508 324.36 362.932 324.716 362.438C325.076 361.944 325.565 361.56 326.182 361.288C326.8 361.011 327.5 360.873 328.281 360.873C329.074 360.873 329.768 361.011 330.364 361.288C330.963 361.56 331.434 361.94 331.776 362.427C332.117 362.91 332.294 363.466 332.305 364.095H330.358ZM335.514 372.191H333.355L337.286 361.026H339.783L343.719 372.191H341.56L338.578 363.316H338.491L335.514 372.191ZM335.585 367.813H341.473V369.438H335.585V367.813ZM345.189 372.191V361.026H349.376C350.234 361.026 350.953 361.175 351.535 361.473C352.12 361.771 352.562 362.189 352.86 362.727C353.161 363.261 353.312 363.884 353.312 364.597C353.312 365.313 353.16 365.934 352.854 366.461C352.553 366.985 352.107 367.39 351.519 367.677C350.93 367.96 350.207 368.102 349.349 368.102H346.367V366.423H349.076C349.578 366.423 349.989 366.354 350.308 366.216C350.628 366.074 350.864 365.869 351.017 365.6C351.173 365.327 351.252 364.993 351.252 364.597C351.252 364.201 351.173 363.863 351.017 363.583C350.861 363.299 350.623 363.085 350.303 362.939C349.983 362.79 349.571 362.716 349.065 362.716H347.212V372.191H345.189ZM350.957 367.132L353.721 372.191H351.464L348.749 367.132H350.957ZM356.608 372.191H354.449L358.379 361.026H360.876L364.812 372.191H362.653L359.671 363.316H359.584L356.608 372.191ZM356.679 367.813H362.566V369.438H356.679V367.813ZM370.066 372.191H366.283V361.026H370.143C371.251 361.026 372.203 361.249 372.999 361.697C373.799 362.14 374.413 362.778 374.842 363.61C375.271 364.442 375.485 365.438 375.485 366.597C375.485 367.76 375.269 368.76 374.836 369.596C374.407 370.432 373.788 371.073 372.977 371.52C372.171 371.967 371.2 372.191 370.066 372.191ZM368.305 370.441H369.968C370.746 370.441 371.395 370.299 371.914 370.016C372.434 369.729 372.825 369.301 373.086 368.735C373.348 368.164 373.479 367.452 373.479 366.597C373.479 365.743 373.348 365.035 373.086 364.471C372.825 363.904 372.438 363.481 371.925 363.201C371.416 362.918 370.784 362.776 370.028 362.776H368.305V370.441ZM386.582 361.026V372.191H384.783L379.522 364.586H379.429V372.191H377.407V361.026H379.217L384.472 368.636H384.57V361.026H386.582ZM390.808 361.026V372.191H388.786V361.026H390.808ZM392.998 372.191V361.026H395.021V366.156H395.157L399.513 361.026H401.982L397.665 366.036L402.021 372.191H399.589L396.258 367.404L395.021 368.865V372.191H392.998ZM404.821 372.191H402.663L406.593 361.026H409.09L413.026 372.191H410.867L407.885 363.316H407.798L404.821 372.191ZM404.892 367.813H410.78V369.438H404.892V367.813ZM316.27 391.191V380.026H323.423V381.721H318.293V384.752H322.932V386.448H318.293V391.191H316.27ZM335.242 385.608C335.242 386.811 335.016 387.842 334.566 388.699C334.119 389.554 333.508 390.208 332.734 390.662C331.963 391.116 331.089 391.343 330.112 391.343C329.134 391.343 328.258 391.116 327.484 390.662C326.714 390.204 326.103 389.548 325.652 388.694C325.205 387.836 324.982 386.808 324.982 385.608C324.982 384.405 325.205 383.377 325.652 382.523C326.103 381.665 326.714 381.009 327.484 380.555C328.258 380.1 329.134 379.873 330.112 379.873C331.089 379.873 331.963 380.1 332.734 380.555C333.508 381.009 334.119 381.665 334.566 382.523C335.016 383.377 335.242 384.405 335.242 385.608ZM333.208 385.608C333.208 384.762 333.076 384.047 332.81 383.466C332.549 382.881 332.185 382.439 331.72 382.141C331.255 381.84 330.719 381.689 330.112 381.689C329.505 381.689 328.969 381.84 328.503 382.141C328.038 382.439 327.673 382.881 327.408 383.466C327.146 384.047 327.015 384.762 327.015 385.608C327.015 386.455 327.146 387.171 327.408 387.756C327.673 388.338 328.038 388.779 328.503 389.081C328.969 389.379 329.505 389.528 330.112 389.528C330.719 389.528 331.255 389.379 331.72 389.081C332.185 388.779 332.549 388.338 332.81 387.756C333.076 387.171 333.208 386.455 333.208 385.608ZM346.329 380.026V391.191H344.53L339.269 383.586H339.176V391.191H337.154V380.026H338.964L344.219 387.636H344.317V380.026H346.329ZM353.521 384.796V386.421H348.494V384.796H353.521ZM357.117 391.191H354.959L358.889 380.026H361.386L365.322 391.191H363.163L360.181 382.316H360.094L357.117 391.191ZM357.188 386.813H363.076V388.438H357.188V386.813Z" fill="white"/>
<path opacity="0.96" d="M478.716 367.253V354.493H487.015V356.431H481.027V359.895H486.585V361.833H481.027V365.315H487.064V367.253H478.716ZM489.373 367.253V354.493H491.684V360.356H491.84L496.818 354.493H499.64L494.706 360.219L499.684 367.253H496.905L493.099 361.783L491.684 363.452V367.253H489.373ZM508.112 358.001C508.054 357.457 507.809 357.033 507.377 356.73C506.949 356.427 506.393 356.275 505.707 356.275C505.225 356.275 504.812 356.348 504.467 356.493C504.123 356.638 503.859 356.836 503.676 357.085C503.493 357.334 503.4 357.619 503.396 357.939C503.396 358.204 503.456 358.435 503.577 358.63C503.701 358.825 503.869 358.991 504.081 359.129C504.293 359.261 504.528 359.374 504.785 359.465C505.043 359.556 505.302 359.633 505.564 359.695L506.76 359.995C507.242 360.107 507.705 360.258 508.15 360.449C508.598 360.64 508.999 360.881 509.352 361.172C509.709 361.463 509.992 361.814 510.199 362.225C510.407 362.636 510.511 363.118 510.511 363.67C510.511 364.418 510.32 365.076 509.938 365.645C509.556 366.21 509.003 366.653 508.28 366.973C507.562 367.288 506.692 367.446 505.67 367.446C504.677 367.446 503.815 367.292 503.084 366.985C502.357 366.678 501.788 366.229 501.377 365.639C500.97 365.049 500.75 364.331 500.717 363.484H502.991C503.024 363.928 503.161 364.298 503.402 364.593C503.643 364.887 503.957 365.108 504.343 365.253C504.733 365.398 505.169 365.471 505.651 365.471C506.154 365.471 506.594 365.396 506.972 365.247C507.354 365.093 507.653 364.881 507.869 364.611C508.085 364.337 508.195 364.017 508.199 363.652C508.195 363.319 508.098 363.045 507.907 362.829C507.716 362.609 507.448 362.426 507.103 362.281C506.762 362.132 506.364 361.999 505.907 361.882L504.455 361.509C503.404 361.239 502.573 360.829 501.963 360.281C501.356 359.729 501.053 358.996 501.053 358.082C501.053 357.33 501.257 356.672 501.664 356.107C502.075 355.542 502.634 355.104 503.34 354.792C504.046 354.477 504.845 354.319 505.738 354.319C506.644 354.319 507.437 354.477 508.118 354.792C508.804 355.104 509.342 355.538 509.732 356.094C510.123 356.647 510.324 357.282 510.336 358.001H508.112ZM512.011 356.431V354.493H522.191V356.431H518.247V367.253H515.955V356.431H512.011ZM524.154 367.253V354.493H532.453V356.431H526.465V359.895H532.023V361.833H526.465V365.315H532.503V367.253H524.154ZM534.811 367.253V354.493H539.596C540.576 354.493 541.398 354.663 542.063 355.004C542.732 355.345 543.236 355.822 543.577 356.437C543.922 357.048 544.094 357.76 544.094 358.574C544.094 359.392 543.92 360.103 543.571 360.705C543.226 361.303 542.717 361.766 542.044 362.094C541.371 362.418 540.545 362.58 539.565 362.58H536.157V360.661H539.253C539.826 360.661 540.296 360.582 540.661 360.424C541.027 360.262 541.297 360.028 541.471 359.72C541.65 359.409 541.739 359.027 541.739 358.574C541.739 358.121 541.65 357.735 541.471 357.415C541.293 357.091 541.02 356.846 540.655 356.68C540.289 356.51 539.818 356.425 539.241 356.425H537.122V367.253H534.811ZM541.403 361.471L544.561 367.253H541.982L538.879 361.471H541.403ZM556.708 354.493V367.253H554.651L548.639 358.562H548.533V367.253H546.222V354.493H548.29L554.296 363.191H554.409V354.493H556.708ZM560.865 367.253H558.397L562.89 354.493H565.743L570.241 367.253H567.774L564.366 357.11H564.266L560.865 367.253ZM560.946 362.25H567.675V364.107H560.946V362.25ZM478.716 388.253V375.493H483.501C484.481 375.493 485.303 375.676 485.968 376.041C486.637 376.407 487.141 376.91 487.482 377.549C487.827 378.185 487.999 378.907 487.999 379.717C487.999 380.536 487.827 381.262 487.482 381.898C487.137 382.533 486.628 383.034 485.955 383.399C485.283 383.761 484.454 383.942 483.47 383.942H480.298V382.041H483.158C483.731 382.041 484.201 381.942 484.566 381.742C484.932 381.543 485.202 381.269 485.376 380.92C485.555 380.571 485.644 380.17 485.644 379.717C485.644 379.265 485.555 378.866 485.376 378.521C485.202 378.176 484.93 377.908 484.56 377.717C484.194 377.522 483.723 377.425 483.146 377.425H481.027V388.253H478.716ZM490.007 388.253V375.493H494.792C495.772 375.493 496.594 375.663 497.259 376.004C497.928 376.345 498.432 376.822 498.773 377.437C499.118 378.048 499.29 378.76 499.29 379.574C499.29 380.392 499.116 381.103 498.767 381.705C498.422 382.303 497.913 382.766 497.24 383.094C496.567 383.418 495.741 383.58 494.761 383.58H491.353V381.661H494.449C495.022 381.661 495.492 381.582 495.857 381.424C496.223 381.262 496.493 381.028 496.667 380.72C496.846 380.409 496.935 380.027 496.935 379.574C496.935 379.121 496.846 378.735 496.667 378.415C496.488 378.091 496.216 377.846 495.851 377.68C495.485 377.51 495.014 377.425 494.437 377.425H492.318V388.253H490.007ZM496.599 382.471L499.757 388.253H497.178L494.075 382.471H496.599ZM501.418 388.253V375.493H509.717V377.431H503.729V380.895H509.287V382.833H503.729V386.315H509.766V388.253H501.418ZM516.399 388.253H512.075V375.493H516.486C517.753 375.493 518.841 375.749 519.751 376.259C520.664 376.766 521.366 377.495 521.856 378.446C522.347 379.398 522.592 380.536 522.592 381.861C522.592 383.19 522.344 384.332 521.85 385.287C521.36 386.243 520.652 386.976 519.726 387.487C518.804 387.997 517.695 388.253 516.399 388.253ZM514.386 386.253H516.286C517.175 386.253 517.917 386.091 518.511 385.767C519.105 385.439 519.551 384.951 519.85 384.303C520.149 383.651 520.299 382.837 520.299 381.861C520.299 380.884 520.149 380.075 519.85 379.431C519.551 378.783 519.109 378.299 518.523 377.979C517.942 377.655 517.219 377.493 516.355 377.493H514.386V386.253ZM525.741 388.253H523.274L527.766 375.493H530.619L535.118 388.253H532.651L529.243 378.11H529.143L525.741 388.253ZM525.822 383.25H532.551V385.107H525.822V383.25ZM537.049 375.493L540.37 385.536H540.501L543.815 375.493H546.357L541.859 388.253H539.005L534.513 375.493H537.049ZM548.186 388.253H545.719L550.211 375.493H553.064L557.563 388.253H555.095L551.687 378.11H551.588L548.186 388.253ZM548.267 383.25H554.996V385.107H548.267V383.25ZM569.565 379.798H567.235C567.169 379.416 567.046 379.078 566.868 378.783C566.689 378.484 566.467 378.23 566.201 378.023C565.935 377.815 565.632 377.659 565.291 377.555C564.955 377.447 564.592 377.393 564.201 377.393C563.507 377.393 562.893 377.568 562.357 377.917C561.821 378.262 561.402 378.768 561.098 379.437C560.795 380.102 560.644 380.914 560.644 381.873C560.644 382.849 560.795 383.672 561.098 384.34C561.406 385.005 561.825 385.507 562.357 385.848C562.893 386.184 563.505 386.353 564.195 386.353C564.577 386.353 564.934 386.303 565.266 386.203C565.603 386.099 565.904 385.948 566.17 385.748C566.44 385.549 566.666 385.304 566.849 385.013C567.036 384.722 567.165 384.39 567.235 384.016L569.565 384.029C569.478 384.635 569.289 385.204 568.998 385.736C568.712 386.268 568.336 386.737 567.871 387.144C567.406 387.547 566.861 387.862 566.238 388.091C565.615 388.315 564.924 388.427 564.164 388.427C563.042 388.427 562.041 388.168 561.161 387.649C560.28 387.129 559.586 386.38 559.08 385.399C558.573 384.419 558.32 383.244 558.32 381.873C558.32 380.498 558.575 379.323 559.086 378.347C559.597 377.366 560.293 376.617 561.173 376.097C562.054 375.578 563.051 375.319 564.164 375.319C564.874 375.319 565.534 375.418 566.145 375.618C566.756 375.817 567.3 376.11 567.777 376.496C568.255 376.878 568.647 377.348 568.955 377.904C569.266 378.457 569.47 379.088 569.565 379.798ZM562.899 371.568L564.164 373.163L565.428 371.568H567.403V371.655L565.048 374.347H563.285L560.924 371.655V371.568H562.899ZM573.167 388.253H570.699L575.191 375.493H578.045L582.543 388.253H580.076L576.668 378.11H576.568L573.167 388.253ZM573.248 383.25H579.976V385.107H573.248V383.25Z" fill="white"/>
<rect x="397.41" y="453.328" width="121.852" height="85.5304" rx="10.9654" fill="white"/>
<path d="M444.631 511.287C442.659 511.287 440.893 510.917 439.334 510.177C437.775 509.427 436.537 508.401 435.62 507.099C434.712 505.797 434.229 504.307 434.17 502.63H439.497C439.595 503.873 440.133 504.889 441.11 505.679C442.086 506.458 443.26 506.848 444.631 506.848C445.707 506.848 446.664 506.601 447.502 506.108C448.341 505.615 449.002 504.929 449.485 504.051C449.968 503.173 450.205 502.172 450.195 501.047C450.205 499.903 449.963 498.887 449.47 497.999C448.977 497.111 448.301 496.416 447.443 495.913C446.585 495.4 445.598 495.143 444.483 495.143C443.576 495.133 442.683 495.301 441.805 495.646C440.927 495.991 440.232 496.445 439.719 497.008L434.762 496.194L436.345 480.568H453.924V485.155H440.888L440.015 493.19H440.192C440.755 492.529 441.549 491.981 442.575 491.547C443.601 491.103 444.725 490.882 445.948 490.882C447.783 490.882 449.421 491.316 450.861 492.184C452.301 493.042 453.436 494.226 454.264 495.735C455.093 497.244 455.507 498.971 455.507 500.914C455.507 502.917 455.044 504.702 454.116 506.271C453.199 507.829 451.921 509.057 450.284 509.955C448.656 510.843 446.772 511.287 444.631 511.287ZM470.832 511.45C468.396 511.45 466.304 510.833 464.558 509.6C462.822 508.357 461.486 506.566 460.548 504.229C459.621 501.881 459.157 499.054 459.157 495.75C459.167 492.445 459.636 489.634 460.563 487.315C461.5 484.987 462.837 483.212 464.573 481.988C466.319 480.765 468.406 480.154 470.832 480.154C473.259 480.154 475.346 480.765 477.092 481.988C478.838 483.212 480.174 484.987 481.102 487.315C482.039 489.644 482.507 492.455 482.507 495.75C482.507 499.064 482.039 501.896 481.102 504.243C480.174 506.581 478.838 508.367 477.092 509.6C475.355 510.833 473.269 511.45 470.832 511.45ZM470.832 506.818C472.726 506.818 474.221 505.886 475.316 504.021C476.421 502.147 476.973 499.39 476.973 495.75C476.973 493.343 476.722 491.321 476.219 489.683C475.715 488.045 475.005 486.812 474.088 485.984C473.17 485.145 472.085 484.726 470.832 484.726C468.948 484.726 467.459 485.663 466.364 487.537C465.269 489.402 464.716 492.139 464.706 495.75C464.697 498.167 464.938 500.199 465.431 501.846C465.935 503.494 466.645 504.737 467.562 505.575C468.48 506.404 469.57 506.818 470.832 506.818Z" fill="#084B7C"/>
<g opacity="0.6" clip-path="url(#clip2_1837_474)" filter="url(#filter7_i_1837_474)">
<path d="M228.067 552.344L218.134 546.46" stroke="#1EBCEF" stroke-width="2.95553" stroke-miterlimit="10" stroke-linecap="round" stroke-linejoin="round"/>
<path d="M221.886 556.804L214.568 552.468" stroke="#1EBCEF" stroke-width="2.95553" stroke-miterlimit="10" stroke-linecap="round" stroke-linejoin="round"/>
<path d="M214.396 560.488L211.528 558.789" stroke="#1EBCEF" stroke-width="2.95553" stroke-miterlimit="10" stroke-linecap="round" stroke-linejoin="round"/>
<path d="M171.112 496.216H219.429" stroke="#1EBCEF" stroke-width="2.95553" stroke-miterlimit="10" stroke-linecap="round" stroke-linejoin="round"/>
<path d="M171.112 485.921H195.27" stroke="#1EBCEF" stroke-width="2.95553" stroke-miterlimit="10" stroke-linecap="round" stroke-linejoin="round"/>
<path d="M171.112 505.339H219.429" stroke="#1EBCEF" stroke-width="2.95553" stroke-miterlimit="10" stroke-linecap="round" stroke-linejoin="round"/>
<mask id="mask0_1837_474" style="mask-type:luminance" maskUnits="userSpaceOnUse" x="153" y="467" width="102" height="102">
<path d="M153.429 467.583H254.311V568.465H153.429V467.583Z" fill="white"/>
</mask>
<g mask="url(#mask0_1837_474)">
<path d="M213.112 469.476V479.834C213.112 483.196 215.838 485.921 219.2 485.921H229.557" stroke="#1EBCEF" stroke-width="2.95553" stroke-miterlimit="10" stroke-linecap="round" stroke-linejoin="round"/>
<path d="M229.973 513.107V487.831C229.973 486.608 229.487 485.436 228.622 484.571L214.463 470.412C213.598 469.547 212.425 469.061 211.202 469.061H166.655C163.294 469.061 160.568 471.786 160.568 475.148V553.557C160.568 556.919 163.294 559.644 166.655 559.644H182.118" stroke="#1EBCEF" stroke-width="2.95553" stroke-miterlimit="10" stroke-linecap="round" stroke-linejoin="round"/>
<path d="M190.419 520.959L187.36 519.147C186.519 518.648 185.432 518.926 184.934 519.768L172.358 540.996C171.859 541.837 172.137 542.924 172.979 543.422L176.038 545.234C178.089 546.45 180.738 545.772 181.954 543.72L191.933 526.875C193.149 524.823 192.471 522.174 190.419 520.959Z" stroke="#1EBCEF" stroke-width="2.95553" stroke-miterlimit="10" stroke-linecap="round" stroke-linejoin="round"/>
<path d="M232.651 535.825L237.328 543.72C238.544 545.772 241.193 546.45 243.244 545.234L246.303 543.422C247.145 542.923 247.423 541.837 246.924 540.996L234.348 519.768C233.849 518.926 232.763 518.648 231.922 519.147L228.863 520.959C226.811 522.174 226.133 524.823 227.349 526.875L229.113 529.853" stroke="#1EBCEF" stroke-width="2.95553" stroke-miterlimit="10" stroke-linecap="round" stroke-linejoin="round"/>
<path d="M209.487 527.961L208.983 527.662C206.081 525.997 204.724 525.689 202.107 526.701L199.253 527.804C197.517 528.475 195.569 528.313 193.967 527.365L192.203 526.324" stroke="#1EBCEF" stroke-width="2.95553" stroke-miterlimit="10" stroke-linecap="round" stroke-linejoin="round"/>
<path d="M181.273 544.586L184.229 546.331" stroke="#1EBCEF" stroke-width="2.95553" stroke-miterlimit="10" stroke-linecap="round" stroke-linejoin="round"/>
<path d="M206.101 563.695L210.834 566.499C212.494 567.483 214.637 566.934 215.621 565.274C216.604 563.614 216.056 561.471 214.396 560.488L218.325 562.815C219.985 563.799 222.128 563.25 223.111 561.59C224.095 559.93 223.546 557.787 221.886 556.804L224.506 558.356C226.166 559.339 228.309 558.791 229.292 557.131C230.275 555.471 229.727 553.328 228.067 552.344L231.273 554.243C232.932 555.227 235.075 554.678 236.058 553.018C237.042 551.359 236.493 549.216 234.834 548.232" stroke="#1EBCEF" stroke-width="2.95553" stroke-miterlimit="10" stroke-linecap="round" stroke-linejoin="round"/>
<path d="M227.497 527.125L227.086 527.365C225.484 528.313 223.536 528.476 221.8 527.804L218.582 526.54C217.576 526.145 216.471 526.075 215.423 526.34L210.493 527.588C208.198 528.169 206.59 530.234 206.59 532.601V539.182C206.59 540.112 207.344 540.869 208.275 540.87C211.081 540.872 213.356 538.598 213.356 535.792V535.513L234.458 548.01C234.848 547.593 235.297 547.233 235.79 546.941L238.78 545.194" stroke="#1EBCEF" stroke-width="2.95553" stroke-miterlimit="10" stroke-linecap="round" stroke-linejoin="round"/>
<path d="M187.571 553.574C186.446 555.141 184.264 555.499 182.697 554.374C181.13 553.249 180.772 551.067 181.897 549.5L183.875 546.745C185 545.178 187.182 544.819 188.749 545.944C190.316 547.069 190.674 549.251 189.549 550.818" stroke="#1EBCEF" stroke-width="2.95553" stroke-miterlimit="10" stroke-linecap="round" stroke-linejoin="round"/>
<path d="M197.406 551.851L193.245 557.647C192.12 559.214 189.938 559.573 188.371 558.448C186.804 557.323 186.446 555.141 187.57 553.574L191.732 547.777C192.857 546.21 195.039 545.852 196.606 546.977C198.173 548.102 198.531 550.284 197.406 551.851Z" stroke="#1EBCEF" stroke-width="2.95553" stroke-miterlimit="10" stroke-linecap="round" stroke-linejoin="round"/>
<path d="M197.407 551.851C198.531 550.284 200.713 549.925 202.28 551.05C203.847 552.175 204.206 554.357 203.081 555.924L198.919 561.721C197.794 563.288 195.612 563.646 194.045 562.521C192.478 561.396 192.12 559.214 193.245 557.647" stroke="#1EBCEF" stroke-width="2.95553" stroke-miterlimit="10" stroke-linecap="round" stroke-linejoin="round"/>
<path d="M201.232 558.5C202.356 556.933 204.539 556.575 206.105 557.7C207.672 558.824 208.031 561.007 206.906 562.573L205.522 564.501C204.397 566.068 202.215 566.427 200.648 565.302C199.081 564.177 198.723 561.994 199.848 560.428" stroke="#1EBCEF" stroke-width="2.95553" stroke-miterlimit="10" stroke-linecap="round" stroke-linejoin="round"/>
</g>
</g>
<path d="M270.868 562.738V616.982H259.4V573.624H259.082L246.66 581.411V571.24L260.088 562.738H270.868ZM285.906 616.982L308.393 572.485V572.114H282.198V562.738H320.259V572.247L297.745 616.982H285.906Z" fill="#084B7C"/>
<path opacity="0.96" d="M207.533 650.916V634.643H213.334C214.6 634.643 215.649 634.874 216.48 635.334C217.312 635.795 217.934 636.426 218.348 637.226C218.761 638.02 218.967 638.915 218.967 639.911C218.967 640.912 218.758 641.813 218.34 642.613C217.927 643.407 217.301 644.038 216.464 644.504C215.633 644.965 214.587 645.195 213.326 645.195H209.337V643.113H213.103C213.903 643.113 214.552 642.976 215.05 642.7C215.548 642.42 215.914 642.038 216.147 641.556C216.38 641.074 216.496 640.526 216.496 639.911C216.496 639.297 216.38 638.751 216.147 638.274C215.914 637.798 215.545 637.424 215.042 637.154C214.544 636.884 213.887 636.749 213.072 636.749H209.989V650.916H207.533ZM221.494 650.916H218.888L224.744 634.643H227.581L233.437 650.916H230.831L226.23 637.599H226.103L221.494 650.916ZM221.931 644.544H230.386V646.61H221.931V644.544ZM235.787 650.916V634.643H241.587C242.848 634.643 243.894 634.86 244.726 635.295C245.563 635.729 246.188 636.33 246.601 637.098C247.015 637.861 247.221 638.743 247.221 639.744C247.221 640.74 247.012 641.617 246.593 642.375C246.18 643.127 245.555 643.712 244.718 644.131C243.886 644.549 242.84 644.758 241.58 644.758H237.185V642.645H241.357C242.152 642.645 242.798 642.531 243.296 642.303C243.799 642.075 244.167 641.744 244.4 641.31C244.633 640.875 244.75 640.354 244.75 639.744C244.75 639.13 244.631 638.598 244.392 638.147C244.159 637.697 243.791 637.353 243.288 637.114C242.79 636.871 242.136 636.749 241.325 636.749H238.242V650.916H235.787ZM243.82 643.574L247.841 650.916H245.044L241.103 643.574H243.82ZM249.406 636.757V634.643H262.001V636.757H256.923V650.916H254.476V636.757H249.406ZM277.918 634.643V650.916H275.662L267.39 638.982H267.239V650.916H264.784V634.643H267.056L275.336 646.594H275.487V634.643H277.918ZM281.5 650.916V634.643H291.702V636.757H283.955V641.715H291.17V643.821H283.955V648.803H291.798V650.916H281.5ZM294.982 650.916V634.643H300.783C302.043 634.643 303.089 634.86 303.921 635.295C304.758 635.729 305.383 636.33 305.796 637.098C306.21 637.861 306.416 638.743 306.416 639.744C306.416 640.74 306.207 641.617 305.788 642.375C305.375 643.127 304.75 643.712 303.913 644.131C303.082 644.549 302.035 644.758 300.775 644.758H296.38V642.645H300.552C301.347 642.645 301.993 642.531 302.491 642.303C302.994 642.075 303.362 641.744 303.595 641.31C303.828 640.875 303.945 640.354 303.945 639.744C303.945 639.13 303.826 638.598 303.587 638.147C303.354 637.697 302.986 637.353 302.483 637.114C301.985 636.871 301.331 636.749 300.52 636.749H297.437V650.916H294.982ZM303.015 643.574L307.036 650.916H304.239L300.298 643.574H303.015ZM310.778 650.916H308.172L314.028 634.643H316.865L322.721 650.916H320.115L315.514 637.599H315.387L310.778 650.916ZM311.215 644.544H319.67V646.61H311.215V644.544Z" fill="#082234" fill-opacity="0.8"/>
<g filter="url(#filter8_bd_1837_474)">
<rect x="223.059" y="46.51" width="207.247" height="229.603" rx="8.77235" fill="white"/>
</g>
<g filter="url(#filter9_bd_1837_474)">
<rect x="223.607" y="47.0583" width="206.15" height="228.506" rx="8.22408" stroke="url(#paint5_linear_1837_474)" stroke-width="1.09654"/>
</g>
<path d="M282.742 223.518C278.768 223.518 275.233 222.872 272.136 221.582C269.057 220.275 266.64 218.494 264.885 216.241C263.13 213.987 262.253 211.432 262.253 208.577C262.253 206.375 262.752 204.353 263.75 202.513C264.765 200.655 266.141 199.115 267.878 197.894C269.616 196.655 271.56 195.864 273.71 195.52V195.158C270.889 194.591 268.601 193.223 266.846 191.055C265.091 188.871 264.214 186.333 264.214 183.443C264.214 180.708 265.014 178.273 266.614 176.14C268.214 173.99 270.407 172.304 273.194 171.083C275.998 169.844 279.181 169.225 282.742 169.225C286.303 169.225 289.477 169.844 292.264 171.083C295.068 172.321 297.27 174.016 298.87 176.166C300.47 178.299 301.278 180.725 301.295 183.443C301.278 186.35 300.384 188.888 298.612 191.055C296.84 193.223 294.569 194.591 291.799 195.158V195.52C293.915 195.864 295.833 196.655 297.554 197.894C299.291 199.115 300.667 200.655 301.682 202.513C302.715 204.353 303.239 206.375 303.256 208.577C303.239 211.432 302.353 213.987 300.599 216.241C298.844 218.494 296.418 220.275 293.322 221.582C290.242 222.872 286.716 223.518 282.742 223.518ZM282.742 215.312C284.514 215.312 286.062 214.993 287.387 214.357C288.711 213.703 289.743 212.809 290.483 211.673C291.24 210.521 291.619 209.196 291.619 207.699C291.619 206.168 291.231 204.818 290.457 203.648C289.683 202.461 288.634 201.532 287.309 200.861C285.985 200.173 284.462 199.829 282.742 199.829C281.039 199.829 279.516 200.173 278.174 200.861C276.832 201.532 275.775 202.461 275 203.648C274.243 204.818 273.865 206.168 273.865 207.699C273.865 209.196 274.235 210.521 274.975 211.673C275.714 212.809 276.755 213.703 278.097 214.357C279.439 214.993 280.987 215.312 282.742 215.312ZM282.742 191.7C284.221 191.7 285.537 191.399 286.69 190.797C287.842 190.195 288.746 189.361 289.399 188.294C290.053 187.228 290.38 185.998 290.38 184.604C290.38 183.228 290.053 182.024 289.399 180.992C288.746 179.942 287.851 179.125 286.716 178.54C285.58 177.938 284.256 177.637 282.742 177.637C281.245 177.637 279.92 177.938 278.768 178.54C277.615 179.125 276.712 179.942 276.058 180.992C275.422 182.024 275.104 183.228 275.104 184.604C275.104 185.998 275.43 187.228 276.084 188.294C276.738 189.361 277.641 190.195 278.794 190.797C279.946 191.399 281.262 191.7 282.742 191.7ZM311.069 222.795V214.744L329.88 197.326C331.48 195.778 332.822 194.384 333.906 193.146C335.007 191.907 335.841 190.694 336.409 189.507C336.977 188.303 337.26 187.004 337.26 185.611C337.26 184.062 336.908 182.729 336.202 181.611C335.497 180.475 334.534 179.607 333.312 179.005C332.091 178.385 330.706 178.076 329.158 178.076C327.541 178.076 326.13 178.403 324.926 179.056C323.722 179.71 322.793 180.648 322.139 181.869C321.485 183.09 321.158 184.544 321.158 186.23H310.553C310.553 182.772 311.335 179.77 312.901 177.224C314.466 174.678 316.66 172.708 319.481 171.315C322.302 169.921 325.554 169.225 329.235 169.225C333.02 169.225 336.314 169.896 339.118 171.237C341.94 172.562 344.133 174.403 345.699 176.76C347.264 179.116 348.047 181.817 348.047 184.862C348.047 186.858 347.651 188.828 346.86 190.772C346.086 192.715 344.701 194.874 342.705 197.248C340.71 199.605 337.897 202.435 334.267 205.738L326.552 213.299V213.66H348.743V222.795H311.069ZM358.93 222.795L380.838 179.443V179.082H355.317V169.947H392.398V179.211L370.465 222.795H358.93Z" fill="#084B7C"/>
<path opacity="0.8" d="M276.093 247.066C276.029 246.464 275.758 245.996 275.28 245.661C274.808 245.326 274.192 245.158 273.435 245.158C272.902 245.158 272.446 245.238 272.065 245.399C271.684 245.56 271.392 245.778 271.19 246.053C270.988 246.329 270.885 246.643 270.88 246.997C270.88 247.29 270.947 247.545 271.08 247.761C271.218 247.977 271.404 248.16 271.638 248.312C271.872 248.459 272.131 248.583 272.416 248.684C272.7 248.785 272.987 248.87 273.277 248.939L274.599 249.269C275.131 249.393 275.643 249.561 276.134 249.772C276.63 249.983 277.073 250.249 277.463 250.571C277.858 250.892 278.17 251.28 278.4 251.734C278.629 252.189 278.744 252.721 278.744 253.332C278.744 254.158 278.533 254.886 278.111 255.515C277.688 256.139 277.078 256.628 276.279 256.982C275.485 257.331 274.523 257.505 273.394 257.505C272.296 257.505 271.344 257.335 270.536 256.995C269.732 256.656 269.104 256.16 268.649 255.508C268.199 254.856 267.956 254.062 267.919 253.125H270.433C270.469 253.617 270.621 254.025 270.887 254.351C271.153 254.677 271.5 254.92 271.927 255.081C272.358 255.242 272.84 255.322 273.373 255.322C273.928 255.322 274.415 255.239 274.833 255.074C275.255 254.904 275.586 254.67 275.824 254.372C276.063 254.069 276.185 253.715 276.189 253.311C276.185 252.944 276.077 252.641 275.866 252.402C275.655 252.159 275.358 251.957 274.977 251.796C274.601 251.631 274.16 251.484 273.655 251.356L272.051 250.942C270.889 250.644 269.971 250.192 269.296 249.586C268.626 248.975 268.291 248.165 268.291 247.155C268.291 246.324 268.516 245.596 268.966 244.972C269.42 244.348 270.038 243.863 270.818 243.519C271.599 243.17 272.482 242.996 273.469 242.996C274.47 242.996 275.347 243.17 276.1 243.519C276.857 243.863 277.452 244.343 277.883 244.958C278.315 245.569 278.538 246.271 278.551 247.066H276.093ZM280.402 245.33V243.189H291.654V245.33H287.295V257.292H284.761V245.33H280.402ZM302.713 243.189H305.268V252.402C305.268 253.412 305.029 254.301 304.552 255.067C304.079 255.834 303.413 256.433 302.555 256.865C301.696 257.292 300.693 257.505 299.546 257.505C298.393 257.505 297.388 257.292 296.529 256.865C295.671 256.433 295.005 255.834 294.532 255.067C294.06 254.301 293.823 253.412 293.823 252.402V243.189H296.378V252.189C296.378 252.776 296.507 253.3 296.764 253.759C297.025 254.218 297.393 254.578 297.865 254.84C298.338 255.097 298.898 255.226 299.546 255.226C300.193 255.226 300.753 255.097 301.226 254.84C301.703 254.578 302.071 254.218 302.328 253.759C302.585 253.3 302.713 252.776 302.713 252.189V243.189ZM312.824 257.292H308.045V243.189H312.92C314.321 243.189 315.523 243.471 316.529 244.036C317.539 244.596 318.315 245.401 318.856 246.453C319.398 247.504 319.669 248.762 319.669 250.226C319.669 251.695 319.396 252.958 318.849 254.014C318.308 255.07 317.525 255.88 316.501 256.445C315.482 257.009 314.256 257.292 312.824 257.292ZM310.6 255.081H312.7C313.682 255.081 314.502 254.902 315.158 254.544C315.815 254.181 316.308 253.642 316.639 252.926C316.969 252.205 317.135 251.305 317.135 250.226C317.135 249.147 316.969 248.252 316.639 247.541C316.308 246.824 315.819 246.29 315.172 245.936C314.529 245.578 313.731 245.399 312.776 245.399H310.6V255.081ZM322.096 257.292V243.189H331.269V245.33H324.651V249.159H330.793V251.301H324.651V255.15H331.324V257.292H322.096ZM345.464 243.189V257.292H343.192L336.547 247.685H336.43V257.292H333.875V243.189H336.161L342.8 252.802H342.923V243.189H345.464ZM350.059 257.292H347.332L352.297 243.189H355.451L360.423 257.292H357.696L353.929 246.081H353.819L350.059 257.292ZM350.149 251.762H357.586V253.814H350.149V251.762ZM359.956 245.33V243.189H371.208V245.33H366.85V257.292H364.315V245.33H359.956ZM373.484 257.292H370.757L375.722 243.189H378.876L383.848 257.292H381.121L377.354 246.081H377.244L373.484 257.292ZM373.574 251.762H381.011V253.814H373.574V251.762Z" fill="#084B7C"/>
<g opacity="0.4" filter="url(#filter10_i_1837_474)">
<path fill-rule="evenodd" clip-rule="evenodd" d="M357.632 101.105L363.725 102.56C369.472 103.933 373.486 109.019 373.486 114.927V127.204C373.486 128.213 372.668 129.031 371.659 129.031H357.017V134.51C357.017 135.519 356.199 136.337 355.191 136.337H335.495V136.337H317.961V136.337H298.229C297.221 136.337 296.403 135.519 296.403 134.51V129.031H281.798C280.789 129.031 279.971 128.213 279.971 127.204V114.927C279.971 109.019 283.985 103.933 289.733 102.56L295.825 101.105V98.6881C292.443 96.5508 290.191 92.7812 290.191 88.4933V81.6866C290.191 75.0398 295.599 69.6321 302.246 69.6321C305.847 69.6321 309.082 71.2211 311.293 73.7325C313.218 67.0124 319.417 62.0801 326.748 62.0801C334.066 62.0801 340.257 66.9969 342.193 73.7005C344.403 71.2076 347.626 69.6321 351.212 69.6321C357.859 69.6321 363.267 75.0396 363.267 81.6866V88.4933C363.267 92.781 361.014 96.5507 357.632 98.6881V101.105ZM318.288 132.684H334.378C334.385 132.684 334.392 132.684 334.4 132.684H343.345V124.645C343.345 123.637 344.163 122.819 345.171 122.819C346.18 122.819 346.998 123.637 346.998 124.645V132.684H353.364V127.919V127.204V126.49V124.452C353.364 118.253 349.153 112.918 343.124 111.478L334.167 109.338L328.393 122.469C328.102 123.132 327.445 123.56 326.721 123.56C325.997 123.56 325.341 123.132 325.049 122.469L319.269 109.319L310.286 111.471C304.262 112.915 300.055 118.249 300.055 124.443V132.684H306.459V124.645C306.459 123.637 307.277 122.819 308.286 122.819C309.294 122.819 310.112 123.637 310.112 124.645V132.684H318.266C318.273 132.684 318.281 132.684 318.288 132.684ZM359.614 81.6866C359.614 77.054 355.844 73.285 351.212 73.285C347.399 73.285 344.172 75.8371 343.148 79.3223C346.565 81.2863 350.443 82.3224 354.389 82.3224H359.614V82.1389V81.6866ZM342.82 83.2842C342.82 83.2842 342.816 88.0087 342.809 88.1952V88.4933C342.809 93.1259 346.579 96.8949 351.212 96.8949C355.844 96.8949 359.614 93.1261 359.614 88.4935V85.9755H354.39C350.37 85.9755 346.411 85.05 342.82 83.2842ZM326.747 65.7332C319.899 65.7332 314.327 71.3046 314.327 78.153V79.7559H319.466C323.567 79.7559 327.43 77.9532 330.064 74.8102C330.637 74.1266 331.62 73.9566 332.389 74.4086L339.168 78.3912V78.153C339.168 71.3047 333.596 65.7332 326.747 65.7332ZM293.843 81.6866V82.1391V82.3226H299.068C303.014 82.3226 306.891 81.2863 310.309 79.3225C309.285 75.8371 306.058 73.285 302.246 73.285C297.613 73.285 293.843 77.0539 293.843 81.6866ZM293.843 85.9753V88.4933C293.843 93.1259 297.613 96.8949 302.246 96.8949C306.878 96.8949 310.648 93.1261 310.648 88.4933V83.2789C307.054 85.0482 303.092 85.9753 299.068 85.9753H293.843ZM296.403 125.378V124.443C296.403 120.438 297.786 116.717 300.149 113.781L296.37 104.73L290.581 106.113C286.485 107.092 283.624 110.716 283.624 114.927V125.378H287.277V117.263C287.277 116.255 288.095 115.437 289.104 115.437C290.112 115.437 290.93 116.255 290.93 117.263V125.378H296.403ZM299.472 102.678L302.246 109.322L305.009 102.706L305.009 102.706C305.004 102.649 304.998 102.591 304.998 102.534C304.998 102.5 304.999 102.465 305.001 102.431V100.226C304.115 100.434 303.194 100.548 302.246 100.548C301.293 100.548 300.367 100.433 299.478 100.224V102.547C299.478 102.591 299.475 102.634 299.472 102.678ZM306.347 108.981C307.326 108.537 308.357 108.178 309.435 107.919L315.227 106.531C314.803 106.359 314.366 106.216 313.917 106.109L308.126 104.721L306.347 108.981ZM314.768 102.556C316.096 102.875 317.354 103.401 318.501 104.112V101.425C315.919 99.8752 313.806 97.6224 312.429 94.9322C311.466 96.4496 310.175 97.7377 308.654 98.696V101.091L314.768 102.556ZM326.722 117.195L331.282 106.824V103.054C329.844 103.478 328.322 103.706 326.747 103.706C325.152 103.706 323.61 103.472 322.154 103.037V106.803L326.722 117.195ZM314.327 87.6336C314.327 94.4818 319.899 100.053 326.747 100.054C333.452 100.054 338.93 94.7125 339.157 88.0622V82.6214L331.811 78.3057C328.546 81.5665 324.128 83.409 319.466 83.409H314.327V87.6336ZM341.049 94.9644C339.661 97.6604 337.533 99.9148 334.935 101.459V104.126C336.088 103.408 337.353 102.877 338.689 102.556L344.803 101.091V98.696C343.293 97.7442 342.01 96.4677 341.049 94.9644ZM338.197 106.545L343.973 107.925C345.067 108.187 346.112 108.552 347.103 109.003L345.317 104.725L339.54 106.109C339.079 106.219 338.631 106.366 338.197 106.545ZM348.457 102.533C348.457 102.6 348.451 102.667 348.444 102.733L351.195 109.322L353.984 102.645C353.983 102.639 353.983 102.633 353.982 102.626C353.981 102.6 353.979 102.573 353.979 102.546V100.223C353.09 100.433 352.164 100.548 351.212 100.548C350.263 100.548 349.342 100.434 348.456 100.226V102.482C348.456 102.499 348.457 102.516 348.457 102.533ZM366.18 125.378H369.833V114.927C369.833 110.716 366.972 107.092 362.876 106.113L357.073 104.727L353.282 113.803C355.639 116.736 357.017 120.452 357.017 124.452V125.378H362.527V117.263C362.527 116.255 363.345 115.437 364.353 115.437C365.362 115.437 366.18 116.255 366.18 117.263V125.378Z" fill="#1EBCEF"/>
</g>
<g filter="url(#filter11_d_1837_474)">
<circle cx="428.342" cy="46.7392" r="28.7392" fill="white"/>
</g>
<circle cx="428.342" cy="46.7394" r="26.3443" fill="white"/>
<path d="M443.346 40.0772C443.333 39.8808 443.3 39.6862 443.249 39.4963C443.232 39.4257 443.209 39.3586 443.189 39.2881C442.974 38.6484 442.587 38.0803 442.07 37.6461C442.06 37.6305 442.047 37.6178 442.03 37.6092C441.97 37.5588 441.909 37.5118 441.842 37.4648C441.736 37.3817 441.624 37.3066 441.506 37.2398L440.381 36.6018L437.437 34.9229L436.822 34.5871L436.486 34.3957L436.03 34.1372C435.927 34.0758 435.812 34.0358 435.693 34.0195C435.574 34.0032 435.453 34.0109 435.337 34.0422C435.222 34.0735 435.113 34.1278 435.019 34.2018C434.924 34.2758 434.846 34.368 434.787 34.473C434.667 34.6845 434.635 34.9347 434.698 35.1696C434.761 35.4045 434.914 35.6054 435.123 35.7288L435.415 35.8967L435.681 36.0511L435.885 36.1687L436.282 36.3936L436.577 36.5582L440.291 38.6568L440.318 38.677C440.405 38.7259 440.489 38.7809 440.57 38.8415C440.619 38.8749 440.666 38.9119 440.711 38.9523C440.721 38.9607 440.73 38.9709 440.737 38.9825C440.989 39.2022 441.192 39.473 441.331 39.777C441.469 40.081 441.542 40.4111 441.543 40.7454L441.473 53.072C441.473 53.4519 441.374 53.8252 441.186 54.1551C440.997 54.4849 440.726 54.7598 440.398 54.9523L429.767 61.3087C429.398 61.5224 428.979 61.6349 428.552 61.6349C428.125 61.6349 427.706 61.5224 427.336 61.3087L417.035 55.4829C416.662 55.2775 416.352 54.9767 416.135 54.6114C415.917 54.246 415.801 53.8294 415.799 53.4044L415.866 41.0778C415.867 40.6973 415.967 40.3237 416.156 39.9935C416.345 39.6632 416.616 39.3878 416.944 39.1941L424.959 34.4024L425.167 34.2782L426.541 33.4085C426.467 33.6973 426.396 33.9827 426.322 34.2614C426.297 34.3573 426.291 34.4574 426.306 34.5555C426.321 34.6537 426.356 34.7476 426.409 34.8316C426.462 34.9155 426.531 34.9875 426.614 35.0431C426.696 35.0987 426.789 35.1367 426.886 35.1546H426.967C427.032 35.1705 427.098 35.1784 427.165 35.1781C427.346 35.1742 427.521 35.108 427.659 34.9906C427.797 34.8731 427.891 34.7117 427.924 34.5334L428.646 31.7195C428.674 31.6118 428.681 31.4995 428.665 31.3892C428.649 31.279 428.61 31.1732 428.552 31.0782C428.497 30.9876 428.425 30.909 428.339 30.8472C428.253 30.7855 428.155 30.7418 428.052 30.7189L425.211 30.0138C425.111 29.9813 425.006 29.9688 424.901 29.9771C424.796 29.9853 424.694 30.0141 424.601 30.0618C424.507 30.1096 424.424 30.1752 424.356 30.2551C424.288 30.335 424.236 30.4276 424.203 30.5275L424.156 30.6853C424.133 30.7764 424.127 30.8715 424.141 30.9647C424.155 31.0578 424.187 31.1473 424.237 31.2276C424.286 31.3079 424.351 31.3774 424.428 31.4319C424.505 31.4865 424.592 31.5249 424.684 31.5449L425.661 31.7934L424.318 32.6463L424.032 32.8142L415.718 37.8106C415.208 38.1136 414.784 38.5439 414.49 39.0596C414.196 39.5752 414.041 40.1584 414.039 40.7521L413.972 53.767C413.973 54.4132 414.147 55.0474 414.475 55.604C414.803 56.1607 415.274 56.6196 415.839 56.9335L426.705 63.0883C427.264 63.408 427.898 63.5759 428.542 63.5752C429.193 63.5769 429.832 63.4029 430.392 63.0716L441.61 56.3559C442.122 56.0542 442.546 55.6241 442.841 55.1082C443.135 54.5923 443.29 54.0085 443.289 53.4145L443.36 40.4096C443.361 40.2974 443.356 40.1853 443.343 40.0738" fill="#0B4978"/>
<path d="M435.324 42.149L429.821 39.0396C429.481 38.8481 429.098 38.7474 428.708 38.7474C428.318 38.7474 427.934 38.8481 427.595 39.0396L421.93 42.4276C421.618 42.6116 421.36 42.8738 421.18 43.1883C421 43.5027 420.906 43.8586 420.906 44.2207L420.872 50.1943V50.792C420.874 51.1583 420.967 51.5185 421.142 51.8399C421.318 52.1612 421.572 52.4335 421.88 52.6321L423.206 53.3876L423.367 53.4783L423.478 53.5387L423.814 53.7368C423.94 53.8075 424.082 53.8445 424.227 53.8443C424.298 53.8451 424.368 53.8338 424.435 53.8107C424.54 53.7839 424.639 53.7358 424.725 53.6694C424.811 53.603 424.883 53.5197 424.935 53.4245C424.989 53.3297 425.024 53.2253 425.037 53.1171C425.051 53.0089 425.043 52.8991 425.014 52.794C424.985 52.6889 424.935 52.5905 424.868 52.5046C424.801 52.4186 424.718 52.3467 424.623 52.2929H424.603L424.267 52.1049L424.113 52.0075L423.629 51.7355L423.569 51.702L422.978 51.3662C422.846 51.2939 422.736 51.188 422.659 51.0595C422.582 50.9309 422.54 50.7842 422.538 50.6342L422.571 44.4088C422.571 44.2793 422.605 44.152 422.669 44.0396C422.734 43.9271 422.826 43.8333 422.937 43.7674L428.31 40.5573C428.442 40.4823 428.591 40.4428 428.743 40.4428C428.895 40.4428 429.044 40.4823 429.176 40.5573L434.377 43.4988C434.509 43.5702 434.62 43.6759 434.696 43.8047C434.773 43.9336 434.814 44.0808 434.814 44.2308L434.784 50.4562C434.784 50.5857 434.75 50.7129 434.686 50.8254C434.622 50.9379 434.529 51.0317 434.418 51.0976L430.506 53.448C430.56 53.2499 430.61 53.0552 430.66 52.8671C430.684 52.7833 430.69 52.6955 430.678 52.6092C430.666 52.523 430.636 52.4401 430.591 52.3658C430.546 52.2915 430.485 52.2273 430.414 52.1772C430.343 52.1271 430.262 52.0922 430.177 52.0747H430.123C430.034 52.0509 429.941 52.0458 429.849 52.0596C429.758 52.0735 429.671 52.106 429.593 52.1552C429.514 52.2043 429.447 52.269 429.395 52.3453C429.343 52.4216 429.308 52.5078 429.29 52.5985L428.713 54.6938C428.688 54.786 428.682 54.8824 428.695 54.9771C428.708 55.0717 428.741 55.1627 428.79 55.2445C428.836 55.3229 428.897 55.3914 428.969 55.4456C429.042 55.4998 429.125 55.5388 429.213 55.5601L431.305 56.1108C431.38 56.1334 431.458 56.1448 431.537 56.1444C431.681 56.1484 431.822 56.1044 431.938 56.0193C432.054 55.9341 432.139 55.8128 432.178 55.6743L432.218 55.5433C432.239 55.4639 432.244 55.3812 432.232 55.3001C432.22 55.2189 432.192 55.1409 432.15 55.0706C432.108 55.0002 432.052 54.939 431.986 54.8905C431.92 54.8419 431.845 54.807 431.765 54.7878L431.557 54.7341L435.388 52.444C435.7 52.2601 435.959 51.9979 436.138 51.6834C436.318 51.369 436.412 51.0131 436.412 50.651L436.449 44.0797C436.449 43.6894 436.345 43.3063 436.147 42.9698C435.949 42.6334 435.665 42.3558 435.324 42.1657" fill="#20BDEF"/>
<defs>
<filter id="filter0_b_1837_474" x="368.899" y="57.4756" width="405.721" height="437.521" filterUnits="userSpaceOnUse" color-interpolation-filters="sRGB">
<feFlood flood-opacity="0" result="BackgroundImageFix"/>
<feGaussianBlur in="BackgroundImageFix" stdDeviation="43.8618"/>
<feComposite in2="SourceAlpha" operator="in" result="effect1_backgroundBlur_1837_474"/>
<feBlend mode="normal" in="SourceGraphic" in2="effect1_backgroundBlur_1837_474" result="shape"/>
</filter>
<filter id="filter1_i_1837_474" x="543.25" y="156.164" width="135.01" height="135.01" filterUnits="userSpaceOnUse" color-interpolation-filters="sRGB">
<feFlood flood-opacity="0" result="BackgroundImageFix"/>
<feBlend mode="normal" in="SourceGraphic" in2="BackgroundImageFix" result="shape"/>
<feColorMatrix in="SourceAlpha" type="matrix" values="0 0 0 0 0 0 0 0 0 0 0 0 0 0 0 0 0 0 127 0" result="hardAlpha"/>
<feOffset dx="2.32775" dy="2.32775"/>
<feGaussianBlur stdDeviation="1.74581"/>
<feComposite in2="hardAlpha" operator="arithmetic" k2="-1" k3="1"/>
<feColorMatrix type="matrix" values="0 0 0 0 0 0 0 0 0 0 0 0 0 0 0 0 0 0 0.05 0"/>
<feBlend mode="normal" in2="shape" result="effect1_innerShadow_1837_474"/>
</filter>
<filter id="filter2_bd_1837_474" x="368.899" y="57.4756" width="405.721" height="450.68" filterUnits="userSpaceOnUse" color-interpolation-filters="sRGB">
<feFlood flood-opacity="0" result="BackgroundImageFix"/>
<feGaussianBlur in="BackgroundImageFix" stdDeviation="43.8618"/>
<feComposite in2="SourceAlpha" operator="in" result="effect1_backgroundBlur_1837_474"/>
<feColorMatrix in="SourceAlpha" type="matrix" values="0 0 0 0 0 0 0 0 0 0 0 0 0 0 0 0 0 0 127 0" result="hardAlpha"/>
<feMorphology radius="19.7378" operator="erode" in="SourceAlpha" result="effect2_dropShadow_1837_474"/>
<feOffset dy="43.8618"/>
<feGaussianBlur stdDeviation="38.379"/>
<feColorMatrix type="matrix" values="0 0 0 0 0 0 0 0 0 0 0 0 0 0 0 0 0 0 0.1 0"/>
<feBlend mode="normal" in2="effect1_backgroundBlur_1837_474" result="effect2_dropShadow_1837_474"/>
<feBlend mode="normal" in="SourceGraphic" in2="effect2_dropShadow_1837_474" result="shape"/>
</filter>
<filter id="filter3_b_1837_474" x="290.321" y="346.963" width="592.134" height="298.26" filterUnits="userSpaceOnUse" color-interpolation-filters="sRGB">
<feFlood flood-opacity="0" result="BackgroundImageFix"/>
<feGaussianBlur in="BackgroundImageFix" stdDeviation="43.8618"/>
<feComposite in2="SourceAlpha" operator="in" result="effect1_backgroundBlur_1837_474"/>
<feBlend mode="normal" in="SourceGraphic" in2="effect1_backgroundBlur_1837_474" result="shape"/>
</filter>
<filter id="filter4_b_1837_474" x="-83.1441" y="110.748" width="363.682" height="395.034" filterUnits="userSpaceOnUse" color-interpolation-filters="sRGB">
<feFlood flood-opacity="0" result="BackgroundImageFix"/>
<feGaussianBlur in="BackgroundImageFix" stdDeviation="41.8025"/>
<feComposite in2="SourceAlpha" operator="in" result="effect1_backgroundBlur_1837_474"/>
<feBlend mode="normal" in="SourceGraphic" in2="effect1_backgroundBlur_1837_474" result="shape"/>
</filter>
<filter id="filter5_d_1837_474" x="79.2926" y="436.683" width="333.631" height="356.109" filterUnits="userSpaceOnUse" color-interpolation-filters="sRGB">
<feFlood flood-opacity="0" result="BackgroundImageFix"/>
<feColorMatrix in="SourceAlpha" type="matrix" values="0 0 0 0 0 0 0 0 0 0 0 0 0 0 0 0 0 0 127 0" result="hardAlpha"/>
<feMorphology radius="21.6769" operator="erode" in="SourceAlpha" result="effect1_dropShadow_1837_474"/>
<feOffset dy="48.1709"/>
<feGaussianBlur stdDeviation="42.1495"/>
<feColorMatrix type="matrix" values="0 0 0 0 0 0 0 0 0 0 0 0 0 0 0 0 0 0 0.1 0"/>
<feBlend mode="normal" in2="BackgroundImageFix" result="effect1_dropShadow_1837_474"/>
<feBlend mode="normal" in="SourceGraphic" in2="effect1_dropShadow_1837_474" result="shape"/>
</filter>
<filter id="filter6_d_1837_474" x="151.784" y="275.688" width="350.894" height="257.688" filterUnits="userSpaceOnUse" color-interpolation-filters="sRGB">
<feFlood flood-opacity="0" result="BackgroundImageFix"/>
<feColorMatrix in="SourceAlpha" type="matrix" values="0 0 0 0 0 0 0 0 0 0 0 0 0 0 0 0 0 0 127 0" result="hardAlpha"/>
<feMorphology radius="15.3516" operator="erode" in="SourceAlpha" result="effect1_dropShadow_1837_474"/>
<feOffset dy="38.379"/>
<feGaussianBlur stdDeviation="43.8618"/>
<feColorMatrix type="matrix" values="0 0 0 0 0 0 0 0 0 0 0 0 0 0 0 0 0 0 0.08 0"/>
<feBlend mode="normal" in2="BackgroundImageFix" result="effect1_dropShadow_1837_474"/>
<feBlend mode="normal" in="SourceGraphic" in2="effect1_dropShadow_1837_474" result="shape"/>
</filter>
<filter id="filter7_i_1837_474" x="158.363" y="467.583" width="97.7185" height="103.201" filterUnits="userSpaceOnUse" color-interpolation-filters="sRGB">
<feFlood flood-opacity="0" result="BackgroundImageFix"/>
<feBlend mode="normal" in="SourceGraphic" in2="BackgroundImageFix" result="shape"/>
<feColorMatrix in="SourceAlpha" type="matrix" values="0 0 0 0 0 0 0 0 0 0 0 0 0 0 0 0 0 0 127 0" result="hardAlpha"/>
<feOffset dx="2.31913" dy="2.31913"/>
<feGaussianBlur stdDeviation="1.73935"/>
<feComposite in2="hardAlpha" operator="arithmetic" k2="-1" k3="1"/>
<feColorMatrix type="matrix" values="0 0 0 0 0 0 0 0 0 0 0 0 0 0 0 0 0 0 0.15 0"/>
<feBlend mode="normal" in2="shape" result="effect1_innerShadow_1837_474"/>
</filter>
<filter id="filter8_bd_1837_474" x="135.336" y="-41.2135" width="382.694" height="418.208" filterUnits="userSpaceOnUse" color-interpolation-filters="sRGB">
<feFlood flood-opacity="0" result="BackgroundImageFix"/>
<feGaussianBlur in="BackgroundImageFix" stdDeviation="43.8618"/>
<feComposite in2="SourceAlpha" operator="in" result="effect1_backgroundBlur_1837_474"/>
<feColorMatrix in="SourceAlpha" type="matrix" values="0 0 0 0 0 0 0 0 0 0 0 0 0 0 0 0 0 0 127 0" result="hardAlpha"/>
<feMorphology radius="19.7378" operator="erode" in="SourceAlpha" result="effect2_dropShadow_1837_474"/>
<feOffset dy="43.8618"/>
<feGaussianBlur stdDeviation="38.379"/>
<feColorMatrix type="matrix" values="0 0 0 0 0 0 0 0 0 0 0 0 0 0 0 0 0 0 0.1 0"/>
<feBlend mode="normal" in2="effect1_backgroundBlur_1837_474" result="effect2_dropShadow_1837_474"/>
<feBlend mode="normal" in="SourceGraphic" in2="effect2_dropShadow_1837_474" result="shape"/>
</filter>
<filter id="filter9_bd_1837_474" x="135.336" y="-41.2135" width="382.694" height="418.208" filterUnits="userSpaceOnUse" color-interpolation-filters="sRGB">
<feFlood flood-opacity="0" result="BackgroundImageFix"/>
<feGaussianBlur in="BackgroundImageFix" stdDeviation="43.8618"/>
<feComposite in2="SourceAlpha" operator="in" result="effect1_backgroundBlur_1837_474"/>
<feColorMatrix in="SourceAlpha" type="matrix" values="0 0 0 0 0 0 0 0 0 0 0 0 0 0 0 0 0 0 127 0" result="hardAlpha"/>
<feMorphology radius="19.7378" operator="erode" in="SourceAlpha" result="effect2_dropShadow_1837_474"/>
<feOffset dy="43.8618"/>
<feGaussianBlur stdDeviation="38.379"/>
<feColorMatrix type="matrix" values="0 0 0 0 0 0 0 0 0 0 0 0 0 0 0 0 0 0 0.1 0"/>
<feBlend mode="normal" in2="effect1_backgroundBlur_1837_474" result="effect2_dropShadow_1837_474"/>
<feBlend mode="normal" in="SourceGraphic" in2="effect2_dropShadow_1837_474" result="shape"/>
</filter>
<filter id="filter10_i_1837_474" x="279.971" y="62.0801" width="95.4047" height="76.1473" filterUnits="userSpaceOnUse" color-interpolation-filters="sRGB">
<feFlood flood-opacity="0" result="BackgroundImageFix"/>
<feBlend mode="normal" in="SourceGraphic" in2="BackgroundImageFix" result="shape"/>
<feColorMatrix in="SourceAlpha" type="matrix" values="0 0 0 0 0 0 0 0 0 0 0 0 0 0 0 0 0 0 127 0" result="hardAlpha"/>
<feOffset dx="1.89051" dy="1.89051"/>
<feGaussianBlur stdDeviation="1.41788"/>
<feComposite in2="hardAlpha" operator="arithmetic" k2="-1" k3="1"/>
<feColorMatrix type="matrix" values="0 0 0 0 0 0 0 0 0 0 0 0 0 0 0 0 0 0 0.06 0"/>
<feBlend mode="normal" in2="shape" result="effect1_innerShadow_1837_474"/>
</filter>
<filter id="filter11_d_1837_474" x="327.755" y="0.037981" width="153.276" height="153.276" filterUnits="userSpaceOnUse" color-interpolation-filters="sRGB">
<feFlood flood-opacity="0" result="BackgroundImageFix"/>
<feColorMatrix in="SourceAlpha" type="matrix" values="0 0 0 0 0 0 0 0 0 0 0 0 0 0 0 0 0 0 127 0" result="hardAlpha"/>
<feOffset dx="-23.9494" dy="29.9367"/>
<feGaussianBlur stdDeviation="23.9494"/>
<feColorMatrix type="matrix" values="0 0 0 0 0.0627451 0 0 0 0 0.145098 0 0 0 0 0.227451 0 0 0 0.15 0"/>
<feBlend mode="normal" in2="BackgroundImageFix" result="effect1_dropShadow_1837_474"/>
<feBlend mode="normal" in="SourceGraphic" in2="effect1_dropShadow_1837_474" result="shape"/>
</filter>
<linearGradient id="paint0_linear_1837_474" x1="571.76" y1="145.199" x2="571.76" y2="407.273" gradientUnits="userSpaceOnUse">
<stop stop-color="#DCDCDC"/>
<stop offset="1" stop-color="#DCDCDC" stop-opacity="0.2"/>
</linearGradient>
<linearGradient id="paint1_linear_1837_474" x1="377.672" y1="496.093" x2="655.646" y2="496.093" gradientUnits="userSpaceOnUse">
<stop stop-color="#DCDCDC"/>
<stop offset="1" stop-color="#DCDCDC" stop-opacity="0.2"/>
</linearGradient>
<linearGradient id="paint2_linear_1837_474" x1="98.6969" y1="194.353" x2="98.6969" y2="422.177" gradientUnits="userSpaceOnUse">
<stop stop-color="#DCDCDC"/>
<stop offset="1" stop-color="#DCDCDC" stop-opacity="0.2"/>
</linearGradient>
<linearGradient id="paint3_linear_1837_474" x1="246.108" y1="451.135" x2="246.108" y2="682" gradientUnits="userSpaceOnUse">
<stop stop-color="#DCDCDC"/>
<stop offset="1" stop-color="#DCDCDC" stop-opacity="0.2"/>
</linearGradient>
<linearGradient id="paint4_linear_1837_474" x1="223.972" y1="365.653" x2="411.948" y2="365.653" gradientUnits="userSpaceOnUse">
<stop stop-color="#DCDCDC"/>
<stop offset="1" stop-color="#DCDCDC" stop-opacity="0.2"/>
</linearGradient>
<linearGradient id="paint5_linear_1837_474" x1="326.682" y1="46.51" x2="326.682" y2="276.113" gradientUnits="userSpaceOnUse">
<stop stop-color="#DCDCDC"/>
<stop offset="1" stop-color="#DCDCDC" stop-opacity="0.2"/>
</linearGradient>
<clipPath id="clip0_1837_474">
<rect width="132.682" height="132.682" fill="white" transform="translate(543.25 156.164)"/>
</clipPath>
<clipPath id="clip1_1837_474">
<rect width="88.9662" height="88.9662" fill="white" transform="translate(16.137 210.029)"/>
</clipPath>
<clipPath id="clip2_1837_474">
<rect width="95.3993" height="100.882" fill="white" transform="translate(158.363 467.583)"/>
</clipPath>
</defs>
</svg>
